Pretendard-Split-Han.glyphspackage
{
color = 0;
glyphname = uni2E99;
layers = (
{
layerId = "CD0E3B44-F66A-4791-B84C-A1128DC61275";
shapes = (
{
closed = 1;
nodes = (
(754,1807,l),
(754,1612,l),
(2543,1612,l),
(2543,1807,l)
);
},
{
closed = 1;
nodes = (
(935,2323,l),
(747,1817,o),
(437,1342,o),
(70,1042,c),
(122,1010,o),
(212,940,o),
(248,904,c),
(604,1229,o),
(926,1725,o),
(1138,2268,c)
);
},
{
closed = 1;
nodes = (
(1952,1729,l),
(1676,755,o),
(1118,246,o),
(105,-15,c),
(149,-59,o),
(219,-147,o),
(244,-196,c),
(1264,101,o),
(1853,638,o),
(2163,1677,c)
);
},
{
closed = 1;
nodes = (
(588,1537,l),
(918,648,o),
(1523,50,o),
(2488,-188,c),
(2519,-134,o),
(2576,-47,o),
(2623,-4,c),
(1678,208,o),
(1066,784,o),
(774,1597,c)
);
}
);
width = 2716;
},
{
layerId = "5C20EF92-B63D-42A8-8878-93C2863E0093";
shapes = (
{
closed = 1;
nodes = (
(771,1916,l),
(771,1514,l),
(2572,1514,l),
(2572,1916,l)
);
},
{
closed = 1;
nodes = (
(832,2368,l),
(671,1874,o),
(368,1414,o),
(7,1137,c),
(113,1072,o),
(292,931,o),
(368,856,c),
(721,1176,o),
(1051,1699,o),
(1259,2254,c)
);
},
{
closed = 1;
nodes = (
(1808,1755,l),
(1586,817,o),
(1055,355,o),
(52,147,c),
(141,58,o),
(291,-128,o),
(342,-231,c),
(1366,37,o),
(1966,588,o),
(2258,1655,c)
);
},
{
closed = 1;
nodes = (
(503,1468,l),
(856,595,o),
(1406,23,o),
(2398,-226,c),
(2462,-112,o),
(2581,77,o),
(2676,171,c),
(1742,365,o),
(1161,879,o),
(895,1597,c)
);
}
);
width = 2716;
},
{
layerId = "B1F27B51-9973-4381-9301-4FE46FE1CA59";
shapes = (
{
closed = 1;
nodes = (
(743,1738,l),
(743,1675,l),
(2526,1675,l),
(2526,1738,l)
);
},
{
closed = 1;
nodes = (
(1002,2293,l),
(797,1780,o),
(481,1295,o),
(111,981,c),
(128,971,o),
(159,946,o),
(170,935,c),
(528,1265,o),
(845,1742,o),
(1060,2277,c)
);
},
{
closed = 1;
nodes = (
(2045,1712,l),
(1734,716,o),
(1159,177,o),
(141,-119,c),
(156,-134,o),
(173,-159,o),
(179,-173,c),
(1197,141,o),
(1779,670,o),
(2102,1691,c)
);
},
{
closed = 1;
nodes = (
(642,1581,l),
(957,684,o),
(1598,68,o),
(2546,-165,c),
(2557,-148,o),
(2573,-129,o),
(2588,-117,c),
(1638,108,o),
(1005,723,o),
(697,1597,c)
);
}
);
width = 2716;
}
);
note = cid19907;
unicode = (11929,25909);
}
{
color = 0;
glyphname = uni2E9B;
layers = (
{
layerId = "CD0E3B44-F66A-4791-B84C-A1128DC61275";
shapes = (
{
closed = 1;
nodes = (
(340,1243,l),
(340,1058,l),
(2568,1058,l),
(2568,1243,l)
);
},
{
closed = 1;
nodes = (
(1402,961,l),
(1402,131,ls),
(1402,-104,o),
(1477,-171,o),
(1753,-171,cs),
(1809,-171,o),
(2198,-171,o),
(2259,-171,cs),
(2520,-171,o),
(2581,-53,o),
(2610,400,c),
(2553,412,o),
(2465,447,o),
(2420,483,c),
(2404,85,o),
(2387,24,o),
(2246,24,cs),
(2161,24,o),
(1836,24,o),
(1770,24,cs),
(1632,24,o),
(1605,41,o),
(1605,133,cs),
(1605,961,l)
);
},
{
closed = 1;
nodes = (
(1250,2066,l),
(1237,1070,o),
(1238,301,o),
(102,-30,c),
(146,-68,o),
(199,-141,o),
(225,-193,c),
(1403,174,o),
(1432,1007,o),
(1448,2066,c)
);
},
{
closed = 1;
nodes = (
(413,1768,l),
(339,1480,o),
(224,1089,o),
(135,853,c),
(338,818,l),
(423,1054,o),
(540,1440,o),
(619,1741,c)
);
},
{
closed = 1;
nodes = (
(316,2127,l),
(316,1938,l),
(2414,1938,l),
(2414,2127,l)
);
}
);
width = 2716;
},
{
layerId = "5C20EF92-B63D-42A8-8878-93C2863E0093";
shapes = (
{
closed = 1;
nodes = (
(394,1328,l),
(394,957,l),
(2600,957,l),
(2600,1328,l)
);
},
{
closed = 1;
nodes = (
(1378,893,l),
(1378,274,ls),
(1378,-90,o),
(1472,-221,o),
(1852,-221,cs),
(1923,-221,o),
(2108,-221,o),
(2183,-221,cs),
(2497,-221,o),
(2603,-84,o),
(2650,404,c),
(2539,429,o),
(2353,500,o),
(2273,568,c),
(2250,220,o),
(2244,176,o),
(2148,176,cs),
(2097,176,o),
(1957,176,o),
(1910,176,cs),
(1816,176,o),
(1801,183,o),
(1801,286,cs),
(1801,893,l)
);
},
{
closed = 1;
nodes = (
(1164,2087,l),
(1151,1146,o),
(1188,448,o),
(57,105,c),
(151,27,o),
(251,-122,o),
(305,-233,c),
(1538,181,o),
(1556,1031,o),
(1572,2087,c)
);
},
{
closed = 1;
nodes = (
(336,1727,l),
(271,1427,o),
(171,1048,o),
(82,805,c),
(497,738,l),
(581,983,o),
(683,1355,o),
(762,1679,c)
);
},
{
closed = 1;
nodes = (
(285,2190,l),
(285,1813,l),
(2450,1813,l),
(2450,2190,l)
);
}
);
width = 2716;
},
{
layerId = "B1F27B51-9973-4381-9301-4FE46FE1CA59";
shapes = (
{
closed = 1;
nodes = (
(305,1188,l),
(305,1124,l),
(2546,1124,l),
(2546,1188,l)
);
},
{
closed = 1;
nodes = (
(1417,1005,l),
(1417,38,ls),
(1417,-112,o),
(1479,-139,o),
(1688,-139,cs),
(1736,-139,o),
(2256,-139,o),
(2309,-139,cs),
(2535,-139,o),
(2567,-32,o),
(2585,397,c),
(2561,402,o),
(2537,411,o),
(2515,429,c),
(2502,-2,o),
(2479,-74,o),
(2311,-74,cs),
(2201,-74,o),
(1758,-74,o),
(1680,-74,cs),
(1513,-74,o),
(1478,-51,o),
(1478,34,cs),
(1478,1005,l)
);
},
{
closed = 1;
nodes = (
(1304,2052,l),
(1291,1020,o),
(1269,206,o),
(131,-117,c),
(143,-129,o),
(164,-153,o),
(173,-167,c),
(1316,168,o),
(1350,992,o),
(1366,2052,c)
);
},
{
closed = 1;
nodes = (
(463,1793,l),
(383,1514,o),
(260,1114,o),
(171,883,c),
(236,870,l),
(321,1100,o),
(447,1495,o),
(526,1781,c)
);
},
{
closed = 1;
nodes = (
(337,2086,l),
(337,2020,l),
(2392,2020,l),
(2392,2086,l)
);
}
);
width = 2716;
}
);
note = cid20209;
unicode = (11931,26081);
}
{
color = 0;
glyphname = uni2ED1;
layers = (
{
layerId = "CD0E3B44-F66A-4791-B84C-A1128DC61275";
shapes = (
{
closed = 1;
nodes = (
(144,1005,l),
(144,830,l),
(2573,830,l),
(2573,1005,l)
);
},
{
closed = 1;
nodes = (
(731,1798,l),
(731,1641,l),
(2224,1641,l),
(2224,1798,l)
);
},
{
closed = 1;
nodes = (
(731,1407,l),
(731,1247,l),
(2224,1247,l),
(2224,1407,l)
);
},
{
closed = 1;
nodes = (
(323,-168,l),
(652,-111,o),
(1119,-32,o),
(1555,47,c),
(1548,223,l),
(1080,144,o),
(588,58,o),
(276,13,c)
);
},
{
closed = 1;
nodes = (
(1185,911,l),
(1404,331,o),
(1837,-39,o),
(2491,-193,c),
(2520,-139,o),
(2573,-61,o),
(2616,-18,c),
(1985,103,o),
(1555,446,o),
(1362,958,c)
);
},
{
closed = 1;
nodes = (
(2288,804,l),
(2123,669,o),
(1832,493,o),
(1622,388,c),
(1755,285,l),
(1968,387,o),
(2244,545,o),
(2448,695,c)
);
},
{
closed = 1;
nodes = (
(624,2200,l),
(624,931,l),
(825,931,l),
(825,2032,l),
(2308,2032,l),
(2308,2200,l)
);
},
{
closed = 1;
nodes = (
(624,950,l),
(624,-7,l),
(825,16,l),
(825,950,l)
);
}
);
width = 2716;
},
{
layerId = "5C20EF92-B63D-42A8-8878-93C2863E0093";
shapes = (
{
closed = 1;
nodes = (
(117,1078,l),
(117,733,l),
(2599,733,l),
(2599,1078,l)
);
},
{
closed = 1;
nodes = (
(776,1852,l),
(776,1556,l),
(2233,1556,l),
(2233,1852,l)
);
},
{
closed = 1;
nodes = (
(776,1468,l),
(776,1168,l),
(2233,1168,l),
(2233,1468,l)
);
},
{
closed = 1;
nodes = (
(316,-218,l),
(652,-168,o),
(1092,-109,o),
(1503,-47,c),
(1486,310,l),
(1040,247,o),
(557,179,o),
(231,147,c)
);
},
{
closed = 1;
nodes = (
(1168,892,l),
(1386,291,o),
(1735,-70,o),
(2401,-233,c),
(2458,-126,o),
(2569,42,o),
(2656,130,c),
(2048,238,o),
(1698,525,o),
(1532,979,c)
);
},
{
closed = 1;
nodes = (
(2216,804,l),
(2078,673,o),
(1846,515,o),
(1667,418,c),
(1930,217,l),
(2106,299,o),
(2343,436,o),
(2538,575,c)
);
},
{
closed = 1;
nodes = (
(556,2268,l),
(556,931,l),
(968,931,l),
(968,1942,l),
(2301,1942,l),
(2301,2268,l)
);
},
{
closed = 1;
nodes = (
(556,978,l),
(556,50,l),
(968,92,l),
(968,978,l)
);
}
);
width = 2716;
},
{
layerId = "B1F27B51-9973-4381-9301-4FE46FE1CA59";
shapes = (
{
closed = 1;
nodes = (
(162,958,l),
(162,893,l),
(2556,893,l),
(2556,958,l)
);
},
{
closed = 1;
nodes = (
(702,1763,l),
(702,1695,l),
(2217,1695,l),
(2217,1763,l)
);
},
{
closed = 1;
nodes = (
(702,1367,l),
(702,1300,l),
(2217,1300,l),
(2217,1367,l)
);
},
{
closed = 1;
nodes = (
(329,-137,l),
(652,-74,o),
(1137,18,o),
(1590,108,c),
(1587,167,l),
(1105,76,o),
(608,-19,o),
(305,-72,c)
);
},
{
closed = 1;
nodes = (
(1195,923,l),
(1417,357,o),
(1903,-18,o),
(2549,-167,c),
(2559,-147,o),
(2576,-127,o),
(2590,-115,c),
(1944,16,o),
(1463,393,o),
(1252,943,c)
);
},
{
closed = 1;
nodes = (
(2335,804,l),
(2152,666,o),
(1823,479,o),
(1593,367,c),
(1643,329,l),
(1879,442,o),
(2180,614,o),
(2390,773,c)
);
},
{
closed = 1;
nodes = (
(668,2156,l),
(668,931,l),
(733,931,l),
(733,2090,l),
(2314,2090,l),
(2314,2156,l)
);
},
{
closed = 1;
nodes = (
(668,932,l),
(668,-45,l),
(733,-33,l),
(733,932,l)
);
}
);
width = 2716;
}
);
note = cid42830;
unicode = (11985,12199,38263);
}
{
color = 0;
glyphname = uni2EDD;
layers = (
{
layerId = "CD0E3B44-F66A-4791-B84C-A1128DC61275";
shapes = (
{
closed = 1;
nodes = (
(1611,1830,o),
(2093,1504,o),
(2503,1321,c),
(2535,1375,o),
(2582,1446,o),
(2626,1496,c),
(2205,1655,o),
(1731,1970,o),
(1433,2312,c),
(1238,2312,l),
(1016,2008,o),
(563,1663,o),
(99,1463,c),
(140,1421,o),
(188,1350,o),
(212,1306,c),
(667,1514,o),
(1116,1848,o),
(1346,2137,c)
);
},
{
closed = 1;
nodes = (
(700,1089,l),
(700,949,l),
(2017,949,l),
(2017,1089,l)
);
},
{
closed = 1;
nodes = (
(304,-164,l),
(616,-128,o),
(1065,-79,o),
(1496,-32,c),
(1493,140,l),
(1041,93,o),
(574,46,o),
(275,22,c)
);
},
{
closed = 1;
nodes = (
(1230,594,l),
(1454,163,o),
(1897,-90,o),
(2470,-188,c),
(2495,-137,o),
(2549,-61,o),
(2591,-18,c),
(2029,58,o),
(1596,276,o),
(1397,643,c)
);
},
{
closed = 1;
nodes = (
(2317,686,l),
(2138,555,o),
(1826,382,o),
(1597,283,c),
(1723,184,l),
(1956,283,o),
(2251,434,o),
(2468,581,c)
);
},
{
closed = 1;
nodes = (
(703,1453,l),
(703,1301,l),
(1940,1301,l),
(1940,719,l),
(703,719,l),
(703,569,l),
(2135,569,l),
(2135,1453,l)
);
},
{
closed = 1;
nodes = (
(584,1453,l),
(584,6,l),
(776,27,l),
(776,1453,l)
);
},
{
closed = 1;
nodes = (
(927,1750,l),
(927,1607,l),
(1789,1607,l),
(1789,1750,l)
);
}
);
width = 2716;
},
{
layerId = "5C20EF92-B63D-42A8-8878-93C2863E0093";
shapes = (
{
closed = 1;
nodes = (
(1583,1754,o),
(2043,1464,o),
(2427,1304,c),
(2495,1420,o),
(2582,1559,o),
(2676,1663,c),
(2253,1780,o),
(1844,2023,o),
(1531,2362,c),
(1126,2362,l),
(913,2098,o),
(487,1787,o),
(46,1628,c),
(123,1551,o),
(224,1400,o),
(271,1306,c),
(693,1474,o),
(1116,1755,o),
(1346,2017,c)
);
},
{
closed = 1;
nodes = (
(772,1096,l),
(772,851,l),
(1910,851,l),
(1910,1096,l)
);
},
{
closed = 1;
nodes = (
(311,-206,l),
(623,-173,o),
(1042,-133,o),
(1434,-96,c),
(1427,249,l),
(1010,214,o),
(555,177,o),
(256,162,c)
);
},
{
closed = 1;
nodes = (
(1166,508,l),
(1417,88,o),
(1804,-142,o),
(2398,-228,c),
(2447,-123,o),
(2554,32,o),
(2636,117,c),
(2082,167,o),
(1694,318,o),
(1499,603,c)
);
},
{
closed = 1;
nodes = (
(2234,667,l),
(2089,534,o),
(1845,360,o),
(1656,265,c),
(1893,75,l),
(2080,163,o),
(2331,310,o),
(2529,456,c)
);
},
{
closed = 1;
nodes = (
(774,1467,l),
(774,1189,l),
(1778,1189,l),
(1778,751,l),
(774,751,l),
(774,477,l),
(2180,477,l),
(2180,1467,l)
);
},
{
closed = 1;
nodes = (
(522,1467,l),
(522,74,l),
(916,117,l),
(916,1467,l)
);
},
{
closed = 1;
nodes = (
(944,1803,l),
(944,1550,l),
(1736,1550,l),
(1736,1803,l)
);
}
);
width = 2716;
},
{
layerId = "B1F27B51-9973-4381-9301-4FE46FE1CA59";
shapes = (
{
closed = 1;
nodes = (
(1628,1880,o),
(2124,1529,o),
(2553,1332,c),
(2560,1346,o),
(2582,1373,o),
(2594,1388,c),
(2174,1573,o),
(1658,1934,o),
(1368,2280,c),
(1310,2280,l),
(1084,1950,o),
(612,1581,o),
(135,1356,c),
(150,1337,o),
(166,1318,o),
(174,1306,c),
(650,1540,o),
(1116,1908,o),
(1346,2215,c)
);
},
{
closed = 1;
nodes = (
(654,1083,l),
(654,1014,l),
(2085,1014,l),
(2085,1083,l)
);
},
{
closed = 1;
nodes = (
(298,-137,l),
(610,-99,o),
(1080,-44,o),
(1536,8,c),
(1537,71,l),
(1061,15,o),
(586,-37,o),
(287,-68,c)
);
},
{
closed = 1;
nodes = (
(1270,648,l),
(1478,213,o),
(1957,-55,o),
(2517,-163,c),
(2526,-144,o),
(2546,-121,o),
(2562,-106,c),
(1993,-11,o),
(1531,249,o),
(1330,669,c)
);
},
{
closed = 1;
nodes = (
(2369,698,l),
(2170,569,o),
(1814,396,o),
(1559,296,c),
(1613,253,l),
(1874,360,o),
(2198,516,o),
(2428,662,c)
);
},
{
closed = 1;
nodes = (
(657,1444,l),
(657,1373,l),
(2044,1373,l),
(2044,698,l),
(657,698,l),
(657,629,l),
(2106,629,l),
(2106,1444,l)
);
},
{
closed = 1;
nodes = (
(623,1444,l),
(623,-38,l),
(686,-32,l),
(686,1444,l)
);
},
{
closed = 1;
nodes = (
(917,1714,l),
(917,1645,l),
(1823,1645,l),
(1823,1714,l)
);
}
);
width = 2716;
}
);
note = cid01383;
unicode = (11997,39135);
}
{
color = 0;
glyphname = uni2EED;
layers = (
{
layerId = "CD0E3B44-F66A-4791-B84C-A1128DC61275";
shapes = (
{
closed = 1;
nodes = (
(1376,2089,l),
(1376,1926,l),
(2334,1926,l),
(2334,2089,l)
);
},
{
closed = 1;
nodes = (
(1264,2309,l),
(1264,1593,l),
(1460,1593,l),
(1460,2309,l)
);
},
{
closed = 1;
nodes = (
(565,2171,l),
(565,1603,l),
(753,1603,l),
(753,2171,l)
);
},
{
closed = 1;
nodes = (
(435,111,l),
(435,-62,l),
(2297,-62,l),
(2297,111,l)
);
},
{
closed = 1;
nodes = (
(144,1684,l),
(144,1510,l),
(2580,1510,l),
(2580,1684,l)
);
},
{
closed = 1;
nodes = (
(616,950,l),
(616,795,l),
(2123,795,l),
(2123,950,l)
);
},
{
closed = 1;
nodes = (
(315,1408,l),
(315,-188,l),
(503,-188,l),
(503,1408,l)
);
},
{
closed = 1;
nodes = (
(2226,1408,l),
(2226,-188,l),
(2413,-188,l),
(2413,1408,l)
);
},
{
closed = 1;
nodes = (
(1264,1419,l),
(1264,182,l),
(1439,182,l),
(1439,1419,l)
);
},
{
closed = 1;
nodes = (
(728,1304,l),
(811,1203,o),
(899,1064,o),
(937,972,c),
(1079,1040,l),
(1040,1128,o),
(949,1262,o),
(863,1360,c)
);
},
{
closed = 1;
nodes = (
(1841,1376,l),
(1793,1275,o),
(1705,1124,o),
(1640,1033,c),
(1767,979,l),
(1838,1066,o),
(1921,1198,o),
(1997,1321,c)
);
},
{
closed = 1;
nodes = (
(1247,879,l),
(1103,668,o),
(818,456,o),
(563,358,c),
(600,328,o),
(653,269,o),
(679,227,c),
(932,344,o),
(1220,587,o),
(1373,829,c)
);
},
{
closed = 1;
nodes = (
(1335,821,l),
(1491,592,o),
(1778,353,o),
(2030,240,c),
(2055,280,o),
(2108,340,o),
(2144,372,c),
(1896,464,o),
(1611,673,o),
(1466,874,c)
);
}
);
width = 2716;
},
{
layerId = "5C20EF92-B63D-42A8-8878-93C2863E0093";
shapes = (
{
closed = 1;
nodes = (
(1381,2205,l),
(1381,1894,l),
(2358,1894,l),
(2358,2205,l)
);
},
{
closed = 1;
nodes = (
(1163,2354,l),
(1163,1619,l),
(1558,1619,l),
(1558,2354,l)
);
},
{
closed = 1;
nodes = (
(483,2220,l),
(483,1644,l),
(864,1644,l),
(864,2220,l)
);
},
{
closed = 1;
nodes = (
(485,209,l),
(485,-128,l),
(2226,-128,l),
(2226,209,l)
);
},
{
closed = 1;
nodes = (
(113,1796,l),
(113,1451,l),
(2616,1451,l),
(2616,1796,l)
);
},
{
closed = 1;
nodes = (
(678,1040,l),
(678,755,l),
(2052,755,l),
(2052,1040,l)
);
},
{
closed = 1;
nodes = (
(248,1389,l),
(248,-233,l),
(630,-233,l),
(630,1389,l)
);
},
{
closed = 1;
nodes = (
(2106,1389,l),
(2106,-233,l),
(2484,-233,l),
(2484,1389,l)
);
},
{
closed = 1;
nodes = (
(1178,1393,l),
(1178,258,l),
(1519,258,l),
(1519,1393,l)
);
},
{
closed = 1;
nodes = (
(705,1281,l),
(766,1195,o),
(833,1072,o),
(857,990,c),
(1129,1107,l),
(1099,1182,o),
(1034,1293,o),
(966,1378,c)
);
},
{
closed = 1;
nodes = (
(1711,1389,l),
(1680,1306,o),
(1626,1183,o),
(1581,1105,c),
(1829,1019,l),
(1882,1083,o),
(1943,1189,o),
(2018,1300,c)
);
},
{
closed = 1;
nodes = (
(1157,900,l),
(1041,744,o),
(818,589,o),
(598,514,c),
(664,459,o),
(769,338,o),
(818,258,c),
(1043,371,o),
(1265,592,o),
(1389,815,c)
);
},
{
closed = 1;
nodes = (
(1299,816,l),
(1432,599,o),
(1653,385,o),
(1878,276,c),
(1925,351,o),
(2025,470,o),
(2094,530,c),
(1882,604,o),
(1664,758,o),
(1546,906,c)
);
}
);
width = 2716;
},
{
layerId = "B1F27B51-9973-4381-9301-4FE46FE1CA59";
shapes = (
{
closed = 1;
nodes = (
(1373,2014,l),
(1373,1948,l),
(2319,1948,l),
(2319,2014,l)
);
},
{
closed = 1;
nodes = (
(1330,2280,l),
(1330,1576,l),
(1395,1576,l),
(1395,2280,l)
);
},
{
closed = 1;
nodes = (
(618,2139,l),
(618,1578,l),
(681,1578,l),
(681,2139,l)
);
},
{
closed = 1;
nodes = (
(403,46,l),
(403,-18,l),
(2343,-18,l),
(2343,46,l)
);
},
{
closed = 1;
nodes = (
(166,1612,l),
(166,1547,l),
(2558,1547,l),
(2558,1612,l)
);
},
{
closed = 1;
nodes = (
(577,892,l),
(577,821,l),
(2169,821,l),
(2169,892,l)
);
},
{
closed = 1;
nodes = (
(358,1420,l),
(358,-159,l),
(421,-159,l),
(421,1420,l)
);
},
{
closed = 1;
nodes = (
(2303,1420,l),
(2303,-159,l),
(2367,-159,l),
(2367,1420,l)
);
},
{
closed = 1;
nodes = (
(1318,1436,l),
(1318,133,l),
(1387,133,l),
(1387,1436,l)
);
},
{
closed = 1;
nodes = (
(743,1319,l),
(840,1210,o),
(942,1059,o),
(989,959,c),
(1047,997,l),
(1002,1093,o),
(894,1242,o),
(795,1348,c)
);
},
{
closed = 1;
nodes = (
(1925,1368,l),
(1867,1255,o),
(1758,1087,o),
(1677,986,c),
(1728,954,l),
(1810,1056,o),
(1907,1204,o),
(1983,1335,c)
);
},
{
closed = 1;
nodes = (
(1305,865,l),
(1142,618,o),
(818,371,o),
(540,257,c),
(560,245,o),
(578,225,o),
(589,207,c),
(860,328,o),
(1191,584,o),
(1362,838,c)
);
},
{
closed = 1;
nodes = (
(1358,823,l),
(1528,586,o),
(1859,331,o),
(2127,218,c),
(2138,234,o),
(2160,256,o),
(2176,269,c),
(1904,374,o),
(1575,618,o),
(1414,853,c)
);
}
);
width = 2716;
}
);
note = cid22638;
unicode = (12013,27503);
}
{
color = 0;
glyphname = uni2F03;
layers = (
{
layerId = "CD0E3B44-F66A-4791-B84C-A1128DC61275";
shapes = (
{
closed = 1;
nodes = (
(1382,2242,l),
(1382,1396,ls),
(1382,876,o),
(1312,358,o),
(601,-10,c),
(653,-44,o),
(730,-117,o),
(769,-162,c),
(1511,238,o),
(1593,824,o),
(1593,1394,cs),
(1593,2242,l)
);
}
);
width = 2716;
},
{
layerId = "5C20EF92-B63D-42A8-8878-93C2863E0093";
shapes = (
{
closed = 1;
nodes = (
(1238,2268,l),
(1238,1455,ls),
(1238,969,o),
(1177,455,o),
(511,115,c),
(622,46,o),
(794,-103,o),
(876,-194,c),
(1606,211,o),
(1678,874,o),
(1678,1448,cs),
(1678,2268,l)
);
}
);
width = 2716;
},
{
layerId = "B1F27B51-9973-4381-9301-4FE46FE1CA59";
shapes = (
{
closed = 1;
nodes = (
(1475,2225,l),
(1475,1359,ls),
(1475,816,o),
(1399,295,o),
(659,-92,c),
(673,-102,o),
(690,-125,o),
(700,-140,c),
(1450,254,o),
(1538,793,o),
(1538,1359,cs),
(1538,2225,l)
);
}
);
width = 2716;
}
);
note = cid09567;
unicode = (12035,20031);
}
{
color = 0;
glyphname = uni2F06;
layers = (
{
layerId = "CD0E3B44-F66A-4791-B84C-A1128DC61275";
shapes = (
{
closed = 1;
nodes = (
(383,1920,l),
(383,1709,l),
(2334,1709,l),
(2334,1920,l)
);
},
{
closed = 1;
nodes = (
(155,308,l),
(155,89,l),
(2565,89,l),
(2565,308,l)
);
}
);
width = 2716;
},
{
layerId = "5C20EF92-B63D-42A8-8878-93C2863E0093";
shapes = (
{
closed = 1;
nodes = (
(365,1989,l),
(365,1544,l),
(2353,1544,l),
(2353,1989,l)
);
},
{
closed = 1;
nodes = (
(146,433,l),
(146,-27,l),
(2579,-27,l),
(2579,433,l)
);
}
);
width = 2716;
},
{
layerId = "B1F27B51-9973-4381-9301-4FE46FE1CA59";
shapes = (
{
closed = 1;
nodes = (
(396,1876,l),
(396,1816,l),
(2322,1816,l),
(2322,1876,l)
);
},
{
closed = 1;
nodes = (
(161,226,l),
(161,164,l),
(2557,164,l),
(2557,226,l)
);
}
);
width = 2716;
}
);
note = cid09669;
unicode = (12038,20108);
}
{
color = 0;
glyphname = uni2F0C;
layers = (
{
layerId = "CD0E3B44-F66A-4791-B84C-A1128DC61275";
shapes = (
{
closed = 1;
nodes = (
(288,2124,l),
(288,-188,l),
(483,-188,l),
(483,1930,l),
(2351,1930,l),
(2351,2124,l)
);
},
{
closed = 1;
nodes = (
(2267,2124,l),
(2267,76,ls),
(2267,24,o),
(2248,8,o),
(2194,5,cs),
(2142,2,o),
(1962,2,o),
(1769,8,c),
(1801,-45,o),
(1830,-134,o),
(1842,-188,c),
(2100,-188,o),
(2251,-185,o),
(2342,-152,cs),
(2430,-117,o),
(2463,-54,o),
(2463,73,cs),
(2463,2124,l)
);
}
);
width = 2716;
},
{
layerId = "5C20EF92-B63D-42A8-8878-93C2863E0093";
shapes = (
{
closed = 1;
nodes = (
(229,2201,l),
(229,-228,l),
(629,-228,l),
(629,1808,l),
(2285,1808,l),
(2285,2201,l)
);
},
{
closed = 1;
nodes = (
(2123,2201,l),
(2123,224,ls),
(2123,176,o),
(2109,162,o),
(2059,159,cs),
(2007,161,o),
(1846,161,o),
(1719,166,c),
(1778,69,o),
(1839,-121,o),
(1859,-233,c),
(2087,-233,o),
(2246,-226,o),
(2368,-160,cs),
(2489,-89,o),
(2527,17,o),
(2527,213,cs),
(2527,2201,l)
);
}
);
width = 2716;
},
{
layerId = "B1F27B51-9973-4381-9301-4FE46FE1CA59";
shapes = (
{
closed = 1;
nodes = (
(325,2073,l),
(325,-163,l),
(387,-163,l),
(387,2009,l),
(2394,2009,l),
(2394,2073,l)
);
},
{
closed = 1;
nodes = (
(2360,2073,l),
(2360,-20,ls),
(2360,-74,o),
(2338,-91,o),
(2281,-93,cs),
(2229,-100,o),
(2037,-100,o),
(1801,-94,c),
(1816,-118,o),
(1823,-141,o),
(1832,-159,c),
(2108,-159,o),
(2254,-160,o),
(2325,-145,cs),
(2393,-135,o),
(2423,-100,o),
(2423,-17,cs),
(2423,2073,l)
);
}
);
width = 2716;
}
);
note = cid10943;
unicode = (12044,20866);
}
{
color = 0;
glyphname = uni2F12;
layers = (
{
layerId = "CD0E3B44-F66A-4791-B84C-A1128DC61275";
shapes = (
{
closed = 1;
nodes = (
(226,1715,l),
(226,1514,l),
(2335,1514,l),
(2335,1715,l)
);
},
{
closed = 1;
nodes = (
(2260,1715,l),
(2260,1674,ls),
(2203,587,o),
(2142,165,o),
(2039,66,cs),
(2006,31,o),
(1972,23,o),
(1913,23,cs),
(1846,23,o),
(1672,26,o),
(1483,43,c),
(1523,-15,o),
(1546,-101,o),
(1552,-158,c),
(1719,-166,o),
(1894,-172,o),
(1986,-165,cs),
(2091,-154,o),
(2153,-136,o),
(2216,-56,cs),
(2338,76,o),
(2393,484,o),
(2455,1610,cs),
(2458,1639,o),
(2461,1715,o),
(2461,1715,c)
);
},
{
closed = 1;
nodes = (
(1118,2304,l),
(1118,1840,ls),
(1118,1273,o),
(1054,500,o),
(145,-42,c),
(196,-77,o),
(265,-149,o),
(296,-196,c),
(1246,384,o),
(1321,1221,o),
(1321,1840,cs),
(1321,2304,l)
);
}
);
width = 2716;
},
{
layerId = "5C20EF92-B63D-42A8-8878-93C2863E0093";
shapes = (
{
closed = 1;
nodes = (
(194,1805,l),
(194,1393,l),
(2259,1393,l),
(2259,1805,l)
);
},
{
closed = 1;
nodes = (
(2095,1805,l),
(2095,1727,ls),
(2051,765,o),
(1999,335,o),
(1909,249,cs),
(1871,211,o),
(1837,198,o),
(1789,198,cs),
(1711,198,o),
(1558,201,o),
(1388,212,c),
(1469,99,o),
(1524,-82,o),
(1535,-198,c),
(1696,-201,o),
(1863,-203,o),
(1967,-188,cs),
(2100,-163,o),
(2184,-131,o),
(2270,-11,cs),
(2395,135,o),
(2445,556,o),
(2496,1618,cs),
(2503,1670,o),
(2506,1805,o),
(2506,1805,c)
);
},
{
closed = 1;
nodes = (
(996,2344,l),
(996,1738,ls),
(996,1230,o),
(915,492,o),
(100,80,c),
(205,9,o),
(351,-149,o),
(417,-245,c),
(1322,249,o),
(1416,1123,o),
(1416,1738,cs),
(1416,2344,l)
);
}
);
width = 2716;
},
{
layerId = "B1F27B51-9973-4381-9301-4FE46FE1CA59";
shapes = (
{
closed = 1;
nodes = (
(248,1657,l),
(248,1594,l),
(2385,1594,l),
(2385,1657,l)
);
},
{
closed = 1;
nodes = (
(2367,1657,l),
(2367,1638,ls),
(2301,473,o),
(2235,55,o),
(2123,-52,cs),
(2093,-84,o),
(2059,-90,o),
(1995,-90,cs),
(1933,-90,o),
(1745,-87,o),
(1544,-68,c),
(1558,-88,o),
(1560,-113,o),
(1562,-133,c),
(1734,-143,o),
(1914,-152,o),
(1998,-150,cs),
(2084,-148,o),
(2131,-138,o),
(2181,-85,cs),
(2301,39,o),
(2358,437,o),
(2430,1604,cs),
(2429,1618,o),
(2432,1657,o),
(2432,1657,c)
);
},
{
closed = 1;
nodes = (
(1197,2278,l),
(1197,1906,ls),
(1197,1300,o),
(1144,507,o),
(174,-122,c),
(189,-131,o),
(211,-149,o),
(218,-164,c),
(1196,471,o),
(1260,1284,o),
(1260,1906,cs),
(1260,2278,l)
);
}
);
width = 2716;
}
);
note = cid11377;
unicode = (12050,21147,63882);
}
{
color = 0;
glyphname = uni2F1C;
layers = (
{
layerId = "CD0E3B44-F66A-4791-B84C-A1128DC61275";
shapes = (
{
closed = 1;
nodes = (
(533,1751,l),
(865,773,o),
(1468,87,o),
(2478,-188,c),
(2509,-134,o),
(2570,-50,o),
(2616,-6,c),
(1628,239,o),
(1018,908,o),
(723,1806,c)
);
},
{
closed = 1;
nodes = (
(256,2038,l),
(256,1843,l),
(2172,1843,l),
(2172,2038,l)
);
},
{
closed = 1;
nodes = (
(2106,2038,l),
(2106,1996,l),
(1816,898,o),
(1024,274,o),
(99,-12,c),
(143,-50,o),
(206,-143,o),
(230,-196,c),
(1170,117,o),
(1994,788,o),
(2318,1980,c),
(2182,2049,l),
(2144,2038,l)
);
}
);
width = 2716;
},
{
layerId = "5C20EF92-B63D-42A8-8878-93C2863E0093";
shapes = (
{
closed = 1;
nodes = (
(503,1637,l),
(830,672,o),
(1352,46,o),
(2369,-228,c),
(2433,-117,o),
(2557,61,o),
(2651,150,c),
(1695,374,o),
(1153,948,o),
(907,1747,c)
);
},
{
closed = 1;
nodes = (
(242,2146,l),
(242,1748,l),
(2093,1748,l),
(2093,2146,l)
);
},
{
closed = 1;
nodes = (
(1949,2146,l),
(1949,2065,l),
(1709,988,o),
(1015,412,o),
(59,145,c),
(146,66,o),
(273,-134,o),
(320,-241,c),
(1313,72,o),
(2082,783,o),
(2385,2030,c),
(2096,2166,l),
(2024,2146,l)
);
}
);
width = 2716;
},
{
layerId = "B1F27B51-9973-4381-9301-4FE46FE1CA59";
shapes = (
{
closed = 1;
nodes = (
(554,1824,l),
(888,839,o),
(1543,112,o),
(2547,-163,c),
(2558,-144,o),
(2577,-122,o),
(2593,-107,c),
(1585,152,o),
(931,883,o),
(604,1843,c)
);
},
{
closed = 1;
nodes = (
(264,1968,l),
(264,1903,l),
(2225,1903,l),
(2225,1968,l)
);
},
{
closed = 1;
nodes = (
(2206,1968,l),
(2206,1952,l),
(1884,840,o),
(1030,185,o),
(125,-112,c),
(142,-125,o),
(163,-150,o),
(172,-167,c),
(1077,146,o),
(1937,791,o),
(2275,1948,c),
(2236,1973,l),
(2222,1968,l)
);
}
);
width = 2716;
}
);
note = cid11857;
unicode = (12060,21448);
}
{
color = 0;
glyphname = uni2F1F;
layers = (
{
layerId = "CD0E3B44-F66A-4791-B84C-A1128DC61275";
shapes = (
{
closed = 1;
nodes = (
(316,1433,l),
(316,1243,l),
(2402,1243,l),
(2402,1433,l)
);
},
{
closed = 1;
nodes = (
(143,128,l),
(143,-62,l),
(2575,-62,l),
(2575,128,l)
);
},
{
closed = 1;
nodes = (
(1248,2301,l),
(1248,6,l),
(1456,6,l),
(1456,2301,l)
);
}
);
width = 2716;
},
{
layerId = "5C20EF92-B63D-42A8-8878-93C2863E0093";
shapes = (
{
closed = 1;
nodes = (
(294,1528,l),
(294,1141,l),
(2425,1141,l),
(2425,1528,l)
);
},
{
closed = 1;
nodes = (
(112,271,l),
(112,-115,l),
(2606,-115,l),
(2606,271,l)
);
},
{
closed = 1;
nodes = (
(1134,2351,l),
(1134,1,l),
(1568,1,l),
(1568,2351,l)
);
}
);
width = 2716;
},
{
layerId = "B1F27B51-9973-4381-9301-4FE46FE1CA59";
shapes = (
{
closed = 1;
nodes = (
(330,1372,l),
(330,1309,l),
(2387,1309,l),
(2387,1372,l)
);
},
{
closed = 1;
nodes = (
(163,35,l),
(163,-28,l),
(2555,-28,l),
(2555,35,l)
);
},
{
closed = 1;
nodes = (
(1321,2269,l),
(1321,9,l),
(1384,9,l),
(1384,2269,l)
);
}
);
width = 2716;
}
);
note = cid13243;
unicode = (12063,22303);
}
{
color = 0;
glyphname = uni2F32;
layers = (
{
layerId = "CD0E3B44-F66A-4791-B84C-A1128DC61275";
shapes = (
{
closed = 1;
nodes = (
(286,2115,l),
(286,1915,l),
(2445,1915,l),
(2445,2115,l)
);
},
{
closed = 1;
nodes = (
(147,1206,l),
(147,1003,l),
(2571,1003,l),
(2571,1206,l)
);
},
{
closed = 1;
nodes = (
(1240,2051,l),
(1240,-182,l),
(1456,-182,l),
(1456,2051,l)
);
}
);
width = 2716;
},
{
layerId = "5C20EF92-B63D-42A8-8878-93C2863E0093";
shapes = (
{
closed = 1;
nodes = (
(263,2195,l),
(263,1784,l),
(2467,1784,l),
(2467,2195,l)
);
},
{
closed = 1;
nodes = (
(124,1265,l),
(124,847,l),
(2594,847,l),
(2594,1265,l)
);
},
{
closed = 1;
nodes = (
(1120,2060,l),
(1120,-227,l),
(1572,-227,l),
(1572,2060,l)
);
}
);
width = 2716;
},
{
layerId = "B1F27B51-9973-4381-9301-4FE46FE1CA59";
shapes = (
{
closed = 1;
nodes = (
(301,2063,l),
(301,1998,l),
(2431,1998,l),
(2431,2063,l)
);
},
{
closed = 1;
nodes = (
(162,1168,l),
(162,1104,l),
(2556,1104,l),
(2556,1168,l)
);
},
{
closed = 1;
nodes = (
(1318,2044,l),
(1318,-153,l),
(1381,-153,l),
(1381,2044,l)
);
}
);
width = 2716;
}
);
note = cid16853;
unicode = (12082,24178);
}
{
color = 0;
glyphname = uni2F35;
layers = (
{
layerId = "CD0E3B44-F66A-4791-B84C-A1128DC61275";
shapes = (
{
closed = 1;
nodes = (
(208,2137,l),
(208,1951,l),
(982,1951,l),
(982,2137,l)
);
},
{
closed = 1;
nodes = (
(950,2137,l),
(950,2110,l),
(794,1880,o),
(475,1450,o),
(223,1130,c),
(405,1057,l),
(658,1381,o),
(964,1798,o),
(1158,2083,c),
(1015,2147,l),
(982,2137,l)
);
},
{
closed = 1;
nodes = (
(479,1384,l),
(447,1198,l),
(1121,1198,l),
(1121,1384,l)
);
},
{
closed = 1;
nodes = (
(1056,1384,l),
(1056,1345,l),
(927,635,o),
(563,192,o),
(86,-34,c),
(133,-65,o),
(208,-140,o),
(240,-183,c),
(723,67,o),
(1106,548,o),
(1257,1345,c),
(1129,1393,l),
(1095,1384,l)
);
},
{
closed = 1;
nodes = (
(298,885,l),
(588,47,o),
(1178,-105,o),
(1942,-105,cs),
(2545,-105,l),
(2558,-47,o),
(2595,47,o),
(2626,91,c),
(2492,89,o),
(2051,89,o),
(1949,89,cs),
(1275,89,o),
(702,212,o),
(459,954,c)
);
}
);
width = 2716;
},
{
layerId = "5C20EF92-B63D-42A8-8878-93C2863E0093";
shapes = (
{
closed = 1;
nodes = (
(155,2217,l),
(155,1850,l),
(893,1850,l),
(893,2217,l)
);
},
{
closed = 1;
nodes = (
(833,2217,l),
(833,2172,l),
(693,1920,o),
(396,1468,o),
(152,1122,c),
(526,981,l),
(772,1336,o),
(1043,1767,o),
(1246,2119,c),
(956,2233,l),
(893,2217,l)
);
},
{
closed = 1;
nodes = (
(533,1483,l),
(533,1108,l),
(1058,1108,l),
(1058,1483,l)
);
},
{
closed = 1;
nodes = (
(936,1483,l),
(936,1408,l),
(834,733,o),
(521,305,o),
(41,82,c),
(138,20,o),
(293,-131,o),
(362,-214,c),
(848,45,o),
(1204,569,o),
(1337,1404,c),
(1075,1496,l),
(1010,1483,l)
);
},
{
closed = 1;
nodes = (
(173,817,l),
(487,15,o),
(1048,-136,o),
(1811,-136,cs),
(2514,-136,l),
(2540,-20,o),
(2609,172,o),
(2666,261,c),
(2452,256,o),
(2002,256,o),
(1829,256,cs),
(1239,256,o),
(724,352,o),
(500,946,c)
);
}
);
width = 2716;
},
{
layerId = "B1F27B51-9973-4381-9301-4FE46FE1CA59";
shapes = (
{
closed = 1;
nodes = (
(244,2084,l),
(244,2018,l),
(1039,2018,l),
(1039,2084,l)
);
},
{
closed = 1;
nodes = (
(1025,2084,l),
(1025,2070,l),
(861,1855,o),
(528,1438,o),
(269,1137,c),
(327,1107,l),
(585,1410,o),
(911,1820,o),
(1101,2061,c),
(1053,2093,l),
(1039,2084,l)
);
},
{
closed = 1;
nodes = (
(443,1319,l),
(393,1257,l),
(1162,1257,l),
(1162,1319,l)
);
},
{
closed = 1;
nodes = (
(1133,1319,l),
(1133,1304,l),
(987,570,o),
(591,118,o),
(115,-109,c),
(130,-120,o),
(154,-147,o),
(160,-163,c),
(641,81,o),
(1043,534,o),
(1205,1307,c),
(1164,1325,l),
(1149,1319,l)
);
},
{
closed = 1;
nodes = (
(380,929,l),
(654,69,o),
(1262,-84,o),
(2025,-84,cs),
(2566,-84,l),
(2571,-63,o),
(2587,-34,o),
(2601,-19,c),
(2517,-18,o),
(2083,-18,o),
(2027,-18,cs),
(1298,-18,o),
(688,122,o),
(434,959,c)
);
}
);
width = 2716;
}
);
note = cid17114;
unicode = (12085,24308);
}
{
color = 0;
glyphname = uni2F3C;
layers = (
{
layerId = "CD0E3B44-F66A-4791-B84C-A1128DC61275";
shapes = (
{
closed = 1;
nodes = (
(829,1553,l),
(829,186,ls),
(829,-76,o),
(909,-149,o),
(1196,-149,cs),
(1256,-149,o),
(1667,-149,o),
(1732,-149,cs),
(2025,-149,o),
(2089,2,o),
(2119,515,c),
(2061,532,o),
(1980,568,o),
(1933,605,c),
(1912,133,o),
(1887,34,o),
(1722,34,cs),
(1628,34,o),
(1283,34,o),
(1210,34,cs),
(1060,34,o),
(1029,56,o),
(1029,183,cs),
(1029,1553,l)
);
},
{
closed = 1;
nodes = (
(851,2147,l),
(1178,2031,o),
(1576,1828,o),
(1785,1674,c),
(1913,1845,l),
(1698,1990,o),
(1300,2187,o),
(974,2298,c)
);
},
{
closed = 1;
nodes = (
(379,1332,l),
(338,979,o),
(250,581,o),
(67,341,c),
(243,237,l),
(437,496,o),
(525,929,o),
(565,1292,c)
);
},
{
closed = 1;
nodes = (
(1962,1334,l),
(2191,1027,o),
(2395,603,o),
(2459,317,c),
(2650,408,l),
(2586,696,o),
(2382,1110,o),
(2137,1420,c)
);
}
);
width = 2716;
},
{
layerId = "5C20EF92-B63D-42A8-8878-93C2863E0093";
shapes = (
{
closed = 1;
nodes = (
(797,1567,l),
(797,307,ls),
(797,-80,o),
(901,-208,o),
(1286,-208,cs),
(1359,-208,o),
(1595,-208,o),
(1674,-208,cs),
(2017,-208,o),
(2124,-43,o),
(2168,465,c),
(2056,496,o),
(1885,568,o),
(1798,636,c),
(1777,236,o),
(1757,156,o),
(1637,156,cs),
(1579,156,o),
(1396,156,o),
(1341,156,cs),
(1225,156,o),
(1212,169,o),
(1212,304,cs),
(1212,1567,l)
);
},
{
closed = 1;
nodes = (
(802,2036,l),
(1115,1906,o),
(1486,1689,o),
(1690,1509,c),
(1962,1858,l),
(1743,2021,o),
(1376,2232,o),
(1064,2348,c)
);
},
{
closed = 1;
nodes = (
(293,1385,l),
(252,1017,o),
(184,684,o),
(36,452,c),
(408,246,l),
(577,513,o),
(642,922,o),
(682,1306,c)
);
},
{
closed = 1;
nodes = (
(1842,1320,l),
(2048,1027,o),
(2228,613,o),
(2284,336,c),
(2686,533,l),
(2626,817,o),
(2436,1213,o),
(2208,1505,c)
);
}
);
width = 2716;
},
{
layerId = "B1F27B51-9973-4381-9301-4FE46FE1CA59";
shapes = (
{
closed = 1;
nodes = (
(850,1544,l),
(850,108,ls),
(850,-73,o),
(916,-111,o),
(1138,-111,cs),
(1189,-111,o),
(1714,-111,o),
(1769,-111,cs),
(2032,-111,o),
(2066,31,o),
(2087,547,c),
(2063,554,o),
(2041,568,o),
(2020,584,c),
(1999,65,o),
(1971,-46,o),
(1777,-46,cs),
(1660,-46,o),
(1209,-46,o),
(1127,-46,cs),
(953,-46,o),
(911,-17,o),
(911,105,cs),
(911,1544,l)
);
},
{
closed = 1;
nodes = (
(883,2219,l),
(1219,2113,o),
(1634,1918,o),
(1846,1781,c),
(1881,1838,l),
(1669,1969,o),
(1251,2158,o),
(916,2266,c)
);
},
{
closed = 1;
nodes = (
(433,1296,l),
(392,956,o),
(293,513,o),
(87,268,c),
(136,230,l),
(347,486,o),
(449,935,o),
(490,1284,c)
);
},
{
closed = 1;
nodes = (
(2040,1343,l),
(2284,1027,o),
(2503,597,o),
(2572,305,c),
(2628,327,l),
(2560,618,o),
(2347,1043,o),
(2091,1365,c)
);
}
);
width = 2716;
}
);
note = cid17487;
unicode = (12092,24515);
}
{
color = 0;
glyphname = uni2F3F;
layers = (
{
layerId = "CD0E3B44-F66A-4791-B84C-A1128DC61275";
shapes = (
{
closed = 1;
nodes = (
(2169,2306,l),
(1756,2175,o),
(963,2104,o),
(318,2072,c),
(336,2029,o),
(359,1951,o),
(365,1902,c),
(1021,1927,o),
(1826,2001,o),
(2313,2147,c)
);
},
{
closed = 1;
nodes = (
(319,1538,l),
(319,1350,l),
(2432,1350,l),
(2432,1538,l)
);
},
{
closed = 1;
nodes = (
(138,902,l),
(138,709,l),
(2586,709,l),
(2586,902,l)
);
},
{
closed = 1;
nodes = (
(1261,2022,l),
(1261,92,ls),
(1261,38,o),
(1238,19,o),
(1178,16,cs),
(1115,16,o),
(902,13,o),
(671,19,c),
(703,-33,o),
(740,-119,o),
(755,-174,c),
(1041,-177,o),
(1219,-174,o),
(1320,-139,cs),
(1419,-108,o),
(1462,-50,o),
(1462,92,cs),
(1462,2022,l)
);
}
);
width = 2716;
},
{
layerId = "5C20EF92-B63D-42A8-8878-93C2863E0093";
shapes = (
{
closed = 1;
nodes = (
(2103,2365,l),
(1636,2248,o),
(913,2180,o),
(256,2152,c),
(291,2069,o),
(340,1906,o),
(351,1807,c),
(1016,1826,o),
(1786,1889,o),
(2384,2036,c)
);
},
{
closed = 1;
nodes = (
(293,1588,l),
(293,1208,l),
(2455,1208,l),
(2455,1588,l)
);
},
{
closed = 1;
nodes = (
(102,961,l),
(102,570,l),
(2621,570,l),
(2621,961,l)
);
},
{
closed = 1;
nodes = (
(1160,1923,l),
(1160,225,ls),
(1160,176,o),
(1131,159,o),
(1069,154,cs),
(1001,159,o),
(772,156,o),
(581,162,c),
(639,61,o),
(718,-114,o),
(746,-227,c),
(1013,-230,o),
(1226,-224,o),
(1373,-156,cs),
(1518,-101,o),
(1570,-1,o),
(1570,223,cs),
(1570,1923,l)
);
}
);
width = 2716;
},
{
layerId = "B1F27B51-9973-4381-9301-4FE46FE1CA59";
shapes = (
{
closed = 1;
nodes = (
(2213,2268,l),
(1834,2128,o),
(995,2054,o),
(357,2020,c),
(365,2004,o),
(371,1980,o),
(373,1963,c),
(1024,1993,o),
(1852,2073,o),
(2267,2219,c)
);
},
{
closed = 1;
nodes = (
(336,1506,l),
(336,1442,l),
(2417,1442,l),
(2417,1506,l)
);
},
{
closed = 1;
nodes = (
(160,865,l),
(160,799,l),
(2563,799,l),
(2563,865,l)
);
},
{
closed = 1;
nodes = (
(1328,2086,l),
(1328,7,ls),
(1328,-51,o),
(1306,-71,o),
(1247,-73,cs),
(1188,-76,o),
(985,-78,o),
(729,-73,c),
(743,-94,o),
(754,-122,o),
(761,-138,c),
(1058,-141,o),
(1213,-142,o),
(1285,-129,cs),
(1355,-114,o),
(1392,-82,o),
(1392,9,cs),
(1392,2086,l)
);
}
);
width = 2716;
}
);
note = cid18630;
unicode = (12095,25163);
}
{
color = 0;
glyphname = uni2F40;
layers = (
{
layerId = "CD0E3B44-F66A-4791-B84C-A1128DC61275";
shapes = (
{
closed = 1;
nodes = (
(604,1021,l),
(939,341,o),
(1579,-52,o),
(2484,-193,c),
(2513,-137,o),
(2566,-53,o),
(2610,-6,c),
(1718,112,o),
(1080,479,o),
(783,1087,c)
);
},
{
closed = 1;
nodes = (
(335,1269,l),
(335,1079,l),
(2105,1079,l),
(2105,1269,l)
);
},
{
closed = 1;
nodes = (
(210,1890,l),
(210,1697,l),
(2499,1697,l),
(2499,1890,l)
);
},
{
closed = 1;
nodes = (
(1251,2309,l),
(1251,1183,l),
(1454,1183,l),
(1454,2309,l)
);
},
{
closed = 1;
nodes = (
(2045,1269,l),
(2045,1233,l),
(1760,488,o),
(991,143,o),
(108,2,c),
(146,-42,o),
(199,-134,o),
(218,-185,c),
(1117,-19,o),
(1921,363,o),
(2261,1198,c),
(2126,1277,l),
(2089,1269,l)
);
}
);
width = 2716;
},
{
layerId = "5C20EF92-B63D-42A8-8878-93C2863E0093";
shapes = (
{
closed = 1;
nodes = (
(582,891,l),
(939,242,o),
(1486,-106,o),
(2405,-233,c),
(2460,-120,o),
(2571,63,o),
(2660,159,c),
(1794,242,o),
(1226,524,o),
(958,1020,c)
);
},
{
closed = 1;
nodes = (
(316,1376,l),
(316,989,l),
(2038,989,l),
(2038,1376,l)
);
},
{
closed = 1;
nodes = (
(179,2025,l),
(179,1633,l),
(2526,1633,l),
(2526,2025,l)
);
},
{
closed = 1;
nodes = (
(1137,2354,l),
(1137,1207,l),
(1556,1207,l),
(1556,2354,l)
);
},
{
closed = 1;
nodes = (
(1910,1376,l),
(1910,1309,l),
(1684,573,o),
(991,269,o),
(58,161,c),
(138,72,o),
(239,-121,o),
(277,-230,c),
(1241,-73,o),
(2018,328,o),
(2341,1234,c),
(2060,1389,l),
(1994,1376,l)
);
}
);
width = 2716;
},
{
layerId = "B1F27B51-9973-4381-9301-4FE46FE1CA59";
shapes = (
{
closed = 1;
nodes = (
(618,1105,l),
(939,405,o),
(1639,-17,o),
(2537,-167,c),
(2549,-147,o),
(2563,-128,o),
(2578,-113,c),
(1669,28,o),
(984,450,o),
(670,1130,c)
);
},
{
closed = 1;
nodes = (
(347,1200,l),
(347,1138,l),
(2148,1138,l),
(2148,1200,l)
);
},
{
closed = 1;
nodes = (
(231,1803,l),
(231,1738,l),
(2483,1738,l),
(2483,1803,l)
);
},
{
closed = 1;
nodes = (
(1324,2280,l),
(1324,1168,l),
(1388,1168,l),
(1388,2280,l)
);
},
{
closed = 1;
nodes = (
(2132,1200,l),
(2132,1183,l),
(1809,433,o),
(991,60,o),
(140,-100,c),
(153,-115,o),
(173,-141,o),
(180,-156,c),
(1035,16,o),
(1858,386,o),
(2209,1176,c),
(2169,1205,l),
(2150,1200,l)
);
}
);
width = 2716;
}
);
note = cid19897;
unicode = (12096,25903);
}
{
color = 0;
glyphname = uni2F42;
layers = (
{
layerId = "CD0E3B44-F66A-4791-B84C-A1128DC61275";
shapes = (
{
closed = 1;
nodes = (
(1974,1750,l),
(1666,813,o),
(1079,282,o),
(108,0,c),
(147,-47,o),
(210,-140,o),
(233,-188,c),
(1220,131,o),
(1836,692,o),
(2180,1688,c)
);
},
{
closed = 1;
nodes = (
(534,1677,l),
(868,726,o),
(1470,75,o),
(2474,-185,c),
(2508,-131,o),
(2571,-40,o),
(2618,5,c),
(1636,237,o),
(1022,864,o),
(727,1735,c)
);
},
{
closed = 1;
nodes = (
(137,1845,l),
(137,1655,l),
(2589,1655,l),
(2589,1845,l)
);
},
{
closed = 1;
nodes = (
(1253,2309,l),
(1253,1731,l),
(1453,1731,l),
(1453,2309,l)
);
}
);
width = 2716;
},
{
layerId = "5C20EF92-B63D-42A8-8878-93C2863E0093";
shapes = (
{
closed = 1;
nodes = (
(1828,1723,l),
(1553,863,o),
(978,379,o),
(54,148,c),
(128,52,o),
(255,-140,o),
(305,-238,c),
(1265,55,o),
(1908,635,o),
(2251,1598,c)
);
},
{
closed = 1;
nodes = (
(487,1578,l),
(828,643,o),
(1369,35,o),
(2389,-230,c),
(2454,-117,o),
(2585,76,o),
(2681,167,c),
(1721,380,o),
(1147,930,o),
(883,1694,c)
);
},
{
closed = 1;
nodes = (
(111,1938,l),
(111,1552,l),
(2618,1552,l),
(2618,1938,l)
);
},
{
closed = 1;
nodes = (
(1149,2350,l),
(1149,1705,l),
(1560,1705,l),
(1560,2350,l)
);
}
);
width = 2716;
},
{
layerId = "B1F27B51-9973-4381-9301-4FE46FE1CA59";
shapes = (
{
closed = 1;
nodes = (
(2070,1768,l),
(1739,781,o),
(1146,219,o),
(143,-96,c),
(159,-111,o),
(181,-140,o),
(188,-156,c),
(1191,180,o),
(1789,730,o),
(2134,1746,c)
);
},
{
closed = 1;
nodes = (
(565,1741,l),
(893,778,o),
(1537,101,o),
(2528,-156,c),
(2543,-139,o),
(2562,-115,o),
(2577,-100,c),
(1582,144,o),
(940,821,o),
(626,1760,c)
);
},
{
closed = 1;
nodes = (
(154,1785,l),
(154,1723,l),
(2572,1723,l),
(2572,1785,l)
);
},
{
closed = 1;
nodes = (
(1320,2284,l),
(1320,1748,l),
(1385,1748,l),
(1385,2284,l)
);
}
);
width = 2716;
}
);
note = cid20035;
unicode = (12098,25991);
}
{
color = 0;
glyphname = uni2F43;
layers = (
{
layerId = "CD0E3B44-F66A-4791-B84C-A1128DC61275";
shapes = (
{
closed = 1;
nodes = (
(1699,2307,l),
(1699,-185,l),
(1904,-185,l),
(1904,2307,l)
);
},
{
closed = 1;
nodes = (
(162,546,l),
(188,354,l),
(2564,702,l),
(2535,885,l)
);
},
{
closed = 1;
nodes = (
(645,1993,l),
(866,1890,o),
(1148,1731,o),
(1293,1622,c),
(1410,1787,l),
(1266,1895,o),
(976,2047,o),
(760,2144,c)
);
},
{
closed = 1;
nodes = (
(338,1369,l),
(582,1264,o),
(895,1099,o),
(1054,987,c),
(1170,1155,l),
(1012,1264,o),
(691,1418,o),
(452,1515,c)
);
}
);
width = 2716;
},
{
layerId = "5C20EF92-B63D-42A8-8878-93C2863E0093";
shapes = (
{
closed = 1;
nodes = (
(1585,2347,l),
(1585,-235,l),
(2018,-235,l),
(2018,2347,l)
);
},
{
closed = 1;
nodes = (
(109,605,l),
(158,210,l),
(2609,559,l),
(2554,944,l)
);
},
{
closed = 1;
nodes = (
(592,1922,l),
(795,1811,o),
(1077,1641,o),
(1213,1528,c),
(1455,1864,l),
(1313,1975,o),
(1018,2132,o),
(824,2230,c)
);
},
{
closed = 1;
nodes = (
(252,1289,l),
(481,1169,o),
(784,982,o),
(923,856,c),
(1179,1191,l),
(1028,1314,o),
(708,1482,o),
(492,1587,c)
);
}
);
width = 2716;
},
{
layerId = "B1F27B51-9973-4381-9301-4FE46FE1CA59";
shapes = (
{
closed = 1;
nodes = (
(1772,2281,l),
(1772,-153,l),
(1831,-153,l),
(1831,2281,l)
);
},
{
closed = 1;
nodes = (
(198,508,l),
(209,447,l),
(2535,793,l),
(2523,848,l)
);
},
{
closed = 1;
nodes = (
(681,2039,l),
(912,1943,o),
(1194,1789,o),
(1345,1683,c),
(1381,1737,l),
(1235,1843,o),
(949,1993,o),
(720,2090,c)
);
},
{
closed = 1;
nodes = (
(392,1422,l),
(649,1325,o),
(968,1175,o),
(1137,1070,c),
(1163,1133,l),
(1001,1232,o),
(681,1378,o),
(427,1469,c)
);
}
);
width = 2716;
}
);
note = cid20064;
unicode = (12099,26007);
}
{
color = 0;
glyphname = uni2F48;
layers = (
{
layerId = "CD0E3B44-F66A-4791-B84C-A1128DC61275";
shapes = (
{
closed = 1;
nodes = (
(345,2028,l),
(345,-115,l),
(543,-115,l),
(543,1833,l),
(2170,1833,l),
(2170,-104,l),
(2376,-104,l),
(2376,2028,l)
);
},
{
closed = 1;
nodes = (
(453,280,l),
(453,85,l),
(2272,85,l),
(2272,280,l)
);
},
{
closed = 1;
nodes = (
(434,1156,l),
(434,962,l),
(1932,962,l),
(1932,1156,l)
);
}
);
width = 2716;
},
{
layerId = "5C20EF92-B63D-42A8-8878-93C2863E0093";
shapes = (
{
closed = 1;
nodes = (
(274,2099,l),
(274,-146,l),
(678,-146,l),
(678,1698,l),
(2014,1698,l),
(2014,-149,l),
(2439,-149,l),
(2439,2099,l)
);
},
{
closed = 1;
nodes = (
(485,422,l),
(485,21,l),
(2236,21,l),
(2236,422,l)
);
},
{
closed = 1;
nodes = (
(426,1259,l),
(426,864,l),
(1897,864,l),
(1897,1259,l)
);
}
);
width = 2716;
},
{
layerId = "B1F27B51-9973-4381-9301-4FE46FE1CA59";
shapes = (
{
closed = 1;
nodes = (
(391,1982,l),
(391,-94,l),
(456,-94,l),
(456,1920,l),
(2271,1920,l),
(2271,-75,l),
(2335,-75,l),
(2335,1982,l)
);
},
{
closed = 1;
nodes = (
(431,188,l),
(431,125,l),
(2294,125,l),
(2294,188,l)
);
},
{
closed = 1;
nodes = (
(441,1089,l),
(441,1027,l),
(1955,1027,l),
(1955,1089,l)
);
}
);
width = 2716;
}
);
note = cid20647;
unicode = (12104,26352);
}
{
color = 0;
glyphname = uni2F4B;
layers = (
{
layerId = "CD0E3B44-F66A-4791-B84C-A1128DC61275";
shapes = (
{
closed = 1;
nodes = (
(743,2334,l),
(617,1846,o),
(399,1385,o),
(111,1102,c),
(166,1073,o),
(260,1008,o),
(300,972,c),
(578,1284,o),
(815,1766,o),
(959,2289,c)
);
},
{
closed = 1;
nodes = (
(2320,1841,l),
(2320,1795,l),
(2250,1532,o),
(2124,1213,o),
(2003,1021,c),
(2178,943,l),
(2319,1158,o),
(2455,1494,o),
(2553,1796,c),
(2396,1851,l),
(2361,1841,l)
);
},
{
closed = 1;
nodes = (
(714,1841,l),
(617,1648,l),
(2393,1648,l),
(2393,1841,l)
);
},
{
closed = 1;
nodes = (
(1358,1668,l),
(1243,1668,l),
(1243,1292,ls),
(1243,1015,o),
(1069,300,o),
(121,-14,c),
(166,-55,o),
(233,-140,o),
(257,-182,c),
(1037,106,o),
(1302,683,o),
(1355,943,c),
(1408,683,o),
(1679,87,o),
(2450,-182,c),
(2482,-133,o),
(2544,-42,o),
(2586,2,c),
(1634,303,o),
(1467,1029,o),
(1467,1295,cs),
(1467,1668,l)
);
}
);
width = 2716;
},
{
layerId = "5C20EF92-B63D-42A8-8878-93C2863E0093";
shapes = (
{
closed = 1;
nodes = (
(623,2383,l),
(522,1913,o),
(323,1452,o),
(61,1192,c),
(171,1132,o),
(363,1001,o),
(452,918,c),
(709,1234,o),
(945,1758,o),
(1075,2292,c)
);
},
{
closed = 1;
nodes = (
(2132,1931,l),
(2132,1857,l),
(2075,1573,o),
(1963,1242,o),
(1855,1031,c),
(2218,879,l),
(2369,1137,o),
(2509,1494,o),
(2606,1845,c),
(2274,1949,l),
(2209,1931,l)
);
},
{
closed = 1;
nodes = (
(783,1931,l),
(585,1534,l),
(2272,1534,l),
(2272,1931,l)
);
},
{
closed = 1;
nodes = (
(1353,1578,l),
(1118,1578,l),
(1118,1240,ls),
(1118,850,o),
(821,354,o),
(71,124,c),
(161,47,o),
(300,-136,o),
(347,-227,c),
(893,-24,o),
(1262,390,o),
(1350,634,c),
(1434,390,o),
(1801,-30,o),
(2351,-227,c),
(2415,-123,o),
(2544,67,o),
(2631,156,c),
(1844,393,o),
(1584,853,o),
(1584,1247,cs),
(1584,1578,l)
);
}
);
width = 2716;
},
{
layerId = "B1F27B51-9973-4381-9301-4FE46FE1CA59";
shapes = (
{
closed = 1;
nodes = (
(821,2302,l),
(678,1803,o),
(449,1342,o),
(143,1044,c),
(163,1035,o),
(192,1014,o),
(203,1007,c),
(495,1316,o),
(731,1771,o),
(884,2287,c)
);
},
{
closed = 1;
nodes = (
(2442,1783,l),
(2442,1755,l),
(2363,1507,o),
(2228,1196,o),
(2100,1015,c),
(2153,983,l),
(2288,1172,o),
(2420,1494,o),
(2517,1764,c),
(2476,1786,l),
(2458,1783,l)
);
},
{
closed = 1;
nodes = (
(670,1783,l),
(638,1721,l),
(2473,1721,l),
(2473,1783,l)
);
},
{
closed = 1;
nodes = (
(1360,1726,l),
(1325,1726,l),
(1325,1327,ls),
(1325,1122,o),
(1228,265,o),
(153,-103,c),
(169,-122,o),
(190,-143,o),
(199,-153,c),
(1130,190,o),
(1328,871,o),
(1358,1144,c),
(1391,871,o),
(1599,162,o),
(2514,-153,c),
(2525,-139,o),
(2544,-111,o),
(2557,-96,c),
(1498,245,o),
(1391,1141,o),
(1391,1326,cs),
(1391,1726,l)
);
}
);
width = 2716;
}
);
note = cid22493;
unicode = (12107,27424);
}
{
color = 0;
glyphname = uni2F52;
layers = (
{
layerId = "CD0E3B44-F66A-4791-B84C-A1128DC61275";
shapes = (
{
closed = 1;
nodes = (
(1433,2005,l),
(1450,803,o),
(1707,-194,o),
(2298,-194,cs),
(2504,-194,o),
(2578,-82,o),
(2615,323,c),
(2563,341,o),
(2487,380,o),
(2443,425,c),
(2426,116,o),
(2395,4,o),
(2308,4,cs),
(1900,4,o),
(1643,873,o),
(1642,2005,c)
);
},
{
closed = 1;
nodes = (
(567,1265,l),
(567,1075,l),
(2575,1075,l),
(2575,1265,l)
);
},
{
closed = 1;
nodes = (
(463,2040,l),
(463,25,l),
(659,25,l),
(659,1985,l)
);
},
{
closed = 1;
nodes = (
(2209,2297,l),
(1816,2173,o),
(1117,2059,o),
(518,1988,c),
(541,1944,o),
(570,1866,o),
(578,1816,c),
(1187,1887,o),
(1898,1999,o),
(2363,2137,c)
);
},
{
closed = 1;
nodes = (
(203,-138,l),
(561,-70,o),
(1064,23,o),
(1535,116,c),
(1524,303,l),
(1022,210,o),
(488,117,o),
(153,67,c)
);
}
);
width = 2716;
},
{
layerId = "5C20EF92-B63D-42A8-8878-93C2863E0093";
shapes = (
{
closed = 1;
nodes = (
(1374,1902,l),
(1388,824,o),
(1596,-225,o),
(2208,-225,cs),
(2485,-225,o),
(2609,-132,o),
(2674,342,c),
(2568,376,o),
(2421,460,o),
(2332,550,c),
(2313,288,o),
(2292,179,o),
(2232,179,cs),
(1980,184,o),
(1791,1046,o),
(1798,1902,c)
);
},
{
closed = 1;
nodes = (
(647,1350,l),
(647,961,l),
(2602,961,l),
(2602,1350,l)
);
},
{
closed = 1;
nodes = (
(423,2161,l),
(423,84,l),
(826,84,l),
(826,2061,l)
);
},
{
closed = 1;
nodes = (
(2111,2356,l),
(1709,2227,o),
(1103,2113,o),
(539,2047,c),
(586,1958,o),
(646,1795,o),
(663,1696,c),
(1235,1762,o),
(1893,1869,o),
(2415,2025,c)
);
},
{
closed = 1;
nodes = (
(224,-191,l),
(592,-132,o),
(1069,-62,o),
(1511,17,c),
(1493,405,l),
(1008,335,o),
(480,263,o),
(134,232,c)
);
}
);
width = 2716;
},
{
layerId = "B1F27B51-9973-4381-9301-4FE46FE1CA59";
shapes = (
{
closed = 1;
nodes = (
(1471,2072,l),
(1490,789,o),
(1779,-173,o),
(2356,-173,cs),
(2516,-173,o),
(2558,-50,o),
(2577,311,c),
(2560,318,o),
(2530,328,o),
(2515,343,c),
(2499,3,o),
(2463,-108,o),
(2358,-108,cs),
(1848,-111,o),
(1546,761,o),
(1541,2072,c)
);
},
{
closed = 1;
nodes = (
(515,1211,l),
(515,1148,l),
(2558,1148,l),
(2558,1211,l)
);
},
{
closed = 1;
nodes = (
(488,1963,l),
(488,-13,l),
(551,-13,l),
(551,1935,l)
);
},
{
closed = 1;
nodes = (
(2272,2260,l),
(1884,2138,o),
(1125,2023,o),
(503,1950,c),
(512,1935,o),
(520,1912,o),
(523,1894,c),
(1156,1968,o),
(1900,2083,o),
(2328,2209,c)
);
},
{
closed = 1;
nodes = (
(188,-104,l),
(540,-31,o),
(1061,77,o),
(1550,180,c),
(1545,237,l),
(1030,129,o),
(495,21,o),
(165,-40,c)
);
}
);
width = 2716;
}
);
note = cid22947;
unicode = (12114,27663);
}
{
color = 0;
glyphname = uni2F55;
layers = (
{
layerId = "CD0E3B44-F66A-4791-B84C-A1128DC61275";
shapes = (
{
closed = 1;
nodes = (
(550,1757,l),
(509,1456,o),
(413,1156,o),
(193,993,c),
(361,879,l),
(604,1062,o),
(697,1394,o),
(745,1715,c)
);
},
{
closed = 1;
nodes = (
(2258,1763,l),
(2165,1525,o),
(1995,1198,o),
(1859,997,c),
(2022,918,l),
(2164,1114,o),
(2338,1425,o),
(2468,1679,c)
);
},
{
closed = 1;
nodes = (
(1346,2271,l),
(1240,2271,l),
(1240,1387,ls),
(1240,1078,o),
(1057,326,o),
(135,-24,c),
(177,-68,o),
(242,-146,o),
(268,-188,c),
(1047,133,o),
(1294,740,o),
(1344,1005,c),
(1397,743,o),
(1658,113,o),
(2455,-188,c),
(2484,-134,o),
(2546,-53,o),
(2588,-9,c),
(1640,327,o),
(1450,1084,o),
(1450,1390,cs),
(1450,2271,l)
);
}
);
width = 2716;
},
{
layerId = "5C20EF92-B63D-42A8-8878-93C2863E0093";
shapes = (
{
closed = 1;
nodes = (
(439,1816,l),
(408,1506,o),
(319,1246,o),
(131,1083,c),
(496,862,l),
(725,1062,o),
(799,1381,o),
(848,1728,c)
);
},
{
closed = 1;
nodes = (
(2083,1827,l),
(2007,1578,o),
(1870,1273,o),
(1743,1073,c),
(2089,918,l),
(2228,1107,o),
(2388,1390,o),
(2526,1658,c)
);
},
{
closed = 1;
nodes = (
(1342,2316,l),
(1124,2316,l),
(1124,1477,ls),
(1124,1015,o),
(847,411,o),
(82,119,c),
(163,35,o),
(306,-137,o),
(358,-226,c),
(927,24,o),
(1256,507,o),
(1342,791,c),
(1428,518,o),
(1793,18,o),
(2365,-226,c),
(2425,-112,o),
(2554,58,o),
(2647,148,c),
(1854,451,o),
(1562,1013,o),
(1562,1484,cs),
(1562,2316,l)
);
}
);
width = 2716;
},
{
layerId = "B1F27B51-9973-4381-9301-4FE46FE1CA59";
shapes = (
{
closed = 1;
nodes = (
(623,1720,l),
(576,1424,o),
(474,1098,o),
(233,935,c),
(274,889,l),
(526,1062,o),
(630,1402,o),
(679,1708,c)
);
},
{
closed = 1;
nodes = (
(2371,1723,l),
(2267,1489,o),
(2077,1148,o),
(1934,947,c),
(1979,918,l),
(2123,1120,o),
(2306,1448,o),
(2431,1693,c)
);
},
{
closed = 1;
nodes = (
(1349,2242,l),
(1315,2242,l),
(1315,1329,ls),
(1315,1119,o),
(1193,271,o),
(171,-117,c),
(186,-136,o),
(202,-152,o),
(210,-165,c),
(1125,202,o),
(1317,891,o),
(1346,1145,c),
(1376,887,o),
(1571,174,o),
(2513,-165,c),
(2522,-148,o),
(2541,-125,o),
(2550,-109,c),
(1500,245,o),
(1378,1130,o),
(1378,1329,cs),
(1378,2242,l)
);
}
);
width = 2716;
}
);
note = cid24833;
unicode = (12117,28779);
}
{
color = 0;
glyphname = uni2F5E;
layers = (
{
layerId = "CD0E3B44-F66A-4791-B84C-A1128DC61275";
shapes = (
{
closed = 1;
nodes = (
(167,1916,l),
(167,1723,l),
(2554,1723,l),
(2554,1916,l)
);
},
{
closed = 1;
nodes = (
(1253,2314,l),
(1253,1824,l),
(1457,1824,l),
(1457,2314,l)
);
},
{
closed = 1;
nodes = (
(1891,1506,l),
(1548,1042,o),
(987,439,o),
(562,73,c),
(710,-24,l),
(1135,341,o),
(1693,925,o),
(2080,1407,c)
);
},
{
closed = 1;
nodes = (
(1164,1795,l),
(1035,1581,o),
(811,1280,o),
(634,1097,c),
(795,1016,l),
(972,1192,o),
(1199,1473,o),
(1364,1707,c)
);
},
{
closed = 1;
nodes = (
(228,-106,l),
(760,-81,o),
(1564,-40,o),
(2319,3,c),
(2328,188,l),
(1561,149,o),
(725,115,o),
(207,98,c)
);
},
{
closed = 1;
nodes = (
(1701,650,l),
(1963,395,o),
(2261,29,o),
(2397,-207,c),
(2576,-90,l),
(2438,145,o),
(2143,492,o),
(1869,748,c)
);
},
{
closed = 1;
nodes = (
(316,1177,l),
(623,995,o),
(1007,713,o),
(1191,525,c),
(1324,692,l),
(1136,874,o),
(744,1142,o),
(438,1319,c)
);
}
);
width = 2716;
},
{
layerId = "5C20EF92-B63D-42A8-8878-93C2863E0093";
shapes = (
{
closed = 1;
nodes = (
(141,2029,l),
(141,1633,l),
(2575,1633,l),
(2575,2029,l)
);
},
{
closed = 1;
nodes = (
(1140,2354,l),
(1140,1841,l),
(1560,1841,l),
(1560,2354,l)
);
},
{
closed = 1;
nodes = (
(1796,1532,l),
(1472,1073,o),
(947,524,o),
(514,175,c),
(818,-19,l),
(1247,317,o),
(1788,839,o),
(2192,1330,c)
);
},
{
closed = 1;
nodes = (
(1053,1786,l),
(945,1590,o),
(771,1330,o),
(617,1164,c),
(941,1007,l),
(1103,1152,o),
(1302,1388,o),
(1473,1612,c)
);
},
{
closed = 1;
nodes = (
(219,-169,l),
(765,-145,o),
(1559,-102,o),
(2296,-61,c),
(2311,323,l),
(1570,289,o),
(725,258,o),
(176,244,c)
);
},
{
closed = 1;
nodes = (
(1679,636,l),
(1897,369,o),
(2150,-11,o),
(2258,-257,c),
(2638,-18,l),
(2515,222,o),
(2268,563,o),
(2034,834,c)
);
},
{
closed = 1;
nodes = (
(231,1092,l),
(533,910,o),
(954,618,o),
(1137,427,c),
(1422,775,l),
(1222,959,o),
(785,1228,o),
(488,1391,c)
);
}
);
width = 2716;
},
{
layerId = "B1F27B51-9973-4381-9301-4FE46FE1CA59";
shapes = (
{
closed = 1;
nodes = (
(184,1843,l),
(184,1781,l),
(2540,1781,l),
(2540,1843,l)
);
},
{
closed = 1;
nodes = (
(1327,2289,l),
(1327,1813,l),
(1389,1813,l),
(1389,2289,l)
);
},
{
closed = 1;
nodes = (
(1952,1489,l),
(1598,1021,o),
(1013,385,o),
(593,6,c),
(640,-27,l),
(1063,356,o),
(1632,979,o),
(2008,1457,c)
);
},
{
closed = 1;
nodes = (
(1237,1801,l),
(1093,1574,o),
(836,1248,o),
(644,1054,c),
(699,1022,l),
(889,1217,o),
(1132,1528,o),
(1295,1768,c)
);
},
{
closed = 1;
nodes = (
(234,-65,l),
(758,-41,o),
(1567,-1,o),
(2334,43,c),
(2338,101,l),
(1554,59,o),
(725,22,o),
(228,2,c)
);
},
{
closed = 1;
nodes = (
(1715,658,l),
(2006,412,o),
(2333,55,o),
(2487,-175,c),
(2537,-136,l),
(2388,94,o),
(2062,446,o),
(1763,694,c)
);
},
{
closed = 1;
nodes = (
(370,1231,l),
(681,1049,o),
(1042,774,o),
(1226,590,c),
(1259,640,l),
(1082,820,o),
(719,1088,o),
(406,1273,c)
);
}
);
width = 2716;
}
);
note = cid26310;
unicode = (12126,29572);
}
{
color = 0;
glyphname = uni2F6B;
layers = (
{
layerId = "CD0E3B44-F66A-4791-B84C-A1128DC61275";
shapes = (
{
closed = 1;
nodes = (
(111,185,l),
(111,-13,l),
(2610,-13,l),
(2610,185,l)
);
},
{
closed = 1;
nodes = (
(385,2021,l),
(385,86,l),
(576,86,l),
(576,1825,l),
(973,1825,l),
(973,86,l),
(1161,86,l),
(1161,1825,l),
(1564,1825,l),
(1564,86,l),
(1751,86,l),
(1751,1825,l),
(2157,1825,l),
(2157,86,l),
(2355,86,l),
(2355,2021,l)
);
}
);
width = 2716;
},
{
layerId = "5C20EF92-B63D-42A8-8878-93C2863E0093";
shapes = (
{
closed = 1;
nodes = (
(70,320,l),
(70,-84,l),
(2646,-84,l),
(2646,320,l)
);
},
{
closed = 1;
nodes = (
(317,2089,l),
(317,126,l),
(706,126,l),
(706,1686,l),
(878,1686,l),
(878,126,l),
(1253,126,l),
(1253,1686,l),
(1433,1686,l),
(1433,126,l),
(1815,126,l),
(1815,1686,l),
(1996,1686,l),
(1996,126,l),
(2400,126,l),
(2400,2089,l)
);
}
);
width = 2716;
},
{
layerId = "B1F27B51-9973-4381-9301-4FE46FE1CA59";
shapes = (
{
closed = 1;
nodes = (
(136,98,l),
(136,33,l),
(2588,33,l),
(2588,98,l)
);
},
{
closed = 1;
nodes = (
(429,1977,l),
(429,60,l),
(492,60,l),
(492,1915,l),
(1034,1915,l),
(1034,60,l),
(1101,60,l),
(1101,1915,l),
(1647,1915,l),
(1647,60,l),
(1711,60,l),
(1711,1915,l),
(2261,1915,l),
(2261,60,l),
(2326,60,l),
(2326,1977,l)
);
}
);
width = 2716;
}
);
note = cid27792;
unicode = (12139,30399);
}
{
color = 0;
glyphname = uni2F6D;
layers = (
{
layerId = "CD0E3B44-F66A-4791-B84C-A1128DC61275";
shapes = (
{
closed = 1;
nodes = (
(1316,1166,l),
(1316,55,ls),
(1316,12,o),
(1299,-2,o),
(1248,-5,cs),
(1193,-8,o),
(1005,-11,o),
(803,-2,c),
(835,-55,o),
(869,-134,o),
(879,-188,c),
(1131,-188,o),
(1292,-188,o),
(1388,-156,cs),
(1484,-128,o),
(1517,-72,o),
(1517,50,cs),
(1517,1166,l)
);
},
{
closed = 1;
nodes = (
(409,2161,l),
(409,1979,l),
(2132,1979,l),
(2132,2161,l)
);
},
{
closed = 1;
nodes = (
(2055,2161,l),
(2055,2117,l),
(1895,1942,o),
(1578,1697,o),
(1333,1561,c),
(1370,1532,o),
(1427,1470,o),
(1456,1431,c),
(1727,1586,o),
(2066,1835,o),
(2297,2057,c),
(2153,2174,l),
(2107,2161,l)
);
},
{
closed = 1;
nodes = (
(150,1299,l),
(150,1111,l),
(2410,1111,l),
(2410,1299,l)
);
},
{
closed = 1;
nodes = (
(725,1684,l),
(1064,1556,o),
(1481,1343,o),
(1686,1182,c),
(1829,1339,l),
(1610,1497,o),
(1190,1705,o),
(858,1822,c)
);
},
{
closed = 1;
nodes = (
(2343,1299,l),
(2343,1259,l),
(2207,1026,o),
(2002,763,o),
(1827,600,c),
(1986,504,l),
(2183,685,o),
(2396,972,o),
(2572,1244,c),
(2419,1312,l),
(2381,1299,l)
);
},
{
closed = 1;
nodes = (
(1270,1226,l),
(1019,846,o),
(537,472,o),
(92,302,c),
(133,264,o),
(193,191,o),
(227,141,c),
(672,339,o),
(1160,731,o),
(1434,1155,c)
);
}
);
width = 2716;
},
{
layerId = "5C20EF92-B63D-42A8-8878-93C2863E0093";
shapes = (
{
closed = 1;
nodes = (
(1205,1023,l),
(1205,190,ls),
(1205,151,o),
(1182,141,o),
(1134,138,cs),
(1080,134,o),
(875,132,o),
(731,141,c),
(795,43,o),
(861,-117,o),
(879,-228,c),
(1109,-228,o),
(1292,-228,o),
(1433,-170,cs),
(1574,-114,o),
(1620,-18,o),
(1620,171,cs),
(1620,1023,l)
);
},
{
closed = 1;
nodes = (
(364,2237,l),
(364,1873,l),
(2037,1873,l),
(2037,2237,l)
);
},
{
closed = 1;
nodes = (
(1880,2237,l),
(1880,2148,l),
(1775,2006,o),
(1502,1761,o),
(1274,1623,c),
(1343,1568,o),
(1458,1439,o),
(1513,1363,c),
(1807,1533,o),
(2125,1799,o),
(2368,2017,c),
(2082,2260,l),
(1990,2237,l)
);
},
{
closed = 1;
nodes = (
(131,1348,l),
(131,973,l),
(2299,973,l),
(2299,1348,l)
);
},
{
closed = 1;
nodes = (
(653,1549,l),
(984,1439,o),
(1428,1248,o),
(1638,1110,c),
(1932,1419,l),
(1689,1556,o),
(1239,1736,o),
(924,1822,c)
);
},
{
closed = 1;
nodes = (
(2165,1348,l),
(2165,1283,l),
(2082,1045,o),
(1916,781,o),
(1768,605,c),
(2099,409,l),
(2290,626,o),
(2486,931,o),
(2619,1244,c),
(2303,1376,l),
(2233,1348,l)
);
},
{
closed = 1;
nodes = (
(1150,1198,l),
(924,882,o),
(494,570,o),
(52,414,c),
(133,335,o),
(257,186,o),
(322,88,c),
(775,289,o),
(1208,651,o),
(1479,1061,c)
);
}
);
width = 2716;
},
{
layerId = "B1F27B51-9973-4381-9301-4FE46FE1CA59";
shapes = (
{
closed = 1;
nodes = (
(1388,1258,l),
(1388,-32,ls),
(1388,-78,o),
(1375,-95,o),
(1321,-98,cs),
(1267,-100,o),
(1088,-103,o),
(850,-95,c),
(861,-120,o),
(876,-144,o),
(879,-163,c),
(1145,-163,o),
(1292,-163,o),
(1359,-148,cs),
(1426,-137,o),
(1449,-107,o),
(1449,-28,cs),
(1449,1258,l)
);
},
{
closed = 1;
nodes = (
(438,2112,l),
(438,2048,l),
(2193,2048,l),
(2193,2112,l)
);
},
{
closed = 1;
nodes = (
(2168,2112,l),
(2168,2097,l),
(1973,1902,o),
(1628,1657,o),
(1371,1522,c),
(1387,1510,o),
(1406,1491,o),
(1418,1475,c),
(1674,1620,o),
(2029,1858,o),
(2251,2083,c),
(2199,2120,l),
(2182,2112,l)
);
},
{
closed = 1;
nodes = (
(162,1267,l),
(162,1201,l),
(2483,1201,l),
(2483,1267,l)
);
},
{
closed = 1;
nodes = (
(772,1771,l),
(1117,1631,o),
(1517,1404,o),
(1717,1228,c),
(1762,1287,l),
(1557,1459,o),
(1158,1684,o),
(815,1822,c)
);
},
{
closed = 1;
nodes = (
(2457,1267,l),
(2457,1244,l),
(2288,1014,o),
(2056,750,o),
(1865,598,c),
(1913,565,l),
(2115,722,o),
(2338,997,o),
(2541,1244,c),
(2494,1272,l),
(2478,1267,l)
);
},
{
closed = 1;
nodes = (
(1348,1243,l),
(1080,823,o),
(565,407,o),
(117,230,c),
(133,218,o),
(153,193,o),
(166,177,c),
(605,371,o),
(1129,783,o),
(1405,1216,c)
);
}
);
width = 2716;
}
);
note = cid28255;
unicode = (12141,30683);
}
{
color = 0;
glyphname = uni2F70;
layers = (
{
layerId = "CD0E3B44-F66A-4791-B84C-A1128DC61275";
shapes = (
{
closed = 1;
nodes = (
(1255,1346,l),
(1255,75,ls),
(1255,32,o),
(1240,21,o),
(1192,18,cs),
(1140,15,o),
(961,15,o),
(774,24,c),
(805,-37,o),
(837,-122,o),
(846,-182,c),
(1087,-182,o),
(1245,-180,o),
(1339,-148,cs),
(1434,-114,o),
(1467,-57,o),
(1467,73,cs),
(1467,1346,l)
);
},
{
closed = 1;
nodes = (
(642,983,l),
(524,674,o),
(322,373,o),
(97,179,c),
(146,153,o),
(235,96,o),
(277,62,c),
(493,271,o),
(709,594,o),
(843,928,c)
);
},
{
closed = 1;
nodes = (
(1859,901,l),
(2056,641,o),
(2263,287,o),
(2338,59,c),
(2533,148,l),
(2451,379,o),
(2238,721,o),
(2039,977,c)
);
},
{
closed = 1;
nodes = (
(406,2106,l),
(406,1914,l),
(2316,1914,l),
(2316,2106,l)
);
},
{
closed = 1;
nodes = (
(164,1447,l),
(164,1254,l),
(2554,1254,l),
(2554,1447,l)
);
}
);
width = 2716;
},
{
layerId = "5C20EF92-B63D-42A8-8878-93C2863E0093";
shapes = (
{
closed = 1;
nodes = (
(1152,1319,l),
(1152,232,ls),
(1152,194,o),
(1133,186,o),
(1085,183,cs),
(1033,180,o),
(831,180,o),
(692,193,c),
(752,74,o),
(816,-104,o),
(829,-232,c),
(1068,-232,o),
(1258,-225,o),
(1403,-162,cs),
(1548,-95,o),
(1592,10,o),
(1592,224,cs),
(1592,1319,l)
);
},
{
closed = 1;
nodes = (
(481,986,l),
(389,719,o),
(223,432,o),
(43,259,c),
(142,210,o),
(321,96,o),
(412,27,c),
(588,231,o),
(781,556,o),
(896,876,c)
);
},
{
closed = 1;
nodes = (
(1806,849,l),
(1961,583,o),
(2137,238,o),
(2196,10,c),
(2609,195,l),
(2536,429,o),
(2345,752,o),
(2183,1005,c)
);
},
{
closed = 1;
nodes = (
(389,2196,l),
(389,1802,l),
(2325,1802,l),
(2325,2196,l)
);
},
{
closed = 1;
nodes = (
(143,1542,l),
(143,1145,l),
(2585,1145,l),
(2585,1542,l)
);
}
);
width = 2716;
},
{
layerId = "B1F27B51-9973-4381-9301-4FE46FE1CA59";
shapes = (
{
closed = 1;
nodes = (
(1323,1363,l),
(1323,-25,ls),
(1323,-73,o),
(1309,-86,o),
(1260,-89,cs),
(1208,-92,o),
(1044,-92,o),
(827,-87,c),
(841,-109,o),
(851,-135,o),
(856,-151,c),
(1099,-151,o),
(1238,-151,o),
(1298,-139,cs),
(1361,-126,o),
(1386,-100,o),
(1386,-25,cs),
(1386,1363,l)
);
},
{
closed = 1;
nodes = (
(746,981,l),
(611,645,o),
(386,335,o),
(132,127,c),
(149,116,o),
(181,96,o),
(189,85,c),
(432,297,o),
(662,617,o),
(807,963,c)
);
},
{
closed = 1;
nodes = (
(1895,936,l),
(2117,678,o),
(2346,319,o),
(2430,91,c),
(2483,117,l),
(2396,347,o),
(2169,701,o),
(1946,959,c)
);
},
{
closed = 1;
nodes = (
(416,2048,l),
(416,1986,l),
(2309,1986,l),
(2309,2048,l)
);
},
{
closed = 1;
nodes = (
(178,1386,l),
(178,1323,l),
(2533,1323,l),
(2533,1386,l)
);
}
);
width = 2716;
}
);
note = cid28816;
unicode = (12144,31034);
}
{
color = 0;
glyphname = uni2F75;
layers = (
{
layerId = "CD0E3B44-F66A-4791-B84C-A1128DC61275";
shapes = (
{
closed = 1;
nodes = (
(568,2312,l),
(467,1872,o),
(295,1434,o),
(72,1156,c),
(122,1127,o),
(211,1067,o),
(247,1036,c),
(467,1337,o),
(654,1795,o),
(771,2270,c)
);
},
{
closed = 1;
nodes = (
(480,1756,l),
(383,1561,l),
(1358,1561,l),
(1358,1756,l)
);
},
{
closed = 1;
nodes = (
(1615,2312,l),
(1520,1868,o),
(1351,1437,o),
(1133,1159,c),
(1178,1133,o),
(1264,1072,o),
(1298,1041,c),
(1518,1340,o),
(1697,1798,o),
(1810,2273,c)
);
},
{
closed = 1;
nodes = (
(1581,1756,l),
(1484,1561,l),
(2607,1561,l),
(2607,1756,l)
);
},
{
closed = 1;
nodes = (
(673,1671,l),
(673,-185,l),
(869,-185,l),
(869,1671,l)
);
},
{
closed = 1;
nodes = (
(1990,1681,l),
(1990,78,ls),
(1990,37,o),
(1979,24,o),
(1933,21,cs),
(1884,18,o),
(1727,18,o),
(1554,27,c),
(1585,-37,o),
(1614,-122,o),
(1626,-182,c),
(1838,-182,o),
(1988,-178,o),
(2073,-146,cs),
(2164,-112,o),
(2191,-51,o),
(2191,75,cs),
(2191,1681,l)
);
}
);
width = 2716;
},
{
layerId = "5C20EF92-B63D-42A8-8878-93C2863E0093";
shapes = (
{
closed = 1;
nodes = (
(478,2354,l),
(398,1929,o),
(242,1505,o),
(32,1255,c),
(129,1198,o),
(314,1077,o),
(389,1010,c),
(607,1306,o),
(798,1786,o),
(901,2265,c)
);
},
{
closed = 1;
nodes = (
(494,1842,l),
(298,1445,l),
(1337,1445,l),
(1337,1842,l)
);
},
{
closed = 1;
nodes = (
(1552,2354,l),
(1470,1930,o),
(1306,1516,o),
(1103,1262,c),
(1192,1213,o),
(1366,1091,o),
(1437,1022,c),
(1653,1318,o),
(1840,1798,o),
(1953,2273,c)
);
},
{
closed = 1;
nodes = (
(1697,1842,l),
(1501,1445,l),
(2652,1445,l),
(2652,1842,l)
);
},
{
closed = 1;
nodes = (
(596,1652,l),
(596,-226,l),
(999,-226,l),
(999,1652,l)
);
},
{
closed = 1;
nodes = (
(1919,1691,l),
(1919,239,ls),
(1919,202,o),
(1907,189,o),
(1862,186,cs),
(1813,183,o),
(1656,183,o),
(1523,196,c),
(1581,74,o),
(1636,-99,o),
(1654,-223,c),
(1869,-223,o),
(2042,-209,o),
(2166,-146,cs),
(2299,-81,o),
(2334,28,o),
(2334,232,cs),
(2334,1691,l)
);
}
);
width = 2716;
},
{
layerId = "B1F27B51-9973-4381-9301-4FE46FE1CA59";
shapes = (
{
closed = 1;
nodes = (
(626,2285,l),
(511,1834,o),
(331,1388,o),
(98,1092,c),
(116,1081,o),
(143,1061,o),
(155,1053,c),
(377,1358,o),
(562,1801,o),
(687,2273,c)
);
},
{
closed = 1;
nodes = (
(472,1702,l),
(438,1636,l),
(1373,1636,l),
(1373,1702,l)
);
},
{
closed = 1;
nodes = (
(1656,2285,l),
(1552,1828,o),
(1380,1384,o),
(1154,1092,c),
(1169,1080,o),
(1197,1060,o),
(1208,1053,c),
(1431,1354,o),
(1604,1798,o),
(1718,2273,c)
);
},
{
closed = 1;
nodes = (
(1506,1702,l),
(1474,1636,l),
(2578,1636,l),
(2578,1702,l)
);
},
{
closed = 1;
nodes = (
(724,1683,l),
(724,-160,l),
(786,-160,l),
(786,1683,l)
);
},
{
closed = 1;
nodes = (
(2036,1675,l),
(2036,-26,ls),
(2036,-70,o),
(2026,-83,o),
(1979,-86,cs),
(1930,-89,o),
(1773,-89,o),
(1575,-84,c),
(1588,-109,o),
(1600,-137,o),
(1608,-157,c),
(1816,-157,o),
(1953,-157,o),
(2013,-146,cs),
(2077,-133,o),
(2098,-104,o),
(2098,-25,cs),
(2098,1675,l)
);
}
);
width = 2716;
}
);
note = cid29705;
unicode = (12149,31481);
}
{
color = 0;
glyphname = uni2F78;
layers = (
{
layerId = "CD0E3B44-F66A-4791-B84C-A1128DC61275";
shapes = (
{
closed = 1;
nodes = (
(608,1962,l),
(608,1771,l),
(2375,1771,l),
(2375,1962,l)
);
},
{
closed = 1;
nodes = (
(499,186,l),
(499,-4,l),
(2242,-4,l),
(2242,186,l)
);
},
{
closed = 1;
nodes = (
(153,1214,l),
(153,1020,l),
(2562,1020,l),
(2562,1214,l)
);
},
{
closed = 1;
nodes = (
(1250,1846,l),
(1250,85,l),
(1450,85,l),
(1450,1846,l)
);
},
{
closed = 1;
nodes = (
(402,838,l),
(402,-185,l),
(597,-185,l),
(597,838,l)
);
},
{
closed = 1;
nodes = (
(2138,838,l),
(2138,-171,l),
(2335,-171,l),
(2335,838,l)
);
},
{
closed = 1;
nodes = (
(694,2323,l),
(594,1974,o),
(418,1646,o),
(190,1438,c),
(239,1409,o),
(333,1349,o),
(372,1316,c),
(592,1543,o),
(788,1893,o),
(901,2278,c)
);
}
);
width = 2716;
},
{
layerId = "5C20EF92-B63D-42A8-8878-93C2863E0093";
shapes = (
{
closed = 1;
nodes = (
(572,2011,l),
(572,1629,l),
(2396,1629,l),
(2396,2011,l)
);
},
{
closed = 1;
nodes = (
(518,295,l),
(518,-94,l),
(2206,-94,l),
(2206,295,l)
);
},
{
closed = 1;
nodes = (
(129,1291,l),
(129,900,l),
(2586,900,l),
(2586,1291,l)
);
},
{
closed = 1;
nodes = (
(1147,1726,l),
(1147,89,l),
(1557,89,l),
(1557,1726,l)
);
},
{
closed = 1;
nodes = (
(331,785,l),
(331,-230,l),
(732,-230,l),
(732,785,l)
);
},
{
closed = 1;
nodes = (
(1984,785,l),
(1984,-212,l),
(2393,-212,l),
(2393,785,l)
);
},
{
closed = 1;
nodes = (
(604,2372,l),
(522,2045,o),
(350,1725,o),
(128,1537,c),
(231,1481,o),
(423,1357,o),
(507,1285,c),
(722,1513,o),
(927,1886,o),
(1041,2278,c)
);
}
);
width = 2716;
},
{
layerId = "B1F27B51-9973-4381-9301-4FE46FE1CA59";
shapes = (
{
closed = 1;
nodes = (
(630,1930,l),
(630,1863,l),
(2361,1863,l),
(2361,1930,l)
);
},
{
closed = 1;
nodes = (
(487,117,l),
(487,54,l),
(2264,54,l),
(2264,117,l)
);
},
{
closed = 1;
nodes = (
(168,1164,l),
(168,1098,l),
(2547,1098,l),
(2547,1164,l)
);
},
{
closed = 1;
nodes = (
(1317,1924,l),
(1317,82,l),
(1382,82,l),
(1382,1924,l)
);
},
{
closed = 1;
nodes = (
(448,874,l),
(448,-156,l),
(510,-156,l),
(510,874,l)
);
},
{
closed = 1;
nodes = (
(2236,874,l),
(2236,-146,l),
(2298,-146,l),
(2298,874,l)
);
},
{
closed = 1;
nodes = (
(752,2291,l),
(641,1928,o),
(462,1593,o),
(230,1374,c),
(246,1363,o),
(275,1344,o),
(285,1336,c),
(508,1564,o),
(698,1899,o),
(811,2278,c)
);
}
);
width = 2716;
}
);
note = cid31841;
unicode = (12152,32566);
}
{
color = 0;
glyphname = uni2F7A;
layers = (
{
layerId = "CD0E3B44-F66A-4791-B84C-A1128DC61275";
shapes = (
{
closed = 1;
nodes = (
(1253,1760,l),
(1253,-185,l),
(1457,-185,l),
(1457,1760,l)
);
},
{
closed = 1;
nodes = (
(295,1842,l),
(295,1650,l),
(2439,1650,l),
(2439,1842,l)
);
},
{
closed = 1;
nodes = (
(428,1252,l),
(428,1065,l),
(2275,1065,l),
(2275,1252,l)
);
},
{
closed = 1;
nodes = (
(150,641,l),
(150,453,l),
(2571,453,l),
(2571,641,l)
);
},
{
closed = 1;
nodes = (
(606,2237,l),
(698,2107,o),
(797,1930,o),
(837,1818,c),
(1022,1895,l),
(978,2007,o),
(878,2175,o),
(782,2303,c)
);
},
{
closed = 1;
nodes = (
(1930,2317,l),
(1875,2187,o),
(1771,1998,o),
(1691,1879,c),
(1859,1820,l),
(1943,1933,o),
(2051,2105,o),
(2141,2254,c)
);
}
);
width = 2716;
},
{
layerId = "5C20EF92-B63D-42A8-8878-93C2863E0093";
shapes = (
{
closed = 1;
nodes = (
(1140,1752,l),
(1140,-226,l),
(1560,-226,l),
(1560,1752,l)
);
},
{
closed = 1;
nodes = (
(250,1914,l),
(250,1530,l),
(2482,1530,l),
(2482,1914,l)
);
},
{
closed = 1;
nodes = (
(376,1314,l),
(376,935,l),
(2334,935,l),
(2334,1314,l)
);
},
{
closed = 1;
nodes = (
(131,703,l),
(131,328,l),
(2594,328,l),
(2594,703,l)
);
},
{
closed = 1;
nodes = (
(547,2233,l),
(621,2107,o),
(712,1943,o),
(743,1835,c),
(1131,1975,l),
(1089,2086,o),
(998,2244,o),
(912,2362,c)
);
},
{
closed = 1;
nodes = (
(1800,2367,l),
(1753,2244,o),
(1676,2078,o),
(1612,1959,c),
(1962,1860,l),
(2040,1959,o),
(2146,2110,o),
(2244,2263,c)
);
}
);
width = 2716;
},
{
layerId = "B1F27B51-9973-4381-9301-4FE46FE1CA59";
shapes = (
{
closed = 1;
nodes = (
(1327,1767,l),
(1327,-160,l),
(1389,-160,l),
(1389,1767,l)
);
},
{
closed = 1;
nodes = (
(324,1795,l),
(324,1728,l),
(2412,1728,l),
(2412,1795,l)
);
},
{
closed = 1;
nodes = (
(463,1213,l),
(463,1149,l),
(2238,1149,l),
(2238,1213,l)
);
},
{
closed = 1;
nodes = (
(162,601,l),
(162,535,l),
(2556,535,l),
(2556,601,l)
);
},
{
closed = 1;
nodes = (
(643,2240,l),
(748,2107,o),
(851,1922,o),
(898,1808,c),
(953,1843,l),
(906,1954,o),
(800,2131,o),
(698,2265,c)
);
},
{
closed = 1;
nodes = (
(2014,2285,l),
(1955,2149,o),
(1832,1946,o),
(1744,1827,c),
(1792,1795,l),
(1880,1916,o),
(1990,2102,o),
(2074,2248,c)
);
}
);
width = 2716;
}
);
note = cid31999;
unicode = (12154,32650);
}
{
color = 0;
glyphname = uni2F7E;
layers = (
{
layerId = "CD0E3B44-F66A-4791-B84C-A1128DC61275";
shapes = (
{
closed = 1;
nodes = (
(170,979,l),
(170,794,l),
(2551,794,l),
(2551,979,l)
);
},
{
closed = 1;
nodes = (
(384,1482,l),
(384,1300,l),
(2352,1300,l),
(2352,1482,l)
);
},
{
closed = 1;
nodes = (
(1251,2307,l),
(1251,-185,l),
(1456,-185,l),
(1456,2307,l)
);
},
{
closed = 1;
nodes = (
(2268,2126,l),
(1801,2020,o),
(954,1953,o),
(252,1925,c),
(274,1884,o),
(297,1803,o),
(300,1751,c),
(1010,1776,o),
(1864,1842,o),
(2408,1956,c)
);
},
{
closed = 1;
nodes = (
(1199,915,l),
(965,568,o),
(507,230,o),
(99,67,c),
(143,26,o),
(209,-47,o),
(241,-99,c),
(653,88,o),
(1107,451,o),
(1366,844,c)
);
},
{
closed = 1;
nodes = (
(1346,850,l),
(1612,460,o),
(2071,76,o),
(2477,-118,c),
(2509,-66,o),
(2573,13,o),
(2621,54,c),
(2216,220,o),
(1750,574,o),
(1512,923,c)
);
}
);
width = 2716;
},
{
layerId = "5C20EF92-B63D-42A8-8878-93C2863E0093";
shapes = (
{
closed = 1;
nodes = (
(148,1064,l),
(148,693,l),
(2568,693,l),
(2568,1064,l)
);
},
{
closed = 1;
nodes = (
(401,1567,l),
(401,1207,l),
(2331,1207,l),
(2331,1567,l)
);
},
{
closed = 1;
nodes = (
(1142,2352,l),
(1142,-230,l),
(1568,-230,l),
(1568,2352,l)
);
},
{
closed = 1;
nodes = (
(2249,2211,l),
(1711,2123,o),
(912,2078,o),
(188,2060,c),
(233,1978,o),
(280,1813,o),
(283,1706,c),
(1010,1712,o),
(1847,1762,o),
(2511,1861,c)
);
},
{
closed = 1;
nodes = (
(1086,925,l),
(879,613,o),
(467,320,o),
(46,160,c),
(135,75,o),
(273,-82,o),
(336,-189,c),
(777,16,o),
(1174,372,o),
(1434,791,c)
);
},
{
closed = 1;
nodes = (
(1298,800,l),
(1558,380,o),
(1946,8,o),
(2374,-203,c),
(2438,-97,o),
(2573,66,o),
(2666,157,c),
(2252,318,o),
(1845,624,o),
(1643,942,c)
);
}
);
width = 2716;
},
{
layerId = "B1F27B51-9973-4381-9301-4FE46FE1CA59";
shapes = (
{
closed = 1;
nodes = (
(184,925,l),
(184,861,l),
(2541,861,l),
(2541,925,l)
);
},
{
closed = 1;
nodes = (
(374,1427,l),
(374,1360,l),
(2366,1360,l),
(2366,1427,l)
);
},
{
closed = 1;
nodes = (
(1320,2278,l),
(1320,-156,l),
(1384,-156,l),
(1384,2278,l)
);
},
{
closed = 1;
nodes = (
(2280,2071,l),
(1859,1952,o),
(982,1872,o),
(293,1838,c),
(299,1823,o),
(308,1797,o),
(310,1780,c),
(1010,1816,o),
(1874,1894,o),
(2340,2017,c)
);
},
{
closed = 1;
nodes = (
(1272,909,l),
(1019,539,o),
(533,172,o),
(135,7,c),
(150,-6,o),
(169,-24,o),
(180,-41,c),
(571,133,o),
(1064,504,o),
(1322,880,c)
);
},
{
closed = 1;
nodes = (
(1377,882,l),
(1647,512,o),
(2153,120,o),
(2544,-63,c),
(2555,-46,o),
(2573,-23,o),
(2592,-14,c),
(2194,155,o),
(1689,542,o),
(1429,911,c)
);
}
);
width = 2716;
}
);
note = cid32298;
unicode = (12158,32786);
}
{
color = 0;
glyphname = uni2F7F;
layers = (
{
layerId = "CD0E3B44-F66A-4791-B84C-A1128DC61275";
shapes = (
{
closed = 1;
nodes = (
(177,2148,l),
(177,1952,l),
(2545,1952,l),
(2545,2148,l)
);
},
{
closed = 1;
nodes = (
(696,1547,l),
(696,1364,l),
(1993,1364,l),
(1993,1547,l)
);
},
{
closed = 1;
nodes = (
(696,949,l),
(696,763,l),
(1993,763,l),
(1993,949,l)
);
},
{
closed = 1;
nodes = (
(158,101,l),
(758,140,o),
(1699,205,o),
(2567,273,c),
(2572,460,l),
(1694,398,o),
(727,336,o),
(132,306,c)
);
},
{
closed = 1;
nodes = (
(603,2011,l),
(603,257,l),
(808,257,l),
(808,2011,l)
);
},
{
closed = 1;
nodes = (
(1913,2014,l),
(1913,-182,l),
(2121,-182,l),
(2121,2014,l)
);
}
);
width = 2716;
},
{
layerId = "5C20EF92-B63D-42A8-8878-93C2863E0093";
shapes = (
{
closed = 1;
nodes = (
(150,2278,l),
(150,1880,l),
(2576,1880,l),
(2576,2278,l)
);
},
{
closed = 1;
nodes = (
(741,1637,l),
(741,1270,l),
(1913,1270,l),
(1913,1637,l)
);
},
{
closed = 1;
nodes = (
(741,1063,l),
(741,692,l),
(1913,692,l),
(1913,1063,l)
);
},
{
closed = 1;
nodes = (
(128,-11,l),
(762,37,o),
(1725,106,o),
(2604,188,c),
(2612,576,l),
(1758,511,o),
(753,438,o),
(83,403,c)
);
},
{
closed = 1;
nodes = (
(539,1966,l),
(539,283,l),
(967,283,l),
(967,1966,l)
);
},
{
closed = 1;
nodes = (
(1756,1964,l),
(1756,-223,l),
(2189,-223,l),
(2189,1964,l)
);
}
);
width = 2716;
},
{
layerId = "B1F27B51-9973-4381-9301-4FE46FE1CA59";
shapes = (
{
closed = 1;
nodes = (
(195,2065,l),
(195,1999,l),
(2525,1999,l),
(2525,2065,l)
);
},
{
closed = 1;
nodes = (
(667,1489,l),
(667,1425,l),
(2046,1425,l),
(2046,1489,l)
);
},
{
closed = 1;
nodes = (
(667,876,l),
(667,809,l),
(2046,809,l),
(2046,876,l)
);
},
{
closed = 1;
nodes = (
(179,173,l),
(755,208,o),
(1682,269,o),
(2543,328,c),
(2546,385,l),
(1654,325,o),
(710,269,o),
(164,243,c)
);
},
{
closed = 1;
nodes = (
(643,2040,l),
(643,240,l),
(706,240,l),
(706,2040,l)
);
},
{
closed = 1;
nodes = (
(2013,2046,l),
(2013,-157,l),
(2077,-157,l),
(2077,2046,l)
);
}
);
width = 2716;
}
);
note = cid32368;
unicode = (12159,32819);
}
{
color = 0;
glyphname = uni2F81;
layers = (
{
layerId = "CD0E3B44-F66A-4791-B84C-A1128DC61275";
shapes = (
{
closed = 1;
nodes = (
(1303,2301,l),
(1265,1734,o),
(1171,1303,o),
(578,1087,c),
(619,1054,o),
(674,986,o),
(695,942,c),
(1340,1186,o),
(1463,1663,o),
(1509,2301,c)
);
},
{
closed = 1;
nodes = (
(1228,1490,l),
(1491,1343,o),
(1824,1117,o),
(1988,975,c),
(2119,1129,l),
(1949,1269,o),
(1611,1479,o),
(1354,1623,c)
);
},
{
closed = 1;
nodes = (
(1285,1134,l),
(1220,805,o),
(1064,471,o),
(565,302,c),
(608,269,o),
(660,202,o),
(683,157,c),
(1223,357,o),
(1407,729,o),
(1487,1134,c)
);
},
{
closed = 1;
nodes = (
(1247,717,l),
(1492,550,o),
(1804,308,o),
(1958,154,c),
(2101,298,l),
(1942,448,o),
(1625,680,o),
(1383,842,c)
);
},
{
closed = 1;
nodes = (
(263,1906,l),
(263,-185,l),
(458,-185,l),
(458,1716,l),
(2338,1716,l),
(2338,1906,l)
);
},
{
closed = 1;
nodes = (
(2259,1906,l),
(2259,71,ls),
(2259,22,o),
(2245,9,o),
(2197,6,cs),
(2147,3,o),
(1977,3,o),
(1795,12,c),
(1822,-47,o),
(1851,-136,o),
(1859,-190,c),
(2088,-190,o),
(2248,-188,o),
(2336,-154,cs),
(2425,-122,o),
(2453,-57,o),
(2453,66,cs),
(2453,1906,l)
);
}
);
width = 2716;
},
{
layerId = "5C20EF92-B63D-42A8-8878-93C2863E0093";
shapes = (
{
closed = 1;
nodes = (
(1164,2346,l),
(1148,1774,o),
(1140,1365,o),
(606,1127,c),
(690,1059,o),
(799,917,o),
(838,824,c),
(1492,1129,o),
(1557,1644,o),
(1585,2346,c)
);
},
{
closed = 1;
nodes = (
(1202,1310,l),
(1411,1182,o),
(1694,979,o),
(1819,840,c),
(2088,1148,l),
(1949,1278,o),
(1656,1462,o),
(1457,1578,c)
);
},
{
closed = 1;
nodes = (
(1182,1033,l),
(1134,781,o),
(1056,511,o),
(610,338,c),
(698,269,o),
(800,131,o),
(846,35,c),
(1380,281,o),
(1523,643,o),
(1590,1033,c)
);
},
{
closed = 1;
nodes = (
(1223,523,l),
(1397,385,o),
(1646,178,o),
(1755,41,c),
(2061,327,l),
(1934,458,o),
(1678,649,o),
(1508,771,c)
);
},
{
closed = 1;
nodes = (
(204,1978,l),
(204,-226,l),
(605,-226,l),
(605,1591,l),
(2258,1591,l),
(2258,1978,l)
);
},
{
closed = 1;
nodes = (
(2113,1978,l),
(2113,206,ls),
(2113,162,o),
(2097,152,o),
(2058,149,cs),
(2022,147,o),
(1883,151,o),
(1777,160,c),
(1826,52,o),
(1882,-128,o),
(1891,-233,c),
(2097,-233,o),
(2248,-228,o),
(2358,-163,cs),
(2475,-99,o),
(2506,10,o),
(2506,191,cs),
(2506,1978,l)
);
}
);
width = 2716;
},
{
layerId = "B1F27B51-9973-4381-9301-4FE46FE1CA59";
shapes = (
{
closed = 1;
nodes = (
(1393,2272,l),
(1340,1708,o),
(1192,1264,o),
(560,1062,c),
(573,1051,o),
(593,1030,o),
(602,1018,c),
(1242,1224,o),
(1402,1675,o),
(1460,2272,c)
);
},
{
closed = 1;
nodes = (
(1245,1605,l),
(1543,1447,o),
(1908,1206,o),
(2099,1063,c),
(2139,1117,l),
(1949,1262,o),
(1582,1489,o),
(1286,1652,c)
);
},
{
closed = 1;
nodes = (
(1353,1200,l),
(1274,820,o),
(1071,446,o),
(536,280,c),
(549,269,o),
(570,248,o),
(578,237,c),
(1123,406,o),
(1332,783,o),
(1419,1200,c)
);
},
{
closed = 1;
nodes = (
(1262,842,l),
(1553,657,o),
(1906,391,o),
(2088,227,c),
(2126,281,l),
(1947,442,o),
(1589,701,o),
(1301,888,c)
);
},
{
closed = 1;
nodes = (
(301,1860,l),
(301,-160,l),
(363,-160,l),
(363,1798,l),
(2391,1798,l),
(2391,1860,l)
);
},
{
closed = 1;
nodes = (
(2355,1860,l),
(2355,-17,ls),
(2355,-68,o),
(2342,-84,o),
(2287,-87,cs),
(2228,-90,o),
(2038,-93,o),
(1808,-85,c),
(1819,-111,o),
(1830,-141,o),
(1838,-162,c),
(2081,-162,o),
(2248,-163,o),
(2322,-148,cs),
(2393,-137,o),
(2417,-100,o),
(2417,-16,cs),
(2417,1860,l)
);
}
);
width = 2716;
}
);
note = cid32540;
unicode = (12161,32905);
}
{
color = 0;
glyphname = uni2F82;
layers = (
{
layerId = "CD0E3B44-F66A-4791-B84C-A1128DC61275";
shapes = (
{
closed = 1;
nodes = (
(1283,2073,l),
(1283,1446,l),
(1483,1446,l),
(1483,2073,l)
);
},
{
closed = 1;
nodes = (
(1283,702,l),
(1283,45,l),
(1483,45,l),
(1483,702,l)
);
},
{
closed = 1;
nodes = (
(470,1519,l),
(470,1332,l),
(2133,1332,l),
(2133,515,l),
(2335,515,l),
(2335,1519,l)
);
},
{
closed = 1;
nodes = (
(467,808,l),
(467,621,l),
(2211,621,l),
(2211,808,l)
);
},
{
closed = 1;
nodes = (
(473,143,l),
(473,-51,l),
(2528,-51,l),
(2528,143,l)
);
},
{
closed = 1;
nodes = (
(345,2152,l),
(345,-180,l),
(548,-180,l),
(548,1962,l),
(2461,1962,l),
(2461,2152,l)
);
}
);
width = 2716;
},
{
layerId = "5C20EF92-B63D-42A8-8878-93C2863E0093";
shapes = (
{
closed = 1;
nodes = (
(1184,2042,l),
(1184,1432,l),
(1595,1432,l),
(1595,2042,l)
);
},
{
closed = 1;
nodes = (
(1184,670,l),
(1184,62,l),
(1595,62,l),
(1595,670,l)
);
},
{
closed = 1;
nodes = (
(549,1559,l),
(549,1178,l),
(1968,1178,l),
(1968,462,l),
(2383,462,l),
(2383,1559,l)
);
},
{
closed = 1;
nodes = (
(531,912,l),
(531,536,l),
(2116,536,l),
(2116,912,l)
);
},
{
closed = 1;
nodes = (
(552,265,l),
(552,-127,l),
(2582,-127,l),
(2582,265,l)
);
},
{
closed = 1;
nodes = (
(286,2192,l),
(286,-229,l),
(706,-229,l),
(706,1804,l),
(2501,1804,l),
(2501,2192,l)
);
}
);
width = 2716;
},
{
layerId = "B1F27B51-9973-4381-9301-4FE46FE1CA59";
shapes = (
{
closed = 1;
nodes = (
(1347,2094,l),
(1347,1454,l),
(1411,1454,l),
(1411,2094,l)
);
},
{
closed = 1;
nodes = (
(1347,723,l),
(1347,35,l),
(1411,35,l),
(1411,723,l)
);
},
{
closed = 1;
nodes = (
(417,1494,l),
(417,1430,l),
(2240,1430,l),
(2240,551,l),
(2304,551,l),
(2304,1494,l)
);
},
{
closed = 1;
nodes = (
(427,741,l),
(427,675,l),
(2272,675,l),
(2272,741,l)
);
},
{
closed = 1;
nodes = (
(420,63,l),
(420,-2,l),
(2493,-2,l),
(2493,63,l)
);
},
{
closed = 1;
nodes = (
(383,2127,l),
(383,-148,l),
(445,-148,l),
(445,2064,l),
(2436,2064,l),
(2436,2127,l)
);
}
);
width = 2716;
}
);
note = cid33273;
unicode = (12162,33251);
}
{
color = 0;
glyphname = uni2F92;
layers = (
{
layerId = "CD0E3B44-F66A-4791-B84C-A1128DC61275";
shapes = (
{
closed = 1;
nodes = (
(695,1587,l),
(2020,1587,l),
(2020,1299,l),
(695,1299,l)
);
},
{
closed = 1;
nodes = (
(695,1132,l),
(2020,1132,l),
(2020,842,l),
(695,842,l)
);
},
{
closed = 1;
nodes = (
(695,2038,l),
(2020,2038,l),
(2020,1752,l),
(695,1752,l)
);
},
{
closed = 1;
nodes = (
(504,2213,l),
(504,667,l),
(2218,667,l),
(2218,2213,l)
);
},
{
closed = 1;
nodes = (
(1534,794,l),
(1534,114,ls),
(1534,-104,o),
(1602,-164,o),
(1858,-164,cs),
(1909,-164,o),
(2246,-164,o),
(2303,-164,cs),
(2531,-164,o),
(2587,-66,o),
(2610,328,c),
(2555,341,o),
(2471,374,o),
(2430,408,c),
(2417,71,o),
(2400,22,o),
(2288,22,cs),
(2211,22,o),
(1933,22,o),
(1875,22,cs),
(1758,22,o),
(1733,38,o),
(1733,114,cs),
(1733,794,l)
);
},
{
closed = 1;
nodes = (
(883,738,l),
(836,343,o),
(706,107,o),
(108,-15,c),
(149,-57,o),
(204,-138,o),
(219,-187,c),
(872,-36,o),
(1034,258,o),
(1092,738,c)
);
}
);
width = 2716;
},
{
layerId = "5C20EF92-B63D-42A8-8878-93C2863E0093";
shapes = (
{
closed = 1;
nodes = (
(841,1511,l),
(1877,1511,l),
(1877,1406,l),
(841,1406,l)
);
},
{
closed = 1;
nodes = (
(841,1082,l),
(1877,1082,l),
(1877,982,l),
(841,982,l)
);
},
{
closed = 1;
nodes = (
(841,1930,l),
(1877,1930,l),
(1877,1823,l),
(841,1823,l)
);
},
{
closed = 1;
nodes = (
(459,2275,l),
(459,641,l),
(2282,641,l),
(2282,2275,l)
);
},
{
closed = 1;
nodes = (
(1454,912,l),
(1454,272,ls),
(1454,-87,o),
(1540,-206,o),
(1908,-206,cs),
(1973,-206,o),
(2143,-206,o),
(2218,-206,cs),
(2513,-206,o),
(2613,-88,o),
(2655,365,c),
(2546,390,o),
(2373,460,o),
(2295,520,c),
(2279,213,o),
(2265,165,o),
(2182,165,cs),
(2128,165,o),
(2004,165,o),
(1965,165,cs),
(1880,165,o),
(1857,180,o),
(1857,272,cs),
(1857,912,l)
);
},
{
closed = 1;
nodes = (
(785,766,l),
(757,422,o),
(715,228,o),
(63,112,c),
(149,23,o),
(254,-138,o),
(281,-246,c),
(1063,-67,o),
(1169,268,o),
(1208,766,c)
);
}
);
width = 2716;
},
{
layerId = "B1F27B51-9973-4381-9301-4FE46FE1CA59";
shapes = (
{
closed = 1;
nodes = (
(599,1636,l),
(2113,1636,l),
(2113,1230,l),
(599,1230,l)
);
},
{
closed = 1;
nodes = (
(599,1164,l),
(2113,1164,l),
(2113,752,l),
(599,752,l)
);
},
{
closed = 1;
nodes = (
(599,2108,l),
(2113,2108,l),
(2113,1706,l),
(599,1706,l)
);
},
{
closed = 1;
nodes = (
(533,2173,l),
(533,684,l),
(2178,684,l),
(2178,2173,l)
);
},
{
closed = 1;
nodes = (
(1586,718,l),
(1586,12,ls),
(1586,-114,o),
(1642,-137,o),
(1826,-137,cs),
(1868,-137,o),
(2314,-137,o),
(2358,-137,cs),
(2543,-137,o),
(2570,-52,o),
(2581,304,c),
(2561,309,o),
(2536,320,o),
(2517,336,c),
(2506,-21,o),
(2487,-71,o),
(2357,-71,cs),
(2263,-71,o),
(1887,-71,o),
(1817,-71,cs),
(1678,-71,o),
(1651,-54,o),
(1651,12,cs),
(1651,718,l)
);
},
{
closed = 1;
nodes = (
(948,720,l),
(889,290,o),
(699,29,o),
(137,-97,c),
(149,-109,o),
(173,-138,o),
(180,-150,c),
(747,-16,o),
(947,252,o),
(1017,720,c)
);
}
);
width = 2716;
}
);
note = cid37348;
unicode = (12178,35211,64010);
}
{
color = 0;
glyphname = uni2F93;
layers = (
{
layerId = "CD0E3B44-F66A-4791-B84C-A1128DC61275";
shapes = (
{
closed = 1;
nodes = (
(629,1687,l),
(629,1512,l),
(2273,1512,l),
(2273,1687,l)
);
},
{
closed = 1;
nodes = (
(629,1144,l),
(629,973,l),
(2242,973,l),
(2242,1144,l)
);
},
{
closed = 1;
nodes = (
(580,588,l),
(580,416,l),
(2250,416,l),
(2250,588,l)
);
},
{
closed = 1;
nodes = (
(520,1687,l),
(520,1010,ls),
(520,665,o),
(476,243,o),
(92,-58,c),
(130,-87,o),
(201,-157,o),
(229,-198,c),
(643,125,o),
(713,626,o),
(713,1008,cs),
(713,1687,l)
);
},
{
closed = 1;
nodes = (
(2168,1687,l),
(2168,68,ls),
(2168,16,o),
(2153,0,o),
(2093,-2,cs),
(2030,-5,o),
(1820,-5,o),
(1598,0,c),
(1627,-52,o),
(1663,-137,o),
(1673,-190,c),
(1950,-190,o),
(2127,-188,o),
(2228,-156,cs),
(2327,-125,o),
(2362,-64,o),
(2362,65,cs),
(2362,1687,l)
);
},
{
closed = 1;
nodes = (
(1322,1614,l),
(1322,500,l),
(1510,500,l),
(1510,1614,l)
);
},
{
closed = 1;
nodes = (
(892,2148,l),
(892,1983,l),
(1748,1983,l),
(1748,2148,l)
);
},
{
closed = 1;
nodes = (
(921,2317,l),
(784,2043,o),
(521,1705,o),
(154,1456,c),
(201,1427,o),
(263,1365,o),
(295,1318,c),
(683,1598,o),
(955,1957,o),
(1133,2278,c)
);
},
{
closed = 1;
nodes = (
(1681,2148,l),
(1681,2112,l),
(1620,1970,o),
(1490,1762,o),
(1378,1637,c),
(1420,1617,o),
(1480,1578,o),
(1517,1546,c),
(1643,1678,o),
(1797,1891,o),
(1889,2073,c),
(1757,2158,l),
(1725,2148,l)
);
}
);
width = 2716;
},
{
layerId = "5C20EF92-B63D-42A8-8878-93C2863E0093";
shapes = (
{
closed = 1;
nodes = (
(714,1727,l),
(714,1385,l),
(2255,1385,l),
(2255,1727,l)
);
},
{
closed = 1;
nodes = (
(714,1201,l),
(714,870,l),
(2192,870,l),
(2192,1201,l)
);
},
{
closed = 1;
nodes = (
(675,690,l),
(675,352,l),
(2200,352,l),
(2200,690,l)
);
},
{
closed = 1;
nodes = (
(480,1727,l),
(480,1005,ls),
(480,684,o),
(450,297,o),
(56,37,c),
(135,-20,o),
(280,-166,o),
(340,-248,c),
(787,53,o),
(869,595,o),
(869,1001,cs),
(869,1727,l)
);
},
{
closed = 1;
nodes = (
(2048,1727,l),
(2048,206,ls),
(2048,154,o),
(2028,140,o),
(1968,137,cs),
(1903,138,o),
(1673,138,o),
(1499,144,c),
(1555,46,o),
(1626,-123,o),
(1647,-233,c),
(1918,-233,o),
(2110,-228,o),
(2252,-170,cs),
(2391,-107,o),
(2438,-5,o),
(2438,195,cs),
(2438,1727,l)
);
},
{
closed = 1;
nodes = (
(1250,1582,l),
(1250,509,l),
(1631,509,l),
(1631,1582,l)
);
},
{
closed = 1;
nodes = (
(865,2207,l),
(865,1888,l),
(1685,1888,l),
(1685,2207,l)
);
},
{
closed = 1;
nodes = (
(782,2369,l),
(664,2097,o),
(442,1799,o),
(100,1577,c),
(192,1517,o),
(323,1384,o),
(381,1288,c),
(769,1576,o),
(1017,1917,o),
(1205,2292,c)
);
},
{
closed = 1;
nodes = (
(1542,2207,l),
(1542,2133,l),
(1495,2008,o),
(1370,1781,o),
(1261,1637,c),
(1344,1593,o),
(1462,1516,o),
(1536,1452,c),
(1679,1607,o),
(1859,1860,o),
(1972,2047,c),
(1695,2225,l),
(1635,2207,l)
);
}
);
width = 2716;
},
{
layerId = "B1F27B51-9973-4381-9301-4FE46FE1CA59";
shapes = (
{
closed = 1;
nodes = (
(575,1662,l),
(575,1594,l),
(2286,1594,l),
(2286,1662,l)
);
},
{
closed = 1;
nodes = (
(575,1107,l),
(575,1041,l),
(2273,1041,l),
(2273,1107,l)
);
},
{
closed = 1;
nodes = (
(519,522,l),
(519,456,l),
(2282,456,l),
(2282,522,l)
);
},
{
closed = 1;
nodes = (
(546,1662,l),
(546,1013,ls),
(546,653,o),
(493,208,o),
(114,-119,c),
(128,-130,o),
(148,-151,o),
(157,-167,c),
(550,172,o),
(612,646,o),
(612,1014,cs),
(612,1662,l)
);
},
{
closed = 1;
nodes = (
(2246,1662,l),
(2246,-21,ls),
(2246,-73,o),
(2234,-90,o),
(2174,-92,cs),
(2112,-98,o),
(1915,-98,o),
(1662,-92,c),
(1673,-117,o),
(1687,-144,o),
(1690,-162,c),
(1972,-162,o),
(2138,-163,o),
(2213,-148,cs),
(2287,-137,o),
(2312,-102,o),
(2312,-18,cs),
(2312,1662,l)
);
},
{
closed = 1;
nodes = (
(1369,1635,l),
(1369,493,l),
(1433,493,l),
(1433,1635,l)
);
},
{
closed = 1;
nodes = (
(908,2111,l),
(908,2044,l),
(1789,2044,l),
(1789,2111,l)
);
},
{
closed = 1;
nodes = (
(1011,2282,l),
(862,2008,o),
(574,1644,o),
(189,1378,c),
(207,1369,o),
(226,1353,o),
(241,1339,c),
(629,1612,o),
(916,1982,o),
(1086,2269,c)
);
},
{
closed = 1;
nodes = (
(1771,2111,l),
(1771,2098,l),
(1702,1947,o),
(1568,1750,o),
(1454,1637,c),
(1470,1632,o),
(1493,1618,o),
(1505,1607,c),
(1621,1724,o),
(1758,1912,o),
(1837,2090,c),
(1796,2115,l),
(1783,2111,l)
);
}
);
width = 2716;
}
);
note = cid37448;
unicode = (12179,35282);
}
{
color = 0;
glyphname = uni2F98;
layers = (
{
layerId = "CD0E3B44-F66A-4791-B84C-A1128DC61275";
shapes = (
{
closed = 1;
nodes = (
(1236,1295,l),
(1803,909,o),
(1871,238,o),
(1654,62,cs),
(1598,8,o),
(1538,5,o),
(1458,5,cs),
(1397,5,o),
(1313,11,o),
(1228,18,c),
(1265,-41,o),
(1281,-125,o),
(1283,-180,c),
(1362,-185,o),
(1441,-188,o),
(1500,-188,cs),
(1624,-185,o),
(1710,-167,o),
(1802,-89,cs),
(2106,145,o),
(2037,970,o),
(1386,1394,c)
);
},
{
closed = 1;
nodes = (
(1565,1127,l),
(1310,936,o),
(820,737,o),
(445,644,c),
(487,606,o),
(548,533,o),
(576,486,c),
(945,596,o),
(1443,816,o),
(1725,1038,c)
);
},
{
closed = 1;
nodes = (
(1741,809,l),
(1429,526,o),
(831,235,o),
(365,99,c),
(409,58,o),
(470,-18,o),
(498,-62,c),
(955,92,o),
(1554,401,o),
(1896,718,c)
);
},
{
closed = 1;
nodes = (
(623,1718,l),
(730,1609,o),
(846,1456,o),
(897,1355,c),
(1070,1439,l),
(1017,1540,o),
(896,1690,o),
(785,1794,c)
);
},
{
closed = 1;
nodes = (
(1225,1857,l),
(1308,1758,o),
(1390,1621,o),
(1418,1530,c),
(1593,1612,l),
(1559,1703,o),
(1475,1837,o),
(1391,1927,c)
);
},
{
closed = 1;
nodes = (
(2115,1824,l),
(1721,1528,o),
(1006,1279,o),
(385,1148,c),
(428,1101,o),
(472,1031,o),
(495,986,c),
(1126,1130,o),
(1838,1392,o),
(2274,1712,c)
);
},
{
closed = 1;
nodes = (
(1868,2309,l),
(1505,2173,o),
(830,2059,o),
(348,2021,c),
(395,1968,o),
(439,1889,o),
(465,1843,c),
(966,1894,o),
(1621,2013,o),
(2050,2171,c)
);
}
);
width = 2716;
},
{
layerId = "5C20EF92-B63D-42A8-8878-93C2863E0093";
shapes = (
{
closed = 1;
nodes = (
(1105,1243,l),
(1727,859,o),
(1729,351,o),
(1592,229,cs),
(1558,178,o),
(1510,170,o),
(1449,170,cs),
(1380,170,o),
(1296,178,o),
(1207,183,c),
(1283,62,o),
(1307,-107,o),
(1314,-220,c),
(1390,-226,o),
(1469,-228,o),
(1531,-228,cs),
(1683,-221,o),
(1790,-188,o),
(1900,-92,cs),
(2208,145,o),
(2226,961,o),
(1421,1439,c)
);
},
{
closed = 1;
nodes = (
(1534,1196,l),
(1293,1026,o),
(830,851,o),
(445,751,c),
(527,677,o),
(646,533,o),
(706,441,c),
(1085,564,o),
(1552,794,o),
(1846,1019,c)
);
},
{
closed = 1;
nodes = (
(1709,885,l),
(1410,621,o),
(831,346,o),
(341,206,c),
(426,126,o),
(549,-27,o),
(607,-115,c),
(1090,57,o),
(1657,374,o),
(2017,710,c)
);
},
{
closed = 1;
nodes = (
(592,1673,l),
(667,1578,o),
(756,1442,o),
(796,1360,c),
(1146,1515,l),
(1107,1602,o),
(1008,1730,o),
(920,1815,c)
);
},
{
closed = 1;
nodes = (
(1207,1807,l),
(1268,1732,o),
(1328,1621,o),
(1346,1552,c),
(1696,1714,l),
(1666,1783,o),
(1599,1887,o),
(1543,1948,c)
);
},
{
closed = 1;
nodes = (
(2035,1850,l),
(1649,1568,o),
(913,1350,o),
(326,1238,c),
(411,1141,o),
(495,1000,o),
(540,909,c),
(1157,1050,o),
(1866,1288,o),
(2364,1627,c)
);
},
{
closed = 1;
nodes = (
(1722,2359,l),
(1406,2244,o),
(708,2116,o),
(277,2093,c),
(373,1987,o),
(456,1840,o),
(505,1748,c),
(984,1797,o),
(1626,1918,o),
(2095,2076,c)
);
}
);
width = 2716;
},
{
layerId = "B1F27B51-9973-4381-9301-4FE46FE1CA59";
shapes = (
{
closed = 1;
nodes = (
(1319,1330,l),
(1853,941,o),
(1963,164,o),
(1693,-46,cs),
(1624,-103,o),
(1555,-102,o),
(1464,-102,cs),
(1407,-102,o),
(1323,-97,o),
(1242,-89,c),
(1253,-108,o),
(1264,-137,o),
(1263,-154,c),
(1344,-160,o),
(1423,-163,o),
(1479,-163,cs),
(1586,-163,o),
(1658,-152,o),
(1737,-87,cs),
(2039,145,o),
(1915,976,o),
(1363,1365,c)
);
},
{
closed = 1;
nodes = (
(1585,1083,l),
(1320,878,o),
(814,664,o),
(445,576,c),
(461,560,o),
(483,533,o),
(492,515,c),
(855,617,o),
(1373,830,o),
(1647,1050,c)
);
},
{
closed = 1;
nodes = (
(1763,760,l),
(1441,465,o),
(831,163,o),
(380,30,c),
(398,13,o),
(417,-12,o),
(428,-28,c),
(868,115,o),
(1488,418,o),
(1818,723,c)
);
},
{
closed = 1;
nodes = (
(643,1747,l),
(771,1630,o),
(904,1465,o),
(964,1352,c),
(1020,1390,l),
(959,1500,o),
(824,1664,o),
(698,1780,c)
);
},
{
closed = 1;
nodes = (
(1238,1888,l),
(1333,1775,o),
(1430,1621,o),
(1463,1516,c),
(1525,1545,l),
(1491,1650,o),
(1393,1805,o),
(1294,1913,c)
);
},
{
closed = 1;
nodes = (
(2168,1807,l),
(1768,1502,o),
(1066,1233,o),
(423,1090,c),
(438,1076,o),
(457,1051,o),
(466,1036,c),
(1105,1183,o),
(1820,1459,o),
(2216,1767,c)
);
},
{
closed = 1;
nodes = (
(1964,2278,l),
(1569,2127,o),
(909,2022,o),
(394,1974,c),
(409,1956,o),
(428,1921,o),
(440,1903,c),
(953,1957,o),
(1618,2074,o),
(2021,2232,c)
);
}
);
width = 2716;
}
);
note = cid38698;
unicode = (12184,35960);
}
{
color = 0;
glyphname = uni2FA6;
layers = (
{
layerId = "CD0E3B44-F66A-4791-B84C-A1128DC61275";
shapes = (
{
closed = 1;
nodes = (
(1600,1783,o),
(2074,1408,o),
(2493,1192,c),
(2526,1248,o),
(2575,1319,o),
(2622,1366,c),
(2197,1555,o),
(1725,1922,o),
(1435,2312,c),
(1238,2312,l),
(1025,1972,o),
(573,1570,o),
(103,1333,c),
(147,1291,o),
(200,1221,o),
(226,1177,c),
(683,1419,o),
(1121,1798,o),
(1346,2121,c)
);
},
{
closed = 1;
nodes = (
(677,1480,l),
(677,1304,l),
(2036,1304,l),
(2036,1480,l)
);
},
{
closed = 1;
nodes = (
(323,935,l),
(323,763,l),
(2392,763,l),
(2392,935,l)
);
},
{
closed = 1;
nodes = (
(198,75,l),
(198,-97,l),
(2520,-97,l),
(2520,75,l)
);
},
{
closed = 1;
nodes = (
(1243,1412,l),
(1243,-14,l),
(1448,-14,l),
(1448,1412,l)
);
},
{
closed = 1;
nodes = (
(551,621,l),
(660,466,o),
(770,256,o),
(802,120,c),
(971,193,l),
(937,328,o),
(821,535,o),
(711,684,c)
);
},
{
closed = 1;
nodes = (
(1975,690,l),
(1905,538,o),
(1779,319,o),
(1681,183,c),
(1827,120,l),
(1930,246,o),
(2056,445,o),
(2161,617,c)
);
}
);
width = 2716;
},
{
layerId = "5C20EF92-B63D-42A8-8878-93C2863E0093";
shapes = (
{
closed = 1;
nodes = (
(1574,1667,o),
(2017,1300,o),
(2426,1080,c),
(2498,1203,o),
(2592,1343,o),
(2689,1443,c),
(2256,1608,o),
(1838,1941,o),
(1538,2362,c),
(1126,2362,l),
(926,2044,o),
(497,1633,o),
(32,1409,c),
(120,1329,o),
(231,1176,o),
(283,1087,c),
(718,1316,o),
(1121,1665,o),
(1346,1978,c)
);
},
{
closed = 1;
nodes = (
(663,1542,l),
(663,1201,l),
(2032,1201,l),
(2032,1542,l)
);
},
{
closed = 1;
nodes = (
(354,985,l),
(354,649,l),
(2333,649,l),
(2333,985,l)
);
},
{
closed = 1;
nodes = (
(205,178,l),
(205,-161,l),
(2506,-161,l),
(2506,178,l)
);
},
{
closed = 1;
nodes = (
(1127,1404,l),
(1127,18,l),
(1551,18,l),
(1551,1404,l)
);
},
{
closed = 1;
nodes = (
(488,568,l),
(580,426,o),
(684,238,o),
(712,120,c),
(1057,270,l),
(1016,390,o),
(907,567,o),
(809,698,c)
);
},
{
closed = 1;
nodes = (
(1849,690,l),
(1792,552,o),
(1694,364,o),
(1610,237,c),
(1903,120,l),
(1997,224,o),
(2109,391,o),
(2228,555,c)
);
}
);
width = 2716;
},
{
layerId = "B1F27B51-9973-4381-9301-4FE46FE1CA59";
shapes = (
{
closed = 1;
nodes = (
(1617,1858,o),
(2111,1478,o),
(2536,1264,c),
(2543,1277,o),
(2565,1304,o),
(2579,1316,c),
(2159,1519,o),
(1652,1910,o),
(1368,2280,c),
(1310,2280,l),
(1089,1925,o),
(623,1529,o),
(149,1284,c),
(165,1268,o),
(179,1250,o),
(188,1235,c),
(660,1486,o),
(1121,1884,o),
(1346,2214,c)
);
},
{
closed = 1;
nodes = (
(685,1440,l),
(685,1372,l),
(2039,1372,l),
(2039,1440,l)
);
},
{
closed = 1;
nodes = (
(301,903,l),
(301,836,l),
(2429,836,l),
(2429,903,l)
);
},
{
closed = 1;
nodes = (
(192,9,l),
(192,-57,l),
(2528,-57,l),
(2528,9,l)
);
},
{
closed = 1;
nodes = (
(1318,1419,l),
(1318,-35,l),
(1382,-35,l),
(1382,1419,l)
);
},
{
closed = 1;
nodes = (
(592,657,l),
(713,492,o),
(824,268,o),
(860,120,c),
(917,143,l),
(884,289,o),
(767,513,o),
(646,675,c)
);
},
{
closed = 1;
nodes = (
(2058,690,l),
(1978,529,o),
(1834,290,o),
(1727,148,c),
(1778,120,l),
(1887,260,o),
(2020,480,o),
(2118,657,c)
);
}
);
width = 2716;
}
);
note = cid41227;
unicode = (12198,37329,63754);
}
{
color = 0;
glyphname = uni2FAD;
layers = (
{
layerId = "CD0E3B44-F66A-4791-B84C-A1128DC61275";
shapes = (
{
closed = 1;
nodes = (
(518,1108,l),
(518,-185,l),
(716,-185,l),
(716,945,l),
(2108,945,l),
(2108,1108,l)
);
},
{
closed = 1;
nodes = (
(2031,1108,l),
(2031,43,ls),
(2031,6,o),
(2020,-5,o),
(1974,-5,cs),
(1928,-8,o),
(1770,-11,o),
(1602,-5,c),
(1628,-58,o),
(1658,-134,o),
(1665,-185,c),
(1882,-185,o),
(2030,-188,o),
(2118,-156,cs),
(2205,-127,o),
(2231,-72,o),
(2231,44,cs),
(2231,1108,l)
);
},
{
closed = 1;
nodes = (
(643,590,l),
(643,428,l),
(2093,428,l),
(2093,590,l)
);
},
{
closed = 1;
nodes = (
(151,1446,l),
(151,1286,l),
(2570,1286,l),
(2570,1446,l)
);
},
{
closed = 1;
nodes = (
(309,2117,l),
(309,1965,l),
(2423,1965,l),
(2423,2117,l)
);
},
{
closed = 1;
nodes = (
(414,1791,l),
(414,1643,l),
(2306,1643,l),
(2306,1791,l)
);
},
{
closed = 1;
nodes = (
(1251,2312,l),
(1251,1353,l),
(1448,1353,l),
(1448,2312,l)
);
},
{
closed = 1;
nodes = (
(1253,1050,l),
(1253,507,l),
(1446,507,l),
(1446,1050,l)
);
}
);
width = 2716;
},
{
layerId = "5C20EF92-B63D-42A8-8878-93C2863E0093";
shapes = (
{
closed = 1;
nodes = (
(455,1122,l),
(455,-221,l),
(863,-221,l),
(863,810,l),
(2055,810,l),
(2055,1122,l)
);
},
{
closed = 1;
nodes = (
(1892,1122,l),
(1892,174,ls),
(1892,136,o),
(1877,125,o),
(1828,130,cs),
(1779,127,o),
(1587,124,o),
(1459,130,c),
(1508,32,o),
(1565,-121,o),
(1575,-226,c),
(1810,-226,o),
(1994,-228,o),
(2127,-175,cs),
(2258,-118,o),
(2303,-22,o),
(2303,169,cs),
(2303,1122,l)
);
},
{
closed = 1;
nodes = (
(723,643,l),
(723,333,l),
(1981,333,l),
(1981,643,l)
);
},
{
closed = 1;
nodes = (
(111,1499,l),
(111,1200,l),
(2612,1200,l),
(2612,1499,l)
);
},
{
closed = 1;
nodes = (
(246,2203,l),
(246,1925,l),
(2454,1925,l),
(2454,2203,l)
);
},
{
closed = 1;
nodes = (
(374,1844,l),
(374,1574,l),
(2347,1574,l),
(2347,1844,l)
);
},
{
closed = 1;
nodes = (
(1142,2357,l),
(1142,1334,l),
(1546,1334,l),
(1546,2357,l)
);
},
{
closed = 1;
nodes = (
(1149,1010,l),
(1149,480,l),
(1538,480,l),
(1538,1010,l)
);
}
);
width = 2716;
},
{
layerId = "B1F27B51-9973-4381-9301-4FE46FE1CA59";
shapes = (
{
closed = 1;
nodes = (
(559,1099,l),
(559,-163,l),
(621,-163,l),
(621,1033,l),
(2144,1033,l),
(2144,1099,l)
);
},
{
closed = 1;
nodes = (
(2121,1099,l),
(2121,-40,ls),
(2121,-77,o),
(2113,-89,o),
(2070,-92,cs),
(2024,-95,o),
(1888,-98,o),
(1695,-92,c),
(1706,-116,o),
(1718,-141,o),
(1723,-160,c),
(1928,-160,o),
(2052,-163,o),
(2111,-144,cs),
(2170,-134,o),
(2185,-104,o),
(2185,-37,cs),
(2185,1099,l)
);
},
{
closed = 1;
nodes = (
(591,555,l),
(591,489,l),
(2165,489,l),
(2165,555,l)
);
},
{
closed = 1;
nodes = (
(176,1410,l),
(176,1340,l),
(2543,1340,l),
(2543,1410,l)
);
},
{
closed = 1;
nodes = (
(350,2063,l),
(350,1991,l),
(2403,1991,l),
(2403,2063,l)
);
},
{
closed = 1;
nodes = (
(440,1755,l),
(440,1687,l),
(2281,1687,l),
(2281,1755,l)
);
},
{
closed = 1;
nodes = (
(1320,2283,l),
(1320,1365,l),
(1386,1365,l),
(1386,2283,l)
);
},
{
closed = 1;
nodes = (
(1320,1076,l),
(1320,523,l),
(1386,523,l),
(1386,1076,l)
);
}
);
width = 2716;
}
);
note = cid43649;
unicode = (12205,38737);
}
{
color = 0;
glyphname = uni2FB1;
layers = (
{
layerId = "CD0E3B44-F66A-4791-B84C-A1128DC61275";
shapes = (
{
closed = 1;
nodes = (
(479,2107,l),
(479,1949,l),
(1978,1949,l),
(1978,1620,l),
(2171,1620,l),
(2171,2107,l)
);
},
{
closed = 1;
nodes = (
(171,1702,l),
(171,1539,l),
(2550,1539,l),
(2550,1702,l)
);
},
{
closed = 1;
nodes = (
(147,270,l),
(147,104,l),
(2572,104,l),
(2572,270,l)
);
},
{
closed = 1;
nodes = (
(712,1248,l),
(2046,1248,l),
(2046,978,l),
(712,978,l)
);
},
{
closed = 1;
nodes = (
(523,1393,l),
(523,836,l),
(2245,836,l),
(2245,1393,l)
);
},
{
closed = 1;
nodes = (
(473,672,l),
(473,176,l),
(668,176,l),
(668,515,l),
(2346,515,l),
(2346,672,l)
);
},
{
closed = 1;
nodes = (
(1481,869,l),
(1481,-188,l),
(1680,-188,l),
(1680,869,l)
);
},
{
closed = 1;
nodes = (
(1121,2309,l),
(1074,2098,o),
(998,1813,o),
(936,1637,c),
(1148,1637,l),
(1199,1801,o),
(1272,2074,o),
(1321,2286,c)
);
}
);
width = 2716;
},
{
layerId = "5C20EF92-B63D-42A8-8878-93C2863E0093";
shapes = (
{
closed = 1;
nodes = (
(462,2187,l),
(462,1892,l),
(1869,1892,l),
(1869,1651,l),
(2266,1651,l),
(2266,2187,l)
);
},
{
closed = 1;
nodes = (
(130,1797,l),
(130,1485,l),
(2590,1485,l),
(2590,1797,l)
);
},
{
closed = 1;
nodes = (
(115,324,l),
(115,10,l),
(2612,10,l),
(2612,324,l)
);
},
{
closed = 1;
nodes = (
(860,1151,l),
(1894,1151,l),
(1894,1047,l),
(860,1047,l)
);
},
{
closed = 1;
nodes = (
(478,1411,l),
(478,791,l),
(2304,791,l),
(2304,1411,l)
);
},
{
closed = 1;
nodes = (
(406,707,l),
(406,138,l),
(803,138,l),
(803,414,l),
(2409,414,l),
(2409,707,l)
);
},
{
closed = 1;
nodes = (
(1355,861,l),
(1355,-226,l),
(1767,-226,l),
(1767,861,l)
);
},
{
closed = 1;
nodes = (
(1058,2350,l),
(1021,2138,o),
(949,1866,o),
(886,1699,c),
(1317,1699,l),
(1364,1851,o),
(1429,2102,o),
(1473,2305,c)
);
}
);
width = 2716;
},
{
layerId = "B1F27B51-9973-4381-9301-4FE46FE1CA59";
shapes = (
{
closed = 1;
nodes = (
(489,2054,l),
(489,1987,l),
(2048,1987,l),
(2048,1600,l),
(2110,1600,l),
(2110,2054,l)
);
},
{
closed = 1;
nodes = (
(196,1641,l),
(196,1574,l),
(2525,1574,l),
(2525,1641,l)
);
},
{
closed = 1;
nodes = (
(169,235,l),
(169,165,l),
(2546,165,l),
(2546,235,l)
);
},
{
closed = 1;
nodes = (
(615,1311,l),
(2143,1311,l),
(2143,934,l),
(615,934,l)
);
},
{
closed = 1;
nodes = (
(552,1380,l),
(552,865,l),
(2208,865,l),
(2208,1380,l)
);
},
{
closed = 1;
nodes = (
(516,649,l),
(516,199,l),
(580,199,l),
(580,582,l),
(2305,582,l),
(2305,649,l)
);
},
{
closed = 1;
nodes = (
(1564,876,l),
(1564,-165,l),
(1625,-165,l),
(1625,876,l)
);
},
{
closed = 1;
nodes = (
(1162,2284,l),
(1110,2072,o),
(1030,1777,o),
(968,1598,c),
(1037,1598,l),
(1092,1769,o),
(1172,2056,o),
(1223,2274,c)
);
}
);
width = 2716;
}
);
note = cid43863;
unicode = (12209,38859);
}
{
color = 0;
glyphname = uni2FB6;
layers = (
{
layerId = "CD0E3B44-F66A-4791-B84C-A1128DC61275";
shapes = (
{
closed = 1;
nodes = (
(1172,1902,l),
(1172,-159,l),
(1359,-159,l),
(1359,1902,l)
);
},
{
closed = 1;
nodes = (
(293,2170,l),
(293,1992,l),
(1877,1992,l),
(1877,2170,l)
);
},
{
closed = 1;
nodes = (
(131,1149,l),
(131,972,l),
(1900,972,l),
(1900,1149,l)
);
},
{
closed = 1;
nodes = (
(530,1627,l),
(530,1130,ls),
(530,742,o),
(489,292,o),
(92,-58,c),
(139,-87,o),
(209,-146,o),
(241,-188,c),
(668,196,o),
(714,692,o),
(714,1127,cs),
(714,1627,l)
);
},
{
closed = 1;
nodes = (
(2353,2237,l),
(2302,2148,o),
(2200,2011,o),
(2126,1927,c),
(2246,1856,l),
(2325,1930,o),
(2429,2042,o),
(2520,2148,c)
);
},
{
closed = 1;
nodes = (
(1936,1806,l),
(2108,1723,o),
(2324,1590,o),
(2427,1496,c),
(2544,1624,l),
(2437,1713,o),
(2217,1838,o),
(2048,1917,c)
);
},
{
closed = 1;
nodes = (
(2367,1017,l),
(2310,928,o),
(2203,790,o),
(2123,708,c),
(2243,637,l),
(2328,711,o),
(2435,823,o),
(2534,930,c)
);
},
{
closed = 1;
nodes = (
(1939,589,l),
(2121,504,o),
(2342,369,o),
(2456,271,c),
(2571,400,l),
(2455,492,o),
(2231,618,o),
(2051,700,c)
);
},
{
closed = 1;
nodes = (
(826,1888,l),
(657,1739,o),
(357,1610,o),
(94,1530,c),
(131,1495,o),
(188,1416,o),
(212,1378,c),
(483,1478,o),
(801,1640,o),
(994,1820,c)
);
},
{
closed = 1;
nodes = (
(1755,2170,l),
(1795,1627,o),
(1899,1129,o),
(2370,1076,cs),
(2500,1054,o),
(2570,1138,o),
(2601,1360,c),
(2561,1383,o),
(2514,1424,o),
(2477,1464,c),
(2467,1321,o),
(2444,1244,o),
(2409,1250,cs),
(2072,1275,o),
(1962,1702,o),
(1935,2170,c)
);
},
{
closed = 1;
nodes = (
(1781,1149,l),
(1806,470,o),
(1872,-129,o),
(2385,-185,c),
(2529,-212,o),
(2597,-111,o),
(2626,165,c),
(2589,185,o),
(2540,232,o),
(2502,274,c),
(2489,92,o),
(2465,-14,o),
(2426,-8,cs),
(2054,22,o),
(1977,548,o),
(1967,1149,c)
);
}
);
width = 2716;
},
{
layerId = "5C20EF92-B63D-42A8-8878-93C2863E0093";
shapes = (
{
closed = 1;
nodes = (
(1063,1816,l),
(1063,-182,l),
(1445,-182,l),
(1445,1816,l)
);
},
{
closed = 1;
nodes = (
(239,2241,l),
(239,1888,l),
(1850,1888,l),
(1850,2241,l)
);
},
{
closed = 1;
nodes = (
(110,1211,l),
(110,858,l),
(1910,858,l),
(1910,1211,l)
);
},
{
closed = 1;
nodes = (
(454,1560,l),
(454,1063,ls),
(454,733,o),
(407,332,o),
(44,44,c),
(134,-16,o),
(280,-141,o),
(344,-226,c),
(775,134,o),
(826,640,o),
(826,1056,cs),
(826,1560,l)
);
},
{
closed = 1;
nodes = (
(2303,2299,l),
(2261,2220,o),
(2183,2106,o),
(2123,2029,c),
(2360,1905,l),
(2434,1961,o),
(2532,2047,o),
(2645,2140,c)
);
},
{
closed = 1;
nodes = (
(1856,1874,l),
(2025,1776,o),
(2265,1621,o),
(2368,1519,c),
(2602,1754,l),
(2486,1851,o),
(2239,1992,o),
(2070,2079,c)
);
},
{
closed = 1;
nodes = (
(2308,1070,l),
(2262,995,o),
(2186,880,o),
(2119,807,c),
(2357,682,l),
(2437,737,o),
(2529,823,o),
(2651,917,c)
);
},
{
closed = 1;
nodes = (
(1863,651,l),
(2049,553,o),
(2292,400,o),
(2411,295,c),
(2637,535,l),
(2509,631,o),
(2263,770,o),
(2078,856,c)
);
},
{
closed = 1;
nodes = (
(728,1892,l),
(578,1770,o),
(304,1672,o),
(44,1620,c),
(113,1548,o),
(224,1394,o),
(271,1316,c),
(554,1411,o),
(867,1568,o),
(1062,1758,c)
);
},
{
closed = 1;
nodes = (
(1603,2241,l),
(1642,1699,o),
(1734,1155,o),
(2302,1080,cs),
(2492,1046,o),
(2619,1131,o),
(2672,1381,c),
(2602,1433,o),
(2514,1527,o),
(2453,1603,c),
(2440,1491,o),
(2417,1420,o),
(2388,1425,cs),
(2077,1445,o),
(1976,1860,o),
(1958,2241,c)
);
},
{
closed = 1;
nodes = (
(1651,1211,l),
(1675,529,o),
(1720,-148,o),
(2287,-226,c),
(2489,-266,o),
(2618,-159,o),
(2666,130,c),
(2603,177,o),
(2513,285,o),
(2449,369,c),
(2437,235,o),
(2412,124,o),
(2377,132,cs),
(2076,157,o),
(2018,718,o),
(2020,1211,c)
);
}
);
width = 2716;
},
{
layerId = "B1F27B51-9973-4381-9301-4FE46FE1CA59";
shapes = (
{
closed = 1;
nodes = (
(1241,1956,l),
(1241,-144,l),
(1305,-144,l),
(1305,1956,l)
);
},
{
closed = 1;
nodes = (
(328,2124,l),
(328,2059,l),
(1895,2059,l),
(1895,2124,l)
);
},
{
closed = 1;
nodes = (
(145,1109,l),
(145,1045,l),
(1894,1045,l),
(1894,1109,l)
);
},
{
closed = 1;
nodes = (
(579,1670,l),
(579,1173,ls),
(579,748,o),
(542,267,o),
(123,-124,c),
(142,-133,o),
(163,-149,o),
(173,-165,c),
(600,236,o),
(642,727,o),
(642,1173,cs),
(642,1670,l)
);
},
{
closed = 1;
nodes = (
(2385,2198,l),
(2327,2101,o),
(2211,1950,o),
(2128,1860,c),
(2173,1824,l),
(2256,1909,o),
(2362,2039,o),
(2438,2155,c)
);
},
{
closed = 1;
nodes = (
(1988,1762,l),
(2160,1687,o),
(2362,1570,o),
(2465,1481,c),
(2507,1541,l),
(2405,1624,o),
(2203,1739,o),
(2034,1812,c)
);
},
{
closed = 1;
nodes = (
(2405,981,l),
(2341,885,o),
(2213,732,o),
(2126,643,c),
(2170,608,l),
(2258,694,o),
(2374,823,o),
(2458,938,c)
);
},
{
closed = 1;
nodes = (
(1988,550,l),
(2167,472,o),
(2374,348,o),
(2485,256,c),
(2528,313,l),
(2420,402,o),
(2210,521,o),
(2034,599,c)
);
},
{
closed = 1;
nodes = (
(891,1885,l),
(710,1719,o),
(393,1571,o),
(126,1472,c),
(143,1459,o),
(166,1430,o),
(174,1417,c),
(437,1521,o),
(758,1687,o),
(950,1859,c)
);
},
{
closed = 1;
nodes = (
(1853,2124,l),
(1894,1580,o),
(2006,1112,o),
(2414,1073,cs),
(2507,1061,o),
(2538,1144,o),
(2555,1346,c),
(2536,1351,o),
(2514,1358,o),
(2492,1374,c),
(2483,1211,o),
(2462,1132,o),
(2423,1138,cs),
(2069,1165,o),
(1954,1600,o),
(1920,2124,c)
);
},
{
closed = 1;
nodes = (
(1865,1109,l),
(1889,433,o),
(1970,-117,o),
(2450,-160,c),
(2555,-177,o),
(2583,-80,o),
(2601,188,c),
(2581,192,o),
(2557,196,o),
(2538,213,c),
(2524,0,o),
(2499,-103,o),
(2458,-98,cs),
(2040,-65,o),
(1952,437,o),
(1931,1109,c)
);
}
);
width = 2716;
}
);
note = cid44298;
unicode = (12214,39131);
}
{
color = 0;
glyphname = uni2FBC;
layers = (
{
layerId = "CD0E3B44-F66A-4791-B84C-A1128DC61275";
shapes = (
{
closed = 1;
nodes = (
(177,2050,l),
(177,1876,l),
(2535,1876,l),
(2535,2050,l)
);
},
{
closed = 1;
nodes = (
(1243,2312,l),
(1243,1966,l),
(1444,1966,l),
(1444,2312,l)
);
},
{
closed = 1;
nodes = (
(301,989,l),
(301,-185,l),
(490,-185,l),
(490,823,l),
(2319,823,l),
(2319,989,l)
);
},
{
closed = 1;
nodes = (
(2239,989,l),
(2239,56,ls),
(2239,16,o),
(2228,6,o),
(2178,3,cs),
(2134,0,o),
(1978,0,o),
(1798,6,c),
(1824,-49,o),
(1853,-125,o),
(1861,-180,c),
(2089,-180,o),
(2235,-180,o),
(2324,-149,cs),
(2409,-117,o),
(2434,-59,o),
(2434,53,cs),
(2434,989,l)
);
},
{
closed = 1;
nodes = (
(842,643,l),
(842,-70,l),
(1014,-70,l),
(1014,643,l)
);
},
{
closed = 1;
nodes = (
(934,643,l),
(934,497,l),
(1701,497,l),
(1701,214,l),
(934,214,l),
(934,70,l),
(1876,70,l),
(1876,643,l)
);
},
{
closed = 1;
nodes = (
(816,1576,l),
(1895,1576,l),
(1895,1309,l),
(816,1309,l)
);
},
{
closed = 1;
nodes = (
(628,1722,l),
(628,1162,l),
(2090,1162,l),
(2090,1722,l)
);
}
);
width = 2716;
},
{
layerId = "5C20EF92-B63D-42A8-8878-93C2863E0093";
shapes = (
{
closed = 1;
nodes = (
(154,2148,l),
(154,1808,l),
(2554,1808,l),
(2554,2148,l)
);
},
{
closed = 1;
nodes = (
(1132,2362,l),
(1132,1976,l),
(1542,1976,l),
(1542,2362,l)
);
},
{
closed = 1;
nodes = (
(261,1030,l),
(261,-230,l),
(647,-230,l),
(647,706,l),
(2225,706,l),
(2225,1030,l)
);
},
{
closed = 1;
nodes = (
(2082,1030,l),
(2082,180,ls),
(2082,151,o),
(2071,146,o),
(2032,143,cs),
(1999,144,o),
(1865,144,o),
(1779,149,c),
(1829,45,o),
(1884,-111,o),
(1898,-225,c),
(2075,-225,o),
(2216,-220,o),
(2333,-157,cs),
(2450,-103,o),
(2483,-2,o),
(2483,174,cs),
(2483,1030,l)
);
},
{
closed = 1;
nodes = (
(833,612,l),
(833,-137,l),
(1171,-137,l),
(1171,612,l)
);
},
{
closed = 1;
nodes = (
(996,612,l),
(996,349,l),
(1531,349,l),
(1531,240,l),
(996,240,l),
(996,-20,l),
(1876,-20,l),
(1876,612,l)
);
},
{
closed = 1;
nodes = (
(972,1473,l),
(1712,1473,l),
(1712,1373,l),
(972,1373,l)
);
},
{
closed = 1;
nodes = (
(597,1731,l),
(597,1109,l),
(2108,1109,l),
(2108,1731,l)
);
}
);
width = 2716;
},
{
layerId = "B1F27B51-9973-4381-9301-4FE46FE1CA59";
shapes = (
{
closed = 1;
nodes = (
(192,1985,l),
(192,1920,l),
(2523,1920,l),
(2523,1985,l)
);
},
{
closed = 1;
nodes = (
(1315,2280,l),
(1315,1960,l),
(1379,1960,l),
(1379,2280,l)
);
},
{
closed = 1;
nodes = (
(326,964,l),
(326,-156,l),
(390,-156,l),
(390,898,l),
(2380,898,l),
(2380,964,l)
);
},
{
closed = 1;
nodes = (
(2339,964,l),
(2339,-26,ls),
(2339,-71,o),
(2328,-84,o),
(2273,-87,cs),
(2221,-92,o),
(2051,-92,o),
(1810,-87,c),
(1822,-110,o),
(1833,-134,o),
(1838,-151,c),
(2097,-151,o),
(2247,-154,o),
(2318,-142,cs),
(2384,-125,o),
(2402,-96,o),
(2402,-25,cs),
(2402,964,l)
);
},
{
closed = 1;
nodes = (
(848,663,l),
(848,-27,l),
(914,-27,l),
(914,663,l)
);
},
{
closed = 1;
nodes = (
(894,663,l),
(894,594,l),
(1811,594,l),
(1811,197,l),
(894,197,l),
(894,128,l),
(1876,128,l),
(1876,663,l)
);
},
{
closed = 1;
nodes = (
(715,1644,l),
(2013,1644,l),
(2013,1269,l),
(715,1269,l)
);
},
{
closed = 1;
nodes = (
(649,1715,l),
(649,1197,l),
(2078,1197,l),
(2078,1715,l)
);
}
);
width = 2716;
}
);
note = cid45269;
unicode = (12220,39640);
}
{
color = 0;
glyphname = uni2FBD;
layers = (
{
layerId = "CD0E3B44-F66A-4791-B84C-A1128DC61275";
shapes = (
{
closed = 1;
nodes = (
(118,966,l),
(118,791,l),
(1577,791,l),
(1577,966,l)
);
},
{
closed = 1;
nodes = (
(461,1780,l),
(461,1630,l),
(1457,1630,l),
(1457,1780,l)
);
},
{
closed = 1;
nodes = (
(461,1377,l),
(461,1227,l),
(1457,1227,l),
(1457,1377,l)
);
},
{
closed = 1;
nodes = (
(385,2195,l),
(385,900,l),
(571,900,l),
(571,2030,l),
(1503,2030,l),
(1503,2195,l)
);
},
{
closed = 1;
nodes = (
(535,919,l),
(491,669,o),
(404,304,o),
(325,88,c),
(498,48,l),
(579,263,o),
(679,606,o),
(751,884,c)
);
},
{
closed = 1;
nodes = (
(1064,619,l),
(1223,403,o),
(1392,112,o),
(1461,-67,c),
(1632,17,l),
(1559,198,o),
(1382,480,o),
(1223,687,c)
);
},
{
closed = 1;
nodes = (
(143,-67,l),
(486,-21,o),
(978,52,o),
(1444,123,c),
(1435,299,l),
(949,232,o),
(438,164,o),
(113,126,c)
);
},
{
closed = 1;
nodes = (
(2283,2258,l),
(2127,2046,o),
(1847,1817,o),
(1610,1686,c),
(1659,1650,o),
(1717,1590,o),
(1754,1548,c),
(2005,1700,o),
(2283,1942,o),
(2468,2185,c)
);
},
{
closed = 1;
nodes = (
(2371,1508,l),
(2199,1280,o),
(1888,1043,o),
(1624,907,c),
(1676,871,o),
(1731,808,o),
(1764,766,c),
(2042,924,o),
(2356,1176,o),
(2554,1433,c)
);
},
{
closed = 1;
nodes = (
(2448,725,l),
(2257,416,o),
(1897,129,o),
(1533,-32,c),
(1584,-73,o),
(1645,-140,o),
(1676,-188,c),
(2055,-2,o),
(2418,305,o),
(2635,649,c)
);
}
);
width = 2716;
},
{
layerId = "5C20EF92-B63D-42A8-8878-93C2863E0093";
shapes = (
{
closed = 1;
nodes = (
(97,1061,l),
(97,719,l),
(1591,719,l),
(1591,1061,l)
);
},
{
closed = 1;
nodes = (
(457,1833,l),
(457,1558,l),
(1474,1558,l),
(1474,1833,l)
);
},
{
closed = 1;
nodes = (
(457,1453,l),
(457,1177,l),
(1474,1177,l),
(1474,1453,l)
);
},
{
closed = 1;
nodes = (
(308,2248,l),
(308,938,l),
(683,938,l),
(683,1933,l),
(1520,1933,l),
(1520,2248,l)
);
},
{
closed = 1;
nodes = (
(464,973,l),
(428,709,o),
(356,366,o),
(273,142,c),
(619,74,l),
(704,284,o),
(818,606,o),
(908,915,c)
);
},
{
closed = 1;
nodes = (
(992,571,l),
(1128,341,o),
(1276,41,o),
(1326,-147,c),
(1680,17,l),
(1613,212,o),
(1453,494,o),
(1318,705,c)
);
},
{
closed = 1;
nodes = (
(139,-143,l),
(490,-92,o),
(970,-20,o),
(1408,61,c),
(1390,411,l),
(923,343,o),
(411,278,o),
(78,242,c)
);
},
{
closed = 1;
nodes = (
(2158,2308,l),
(2026,2096,o),
(1764,1874,o),
(1541,1748,c),
(1641,1677,o),
(1762,1555,o),
(1831,1472,c),
(2091,1641,o),
(2345,1883,o),
(2539,2163,c)
);
},
{
closed = 1;
nodes = (
(2209,1543,l),
(2069,1320,o),
(1790,1102,o),
(1557,978,c),
(1659,903,o),
(1771,776,o),
(1836,695,c),
(2106,865,o),
(2388,1112,o),
(2585,1393,c)
);
},
{
closed = 1;
nodes = (
(2275,796,l),
(2110,495,o),
(1799,240,o),
(1493,93,c),
(1601,7,o),
(1725,-131,o),
(1785,-238,c),
(2131,-25,o),
(2444,273,o),
(2662,644,c)
);
}
);
width = 2716;
},
{
layerId = "B1F27B51-9973-4381-9301-4FE46FE1CA59";
shapes = (
{
closed = 1;
nodes = (
(132,905,l),
(132,837,l),
(1568,837,l),
(1568,905,l)
);
},
{
closed = 1;
nodes = (
(464,1744,l),
(464,1676,l),
(1447,1676,l),
(1447,1744,l)
);
},
{
closed = 1;
nodes = (
(464,1327,l),
(464,1258,l),
(1447,1258,l),
(1447,1327,l)
);
},
{
closed = 1;
nodes = (
(436,2159,l),
(436,877,l),
(499,877,l),
(499,2093,l),
(1493,2093,l),
(1493,2159,l)
);
},
{
closed = 1;
nodes = (
(581,883,l),
(532,643,o),
(435,265,o),
(360,53,c),
(420,31,l),
(498,249,o),
(589,606,o),
(651,864,c)
);
},
{
closed = 1;
nodes = (
(1111,650,l),
(1283,442,o),
(1467,158,o),
(1548,-15,c),
(1601,17,l),
(1523,190,o),
(1336,472,o),
(1163,674,c)
);
},
{
closed = 1;
nodes = (
(146,-17,l),
(483,25,o),
(983,99,o),
(1466,163,c),
(1464,227,l),
(966,160,o),
(456,91,o),
(136,51,c)
);
},
{
closed = 1;
nodes = (
(2364,2226,l),
(2194,2014,o),
(1899,1780,o),
(1654,1647,c),
(1672,1633,o),
(1688,1613,o),
(1703,1598,c),
(1951,1738,o),
(2243,1979,o),
(2422,2199,c)
);
},
{
closed = 1;
nodes = (
(2476,1485,l),
(2283,1255,o),
(1953,1005,o),
(1667,861,c),
(1687,850,o),
(1705,829,o),
(1718,812,c),
(2002,961,o),
(2334,1216,o),
(2533,1458,c)
);
},
{
closed = 1;
nodes = (
(2560,679,l),
(2352,363,o),
(1959,57,o),
(1558,-113,c),
(1574,-125,o),
(1593,-147,o),
(1607,-156,c),
(2005,13,o),
(2401,327,o),
(2618,652,c)
);
}
);
width = 2716;
}
);
note = cid45281;
unicode = (12221,39647);
}
{
color = 0;
glyphname = uni2FBF;
layers = (
{
layerId = "CD0E3B44-F66A-4791-B84C-A1128DC61275";
shapes = (
{
closed = 1;
nodes = (
(2175,776,l),
(1811,647,o),
(1139,548,o),
(568,487,c),
(592,446,o),
(615,375,o),
(621,326,c),
(1203,384,o),
(1892,483,o),
(2323,625,c)
);
},
{
closed = 1;
nodes = (
(461,863,l),
(461,178,ls),
(461,-75,o),
(590,-133,o),
(1018,-133,cs),
(1115,-133,o),
(1918,-133,o),
(2020,-133,cs),
(2382,-133,o),
(2464,-47,o),
(2507,313,c),
(2444,324,o),
(2361,350,o),
(2308,384,c),
(2285,97,o),
(2246,44,o),
(2015,44,cs),
(1833,44,o),
(1143,44,o),
(1009,44,cs),
(721,44,o),
(669,70,o),
(669,180,cs),
(669,863,l)
);
},
{
closed = 1;
nodes = (
(1784,2300,l),
(1522,1897,o),
(1078,1534,o),
(637,1315,c),
(673,1286,o),
(734,1225,o),
(760,1193,c),
(1195,1439,o),
(1647,1813,o),
(1934,2245,c)
);
},
{
closed = 1;
nodes = (
(694,2044,l),
(1136,1826,o),
(1661,1483,o),
(1915,1238,c),
(2023,1353,l),
(1762,1602,o),
(1231,1931,o),
(793,2143,c)
);
},
{
closed = 1;
nodes = (
(1076,2198,l),
(1202,2155,o),
(1350,2081,o),
(1427,2015,c),
(1510,2131,l),
(1433,2191,o),
(1286,2265,o),
(1163,2301,c)
);
},
{
closed = 1;
nodes = (
(1218,1367,l),
(1330,1297,o),
(1459,1187,o),
(1523,1108,c),
(1622,1205,l),
(1559,1282,o),
(1428,1385,o),
(1314,1453,c)
);
},
{
closed = 1;
nodes = (
(585,1750,l),
(699,1707,o),
(836,1634,o),
(907,1577,c),
(997,1687,l),
(927,1741,o),
(786,1813,o),
(674,1850,c)
);
},
{
closed = 1;
nodes = (
(1723,1806,l),
(1841,1752,o),
(1984,1661,o),
(2053,1596,c),
(2145,1701,l),
(2071,1767,o),
(1928,1851,o),
(1810,1903,c)
);
},
{
closed = 1;
nodes = (
(349,2239,l),
(349,932,l),
(2392,932,l),
(2392,2239,l),
(2188,2239,l),
(2188,1108,l),
(542,1108,l),
(542,2239,l)
);
}
);
width = 2716;
},
{
layerId = "5C20EF92-B63D-42A8-8878-93C2863E0093";
shapes = (
{
closed = 1;
nodes = (
(2113,797,l),
(1740,700,o),
(1156,638,o),
(618,603,c),
(663,522,o),
(710,375,o),
(719,276,c),
(1271,308,o),
(1915,372,o),
(2408,494,c)
);
},
{
closed = 1;
nodes = (
(393,827,l),
(393,281,ls),
(393,-89,o),
(566,-192,o),
(1148,-192,cs),
(1280,-192,o),
(1825,-192,o),
(1958,-192,cs),
(2423,-192,o),
(2557,-100,o),
(2628,304,c),
(2501,324,o),
(2330,373,o),
(2228,436,c),
(2195,199,o),
(2156,156,o),
(1935,156,cs),
(1771,156,o),
(1291,156,o),
(1161,156,cs),
(873,156,o),
(826,172,o),
(826,287,cs),
(826,827,l)
);
},
{
closed = 1;
nodes = (
(1641,2359,l),
(1432,1982,o),
(1083,1605,o),
(734,1378,c),
(803,1326,o),
(918,1220,o),
(972,1161,c),
(1307,1431,o),
(1678,1842,o),
(1920,2259,c)
);
},
{
closed = 1;
nodes = (
(725,2004,l),
(1115,1798,o),
(1598,1483,o),
(1830,1261,c),
(2028,1474,l),
(1785,1700,o),
(1284,1993,o),
(905,2188,c)
);
},
{
closed = 1;
nodes = (
(1059,2167,l),
(1152,2124,o),
(1268,2057,o),
(1334,2007,c),
(1487,2207,l),
(1425,2253,o),
(1310,2318,o),
(1215,2351,c)
);
},
{
closed = 1;
nodes = (
(1249,1346,l),
(1335,1284,o),
(1435,1192,o),
(1482,1126,c),
(1667,1300,l),
(1613,1362,o),
(1508,1449,o),
(1421,1501,c)
);
},
{
closed = 1;
nodes = (
(635,1723,l),
(730,1676,o),
(841,1594,o),
(898,1542,c),
(1069,1727,l),
(1013,1782,o),
(894,1853,o),
(799,1895,c)
);
},
{
closed = 1;
nodes = (
(1673,1811,l),
(1762,1761,o),
(1870,1674,o),
(1920,1618,c),
(2086,1810,l),
(2026,1859,o),
(1914,1936,o),
(1829,1988,c)
);
},
{
closed = 1;
nodes = (
(318,2265,l),
(318,870,l),
(2463,870,l),
(2463,2265,l),
(2045,2265,l),
(2045,1211,l),
(707,1211,l),
(707,2265,l)
);
}
);
width = 2716;
},
{
layerId = "B1F27B51-9973-4381-9301-4FE46FE1CA59";
shapes = (
{
closed = 1;
nodes = (
(2214,762,l),
(1857,613,o),
(1129,490,o),
(536,412,c),
(546,396,o),
(554,375,o),
(556,358,c),
(1159,433,o),
(1877,555,o),
(2269,708,c)
);
},
{
closed = 1;
nodes = (
(505,885,l),
(505,112,ls),
(505,-66,o),
(605,-95,o),
(935,-95,cs),
(1008,-95,o),
(1978,-95,o),
(2060,-95,cs),
(2357,-95,o),
(2404,-11,o),
(2429,319,c),
(2407,324,o),
(2381,335,o),
(2361,349,c),
(2343,30,o),
(2304,-28,o),
(2067,-28,cs),
(1872,-28,o),
(1046,-28,o),
(911,-28,cs),
(623,-28,o),
(569,3,o),
(569,112,cs),
(569,885,l)
);
},
{
closed = 1;
nodes = (
(1877,2263,l),
(1580,1843,o),
(1075,1488,o),
(574,1274,c),
(590,1260,o),
(615,1228,o),
(623,1214,c),
(1123,1446,o),
(1627,1796,o),
(1943,2236,c)
);
},
{
closed = 1;
nodes = (
(673,2069,l),
(1150,1843,o),
(1702,1483,o),
(1970,1223,c),
(2020,1275,l),
(1747,1537,o),
(1195,1891,o),
(721,2114,c)
);
},
{
closed = 1;
nodes = (
(1087,2218,l),
(1234,2175,o),
(1403,2096,o),
(1487,2022,c),
(1525,2082,l),
(1440,2152,o),
(1271,2231,o),
(1128,2269,c)
);
},
{
closed = 1;
nodes = (
(1197,1381,l),
(1328,1304,o),
(1474,1184,o),
(1548,1095,c),
(1593,1144,l),
(1523,1229,o),
(1375,1345,o),
(1246,1423,c)
);
},
{
closed = 1;
nodes = (
(553,1768,l),
(679,1727,o),
(833,1660,o),
(913,1600,c),
(950,1662,l),
(873,1716,o),
(716,1787,o),
(593,1821,c)
);
},
{
closed = 1;
nodes = (
(1755,1803,l),
(1894,1745,o),
(2057,1653,o),
(2138,1582,c),
(2183,1632,l),
(2100,1707,o),
(1937,1797,o),
(1798,1848,c)
);
},
{
closed = 1;
nodes = (
(369,2222,l),
(369,972,l),
(2346,972,l),
(2346,2222,l),
(2281,2222,l),
(2281,1040,l),
(435,1040,l),
(435,2222,l)
);
}
);
width = 2716;
}
);
note = cid45453;
unicode = (12223,39727);
}
{
color = 0;
glyphname = uni2FC0;
layers = (
{
layerId = "CD0E3B44-F66A-4791-B84C-A1128DC61275";
shapes = (
{
closed = 1;
nodes = (
(204,2164,l),
(204,1992,l),
(2517,1992,l),
(2517,2164,l)
);
},
{
closed = 1;
nodes = (
(794,408,l),
(794,263,l),
(1954,263,l),
(1954,408,l)
);
},
{
closed = 1;
nodes = (
(1268,348,l),
(1268,-161,l),
(1448,-161,l),
(1448,348,l)
);
},
{
closed = 1;
nodes = (
(298,1075,l),
(298,-188,l),
(485,-188,l),
(485,914,l),
(2348,914,l),
(2348,1075,l)
);
},
{
closed = 1;
nodes = (
(2249,1075,l),
(2249,24,ls),
(2249,-14,o),
(2239,-25,o),
(2195,-28,cs),
(2151,-31,o),
(2008,-31,o),
(1839,-25,c),
(1864,-76,o),
(1887,-140,o),
(1895,-190,c),
(2110,-190,o),
(2255,-190,o),
(2337,-162,cs),
(2418,-136,o),
(2441,-85,o),
(2441,24,cs),
(2441,1075,l)
);
},
{
closed = 1;
nodes = (
(1483,972,l),
(1483,713,ls),
(1483,556,o),
(1526,517,o),
(1721,517,cs),
(1760,517,o),
(1987,517,o),
(2028,517,cs),
(2156,517,o),
(2204,560,o),
(2219,715,c),
(2175,725,o),
(2111,747,o),
(2078,768,c),
(2072,670,o),
(2058,657,o),
(2003,657,cs),
(1956,657,o),
(1775,657,o),
(1739,657,cs),
(1664,657,o),
(1654,665,o),
(1654,713,cs),
(1654,972,l)
);
},
{
closed = 1;
nodes = (
(760,1670,l),
(1983,1670,l),
(1983,1399,l),
(760,1399,l)
);
},
{
closed = 1;
nodes = (
(572,1818,l),
(572,1255,l),
(2178,1255,l),
(2178,1818,l)
);
},
{
closed = 1;
nodes = (
(1017,987,l),
(998,719,o),
(894,618,o),
(494,564,c),
(525,532,o),
(567,469,o),
(580,431,c),
(1029,503,o),
(1160,651,o),
(1185,987,c)
);
}
);
width = 2716;
},
{
layerId = "5C20EF92-B63D-42A8-8878-93C2863E0093";
shapes = (
{
closed = 1;
nodes = (
(190,2226,l),
(190,1888,l),
(2527,1888,l),
(2527,2226,l)
);
},
{
closed = 1;
nodes = (
(832,401,l),
(832,138,l),
(1918,138,l),
(1918,401,l)
);
},
{
closed = 1;
nodes = (
(1189,277,l),
(1189,-201,l),
(1541,-201,l),
(1541,277,l)
);
},
{
closed = 1;
nodes = (
(258,1098,l),
(258,-228,l),
(637,-228,l),
(637,794,l),
(2277,794,l),
(2277,1098,l)
);
},
{
closed = 1;
nodes = (
(2084,1098,l),
(2084,114,ls),
(2084,81,o),
(2074,73,o),
(2037,71,cs),
(2012,72,o),
(1891,72,o),
(1813,78,c),
(1851,-12,o),
(1892,-136,o),
(1902,-233,c),
(2087,-233,o),
(2233,-230,o),
(2337,-185,cs),
(2444,-136,o),
(2477,-59,o),
(2477,109,cs),
(2477,1098,l)
);
},
{
closed = 1;
nodes = (
(1393,922,l),
(1393,753,ls),
(1393,511,o),
(1447,434,o),
(1717,434,cs),
(1769,434,o),
(1862,434,o),
(1916,434,cs),
(2085,434,o),
(2168,484,o),
(2196,635,c),
(2113,653,o),
(1991,694,o),
(1931,733,c),
(1926,701,o),
(1910,688,o),
(1873,688,cs),
(1853,688,o),
(1793,688,o),
(1770,688,cs),
(1726,688,o),
(1726,697,o),
(1726,753,cs),
(1726,922,l)
);
},
{
closed = 1;
nodes = (
(904,1535,l),
(1813,1535,l),
(1813,1439,l),
(904,1439,l)
);
},
{
closed = 1;
nodes = (
(522,1801,l),
(522,1179,l),
(2213,1179,l),
(2213,1801,l)
);
},
{
closed = 1;
nodes = (
(968,955,l),
(967,733,o),
(939,649,o),
(574,609,c),
(638,546,o),
(711,419,o),
(734,345,c),
(1209,423,o),
(1281,611,o),
(1283,955,c)
);
}
);
width = 2716;
},
{
layerId = "B1F27B51-9973-4381-9301-4FE46FE1CA59";
shapes = (
{
closed = 1;
nodes = (
(213,2125,l),
(213,2059,l),
(2511,2059,l),
(2511,2125,l)
);
},
{
closed = 1;
nodes = (
(771,414,l),
(771,344,l),
(1976,344,l),
(1976,414,l)
);
},
{
closed = 1;
nodes = (
(1321,394,l),
(1321,-136,l),
(1388,-136,l),
(1388,394,l)
);
},
{
closed = 1;
nodes = (
(323,1060,l),
(323,-163,l),
(387,-163,l),
(387,992,l),
(2394,992,l),
(2394,1060,l)
);
},
{
closed = 1;
nodes = (
(2356,1060,l),
(2356,-34,ls),
(2356,-75,o),
(2346,-90,o),
(2297,-92,cs),
(2241,-97,o),
(2084,-97,o),
(1856,-92,c),
(1871,-116,o),
(1884,-143,o),
(1889,-162,c),
(2125,-162,o),
(2269,-165,o),
(2337,-147,cs),
(2401,-136,o),
(2419,-102,o),
(2419,-31,cs),
(2419,1060,l)
);
},
{
closed = 1;
nodes = (
(1541,1003,l),
(1541,688,ls),
(1541,585,o),
(1579,569,o),
(1724,569,cs),
(1753,569,o),
(2068,569,o),
(2100,569,cs),
(2202,569,o),
(2227,610,o),
(2234,767,c),
(2214,772,o),
(2189,781,o),
(2173,791,c),
(2168,649,o),
(2154,636,o),
(2087,636,cs),
(2023,636,o),
(1763,636,o),
(1718,636,cs),
(1625,636,o),
(1607,643,o),
(1607,688,cs),
(1607,1003,l)
);
},
{
closed = 1;
nodes = (
(668,1757,l),
(2093,1757,l),
(2093,1374,l),
(668,1374,l)
);
},
{
closed = 1;
nodes = (
(604,1828,l),
(604,1304,l),
(2155,1304,l),
(2155,1828,l)
);
},
{
closed = 1;
nodes = (
(1049,1008,l),
(1018,711,o),
(865,598,o),
(442,535,c),
(452,523,o),
(474,501,o),
(482,485,c),
(914,555,o),
(1082,676,o),
(1122,1008,c)
);
}
);
width = 2716;
}
);
note = cid45459;
unicode = (12224,39730);
}
{
color = 0;
glyphname = uni2FC2;
layers = (
{
layerId = "CD0E3B44-F66A-4791-B84C-A1128DC61275";
shapes = (
{
closed = 1;
nodes = (
(643,1037,l),
(2103,1037,l),
(2103,711,l),
(643,711,l)
);
},
{
closed = 1;
nodes = (
(643,1519,l),
(2103,1519,l),
(2103,1197,l),
(643,1197,l)
);
},
{
closed = 1;
nodes = (
(453,1687,l),
(453,540,l),
(2298,540,l),
(2298,1687,l)
);
},
{
closed = 1;
nodes = (
(1258,1630,l),
(1258,622,l),
(1448,622,l),
(1448,1630,l)
);
},
{
closed = 1;
nodes = (
(919,2134,l),
(803,1969,l),
(1672,1969,l),
(1672,2134,l)
);
},
{
closed = 1;
nodes = (
(904,2320,l),
(759,2055,o),
(491,1725,o),
(122,1485,c),
(170,1453,o),
(234,1386,o),
(266,1340,c),
(654,1613,o),
(937,1964,o),
(1120,2276,c)
);
},
{
closed = 1;
nodes = (
(1612,2134,l),
(1612,2095,l),
(1554,1967,o),
(1429,1777,o),
(1316,1663,c),
(1366,1640,o),
(1433,1596,o),
(1475,1567,c),
(1594,1691,o),
(1739,1888,o),
(1823,2055,c),
(1685,2143,l),
(1657,2134,l)
);
},
{
closed = 1;
nodes = (
(942,364,l),
(978,193,o),
(999,-26,o),
(999,-158,c),
(1197,-132,l),
(1197,-5,o),
(1167,211,o),
(1130,380,c)
);
},
{
closed = 1;
nodes = (
(1489,358,l),
(1565,193,o),
(1643,-26,o),
(1673,-156,c),
(1864,-109,l),
(1832,24,o),
(1745,240,o),
(1666,398,c)
);
},
{
closed = 1;
nodes = (
(2022,376,l),
(2181,208,o),
(2357,-35,o),
(2431,-188,c),
(2618,-99,l),
(2540,58,o),
(2355,289,o),
(2197,454,c)
);
},
{
closed = 1;
nodes = (
(492,433,l),
(413,229,o),
(267,19,o),
(109,-92,c),
(282,-193,l),
(452,-59,o),
(593,164,o),
(680,381,c)
);
}
);
width = 2716;
},
{
layerId = "5C20EF92-B63D-42A8-8878-93C2863E0093";
shapes = (
{
closed = 1;
nodes = (
(787,994,l),
(1951,994,l),
(1951,865,l),
(787,865,l)
);
},
{
closed = 1;
nodes = (
(787,1416,l),
(1951,1416,l),
(1951,1291,l),
(787,1291,l)
);
},
{
closed = 1;
nodes = (
(400,1739,l),
(400,536,l),
(2351,536,l),
(2351,1739,l)
);
},
{
closed = 1;
nodes = (
(1163,1630,l),
(1163,702,l),
(1546,702,l),
(1546,1630,l)
);
},
{
closed = 1;
nodes = (
(972,2205,l),
(753,1893,l),
(1618,1893,l),
(1618,2205,l)
);
},
{
closed = 1;
nodes = (
(788,2377,l),
(648,2127,o),
(412,1846,o),
(63,1633,c),
(157,1570,o),
(284,1422,o),
(346,1326,c),
(734,1604,o),
(1013,1933,o),
(1223,2285,c)
);
},
{
closed = 1;
nodes = (
(1503,2205,l),
(1503,2130,l),
(1462,2021,o),
(1326,1817,o),
(1200,1694,c),
(1299,1645,o),
(1443,1551,o),
(1527,1491,c),
(1665,1641,o),
(1841,1874,o),
(1934,2047,c),
(1654,2218,l),
(1595,2205,l)
);
},
{
closed = 1;
nodes = (
(878,373,l),
(916,185,o),
(938,-49,o),
(938,-198,c),
(1332,-151,l),
(1332,-5,o),
(1298,230,o),
(1260,412,c)
);
},
{
closed = 1;
nodes = (
(1394,361,l),
(1462,185,o),
(1540,-49,o),
(1570,-183,c),
(1957,-92,l),
(1922,55,o),
(1830,281,o),
(1756,443,c)
);
},
{
closed = 1;
nodes = (
(1906,359,l),
(2046,180,o),
(2209,-76,o),
(2277,-233,c),
(2672,-54,l),
(2593,108,o),
(2408,343,o),
(2273,513,c)
);
},
{
closed = 1;
nodes = (
(402,483,l),
(323,286,o),
(177,81,o),
(42,-19,c),
(413,-233,l),
(574,-82,o),
(713,148,o),
(801,373,c)
);
}
);
width = 2716;
},
{
layerId = "B1F27B51-9973-4381-9301-4FE46FE1CA59";
shapes = (
{
closed = 1;
nodes = (
(550,1065,l),
(2200,1065,l),
(2200,613,l),
(550,613,l)
);
},
{
closed = 1;
nodes = (
(550,1587,l),
(2200,1587,l),
(2200,1136,l),
(550,1136,l)
);
},
{
closed = 1;
nodes = (
(488,1652,l),
(488,543,l),
(2262,543,l),
(2262,1652,l)
);
},
{
closed = 1;
nodes = (
(1319,1630,l),
(1319,569,l),
(1386,569,l),
(1386,1630,l)
);
},
{
closed = 1;
nodes = (
(883,2088,l),
(834,2019,l),
(1707,2019,l),
(1707,2088,l)
);
},
{
closed = 1;
nodes = (
(979,2282,l),
(832,2009,o),
(544,1648,o),
(159,1389,c),
(177,1378,o),
(203,1363,o),
(214,1348,c),
(602,1619,o),
(887,1985,o),
(1053,2269,c)
);
},
{
closed = 1;
nodes = (
(1681,2088,l),
(1681,2072,l),
(1614,1932,o),
(1496,1752,o),
(1391,1643,c),
(1409,1637,o),
(1427,1625,o),
(1440,1617,c),
(1548,1723,o),
(1673,1897,o),
(1750,2062,c),
(1705,2093,l),
(1696,2088,l)
);
},
{
closed = 1;
nodes = (
(983,358,l),
(1017,200,o),
(1039,-11,o),
(1039,-133,c),
(1110,-120,l),
(1110,-5,o),
(1084,199,o),
(1046,358,c)
);
},
{
closed = 1;
nodes = (
(1550,357,l),
(1632,200,o),
(1711,-11,o),
(1741,-138,c),
(1804,-120,l),
(1774,3,o),
(1690,215,o),
(1608,369,c)
);
},
{
closed = 1;
nodes = (
(2097,387,l),
(2268,225,o),
(2453,-10,o),
(2529,-159,c),
(2583,-128,l),
(2504,27,o),
(2319,253,o),
(2147,417,c)
);
},
{
closed = 1;
nodes = (
(550,402,l),
(472,192,o),
(325,-20,o),
(152,-138,c),
(199,-167,l),
(372,-44,o),
(515,175,o),
(602,387,c)
);
}
);
width = 2716;
}
);
note = cid45561;
unicode = (12226,39770);
}
{
color = 0;
glyphname = uni2FC6;
layers = (
{
layerId = "CD0E3B44-F66A-4791-B84C-A1128DC61275";
shapes = (
{
closed = 1;
nodes = (
(186,2047,l),
(186,1874,l),
(2532,1874,l),
(2532,2047,l)
);
},
{
closed = 1;
nodes = (
(1804,841,l),
(1804,812,l),
(1572,301,o),
(904,56,o),
(235,-27,c),
(267,-71,o),
(303,-147,o),
(320,-197,c),
(1027,-91,o),
(1718,178,o),
(2000,784,c),
(1880,850,l),
(1842,841,l)
);
},
{
closed = 1;
nodes = (
(1159,1043,l),
(998,844,o),
(696,620,o),
(297,462,c),
(341,435,o),
(398,376,o),
(425,334,c),
(840,514,o),
(1149,750,o),
(1362,999,c)
);
},
{
closed = 1;
nodes = (
(1052,841,l),
(900,689,l),
(1867,689,l),
(1867,841,l)
);
},
{
closed = 1;
nodes = (
(1255,2312,l),
(1255,1055,l),
(1446,1055,l),
(1446,2312,l)
);
},
{
closed = 1;
nodes = (
(1271,1616,l),
(1034,1255,o),
(561,938,o),
(92,802,c),
(131,765,o),
(181,697,o),
(207,650,c),
(686,810,o),
(1160,1153,o),
(1418,1558,c)
);
},
{
closed = 1;
nodes = (
(1286,1544,l),
(1555,1147,o),
(2043,797,o),
(2512,634,c),
(2541,678,o),
(2596,748,o),
(2634,786,c),
(2166,929,o),
(1681,1251,o),
(1435,1607,c)
);
},
{
closed = 1;
nodes = (
(684,1842,l),
(592,1587,o),
(399,1374,o),
(162,1241,c),
(204,1216,o),
(270,1156,o),
(298,1124,c),
(535,1280,o),
(748,1513,o),
(857,1805,c)
);
},
{
closed = 1;
nodes = (
(591,1512,l),
(698,1436,o),
(834,1332,o),
(900,1264,c),
(1010,1390,l),
(939,1454,o),
(802,1554,o),
(695,1618,c)
);
},
{
closed = 1;
nodes = (
(1982,1843,l),
(1917,1639,o),
(1783,1461,o),
(1616,1344,c),
(1656,1315,o),
(1724,1258,o),
(1753,1226,c),
(1918,1362,o),
(2071,1569,o),
(2152,1803,c)
);
},
{
closed = 1;
nodes = (
(1899,1520,l),
(2084,1403,o),
(2320,1228,o),
(2435,1119,c),
(2547,1247,l),
(2428,1354,o),
(2190,1518,o),
(2007,1630,c)
);
},
{
closed = 1;
nodes = (
(833,426,l),
(1290,254,o),
(1892,-16,o),
(2187,-190,c),
(2359,-52,l),
(2029,128,o),
(1431,384,o),
(989,543,c)
);
}
);
width = 2716;
},
{
layerId = "5C20EF92-B63D-42A8-8878-93C2863E0093";
shapes = (
{
closed = 1;
nodes = (
(155,2132,l),
(155,1792,l),
(2563,1792,l),
(2563,2132,l)
);
},
{
closed = 1;
nodes = (
(1714,855,l),
(1714,808,l),
(1510,373,o),
(908,177,o),
(190,113,c),
(254,24,o),
(320,-128,o),
(352,-227,c),
(1148,-122,o),
(1803,125,o),
(2102,744,c),
(1856,868,l),
(1789,855,l)
);
},
{
closed = 1;
nodes = (
(1123,1043,l),
(953,858,o),
(664,665,o),
(280,523,c),
(365,476,o),
(481,355,o),
(533,270,c),
(949,452,o),
(1258,674,o),
(1516,954,c)
);
},
{
closed = 1;
nodes = (
(1092,855,l),
(810,573,l),
(1840,573,l),
(1840,855,l)
);
},
{
closed = 1;
nodes = (
(1157,2357,l),
(1157,1038,l),
(1538,1038,l),
(1538,2357,l)
);
},
{
closed = 1;
nodes = (
(1181,1678,l),
(962,1334,o),
(530,1054,o),
(39,927,c),
(113,855,o),
(212,718,o),
(261,627,c),
(789,796,o),
(1208,1134,o),
(1472,1574,c)
);
},
{
closed = 1;
nodes = (
(1233,1563,l),
(1503,1128,o),
(1940,780,o),
(2440,603,c),
(2496,692,o),
(2605,834,o),
(2679,907,c),
(2187,1050,o),
(1749,1341,o),
(1525,1678,c)
);
},
{
closed = 1;
nodes = (
(541,1834,l),
(472,1627,o),
(320,1445,o),
(109,1339,c),
(186,1292,o),
(315,1180,o),
(369,1116,c),
(588,1261,o),
(774,1490,o),
(874,1765,c)
);
},
{
closed = 1;
nodes = (
(498,1458,l),
(595,1391,o),
(736,1301,o),
(799,1238,c),
(1001,1493,l),
(931,1549,o),
(788,1631,o),
(686,1680,c)
);
},
{
closed = 1;
nodes = (
(1910,1826,l),
(1855,1670,o),
(1738,1523,o),
(1598,1429,c),
(1670,1374,o),
(1795,1267,o),
(1856,1202,c),
(2003,1331,o),
(2153,1533,o),
(2237,1739,c)
);
},
{
closed = 1;
nodes = (
(1859,1467,l),
(2034,1365,o),
(2267,1214,o),
(2378,1114,c),
(2583,1368,l),
(2464,1456,o),
(2221,1598,o),
(2057,1689,c)
);
},
{
closed = 1;
nodes = (
(788,310,l),
(1228,166,o),
(1847,-77,o),
(2138,-238,c),
(2489,38,l),
(2140,194,o),
(1510,419,o),
(1105,543,c)
);
}
);
width = 2716;
},
{
layerId = "B1F27B51-9973-4381-9301-4FE46FE1CA59";
shapes = (
{
closed = 1;
nodes = (
(206,1993,l),
(206,1927,l),
(2512,1927,l),
(2512,1993,l)
);
},
{
closed = 1;
nodes = (
(1862,833,l),
(1862,815,l),
(1612,255,o),
(901,-22,o),
(264,-117,c),
(275,-132,o),
(293,-159,o),
(298,-176,c),
(949,-70,o),
(1663,214,o),
(1933,809,c),
(1895,838,l),
(1878,833,l)
);
},
{
closed = 1;
nodes = (
(1181,1043,l),
(1028,836,o),
(717,591,o),
(308,422,c),
(326,410,o),
(346,390,o),
(355,374,c),
(771,553,o),
(1080,800,o),
(1264,1028,c)
);
},
{
closed = 1;
nodes = (
(1027,833,l),
(958,764,l),
(1883,764,l),
(1883,833,l)
);
},
{
closed = 1;
nodes = (
(1320,2283,l),
(1320,1065,l),
(1386,1065,l),
(1386,2283,l)
);
},
{
closed = 1;
nodes = (
(1329,1576,l),
(1081,1202,o),
(581,863,o),
(127,720,c),
(143,707,o),
(160,683,o),
(172,665,c),
(619,819,o),
(1129,1165,o),
(1383,1547,c)
);
},
{
closed = 1;
nodes = (
(1322,1532,l),
(1590,1159,o),
(2110,808,o),
(2558,655,c),
(2570,670,o),
(2589,694,o),
(2605,708,c),
(2152,852,o),
(1637,1193,o),
(1377,1561,c)
);
},
{
closed = 1;
nodes = (
(777,1847,l),
(669,1561,o),
(452,1328,o),
(198,1176,c),
(217,1167,o),
(241,1141,o),
(252,1131,c),
(501,1292,o),
(731,1528,o),
(847,1830,c)
);
},
{
closed = 1;
nodes = (
(651,1547,l),
(766,1465,o),
(899,1352,o),
(967,1281,c),
(1016,1322,l),
(946,1393,o),
(810,1503,o),
(701,1579,c)
);
},
{
closed = 1;
nodes = (
(2029,1853,l),
(1957,1618,o),
(1812,1422,o),
(1628,1289,c),
(1647,1277,o),
(1678,1251,o),
(1686,1241,c),
(1864,1382,o),
(2018,1591,o),
(2097,1843,c)
);
},
{
closed = 1;
nodes = (
(1925,1556,l),
(2116,1426,o),
(2356,1237,o),
(2472,1122,c),
(2525,1169,l),
(2406,1288,o),
(2169,1466,o),
(1975,1592,c)
);
},
{
closed = 1;
nodes = (
(862,501,l),
(1329,312,o),
(1921,24,o),
(2219,-159,c),
(2275,-110,l),
(1957,85,o),
(1378,361,o),
(914,543,c)
);
}
);
width = 2716;
}
);
note = cid46900;
unicode = (12230,40613);
}
{
color = 0;
glyphname = uni2FCB;
layers = (
{
layerId = "CD0E3B44-F66A-4791-B84C-A1128DC61275";
shapes = (
{
closed = 1;
nodes = (
(144,1828,l),
(144,1654,l),
(2573,1654,l),
(2573,1828,l)
);
},
{
closed = 1;
nodes = (
(992,2309,l),
(992,1732,l),
(1175,1732,l),
(1175,2309,l)
);
},
{
closed = 1;
nodes = (
(1530,2309,l),
(1530,1732,l),
(1715,1732,l),
(1715,2309,l)
);
},
{
closed = 1;
nodes = (
(1253,1743,l),
(1253,-159,l),
(1444,-159,l),
(1444,1743,l)
);
},
{
closed = 1;
nodes = (
(1708,966,l),
(1708,181,l),
(1850,181,l),
(1850,966,l)
);
},
{
closed = 1;
nodes = (
(397,1269,l),
(397,-182,l),
(584,-182,l),
(584,1098,l),
(2199,1098,l),
(2199,1269,l)
);
},
{
closed = 1;
nodes = (
(2129,1269,l),
(2129,44,ls),
(2129,7,o),
(2118,-4,o),
(2074,-7,cs),
(2030,-10,o),
(1891,-10,o),
(1728,-4,c),
(1757,-54,o),
(1786,-130,o),
(1796,-180,c),
(1998,-180,o),
(2134,-180,o),
(2217,-151,cs),
(2294,-119,o),
(2318,-63,o),
(2318,43,cs),
(2318,1269,l)
);
},
{
closed = 1;
nodes = (
(411,2203,l),
(495,2088,o),
(592,1931,o),
(632,1830,c),
(799,1911,l),
(756,2012,o),
(660,2158,o),
(567,2274,c)
);
},
{
closed = 1;
nodes = (
(2132,2277,l),
(2082,2161,o),
(1987,1997,o),
(1913,1892,c),
(2063,1843,l),
(2149,1938,o),
(2241,2084,o),
(2325,2220,c)
);
},
{
closed = 1;
nodes = (
(771,1577,l),
(615,1415,o),
(353,1265,o),
(104,1168,c),
(148,1137,o),
(222,1069,o),
(253,1036,c),
(493,1147,o),
(776,1323,o),
(950,1512,c)
);
},
{
closed = 1;
nodes = (
(1737,1481,l),
(1983,1367,o),
(2283,1176,o),
(2438,1042,c),
(2595,1162,l),
(2438,1291,o),
(2137,1476,o),
(1891,1591,c)
);
},
{
closed = 1;
nodes = (
(851,958,l),
(851,694,ls),
(851,518,o),
(833,310,o),
(719,170,c),
(757,149,o),
(812,97,o),
(835,66,c),
(975,238,o),
(997,471,o),
(997,688,cs),
(997,958,l)
);
}
);
width = 2716;
},
{
layerId = "5C20EF92-B63D-42A8-8878-93C2863E0093";
shapes = (
{
closed = 1;
nodes = (
(117,1940,l),
(117,1595,l),
(2599,1595,l),
(2599,1940,l)
);
},
{
closed = 1;
nodes = (
(902,2347,l),
(902,1746,l),
(1265,1746,l),
(1265,2347,l)
);
},
{
closed = 1;
nodes = (
(1433,2347,l),
(1433,1746,l),
(1800,1746,l),
(1800,2347,l)
);
},
{
closed = 1;
nodes = (
(1154,1751,l),
(1154,-173,l),
(1538,-173,l),
(1538,1751,l)
);
},
{
closed = 1;
nodes = (
(1632,921,l),
(1632,212,l),
(1885,212,l),
(1885,921,l)
);
},
{
closed = 1;
nodes = (
(321,1326,l),
(321,-223,l),
(700,-223,l),
(700,995,l),
(2133,995,l),
(2133,1326,l)
);
},
{
closed = 1;
nodes = (
(1999,1326,l),
(1999,151,ls),
(1999,120,o),
(1988,112,o),
(1949,109,cs),
(1916,106,o),
(1793,106,o),
(1702,112,c),
(1752,26,o),
(1809,-125,o),
(1827,-225,c),
(2001,-225,o),
(2138,-220,o),
(2248,-169,cs),
(2353,-109,o),
(2385,-14,o),
(2385,145,cs),
(2385,1326,l)
);
},
{
closed = 1;
nodes = (
(325,2187,l),
(400,2080,o),
(485,1931,o),
(512,1840,c),
(851,2001,l),
(809,2092,o),
(732,2225,o),
(643,2327,c)
);
},
{
closed = 1;
nodes = (
(2042,2330,l),
(2010,2223,o),
(1942,2083,o),
(1886,1978,c),
(2194,1892,l),
(2271,1969,o),
(2352,2098,o),
(2446,2234,c)
);
},
{
closed = 1;
nodes = (
(651,1609,l),
(525,1486,o),
(300,1363,o),
(78,1293,c),
(161,1229,o),
(302,1095,o),
(365,1023,c),
(583,1123,o),
(852,1300,o),
(1012,1476,c)
);
},
{
closed = 1;
nodes = (
(1680,1449,l),
(1888,1350,o),
(2158,1176,o),
(2303,1059,c),
(2623,1295,l),
(2469,1408,o),
(2208,1561,o),
(1993,1663,c)
);
},
{
closed = 1;
nodes = (
(806,918,l),
(806,668,ls),
(806,535,o),
(792,372,o),
(719,258,c),
(783,221,o),
(880,118,o),
(921,61,c),
(1052,219,o),
(1069,452,o),
(1069,658,cs),
(1069,918,l)
);
}
);
width = 2716;
},
{
layerId = "B1F27B51-9973-4381-9301-4FE46FE1CA59";
shapes = (
{
closed = 1;
nodes = (
(162,1756,l),
(162,1692,l),
(2556,1692,l),
(2556,1756,l)
);
},
{
closed = 1;
nodes = (
(1050,2286,l),
(1050,1723,l),
(1117,1723,l),
(1117,2286,l)
);
},
{
closed = 1;
nodes = (
(1593,2286,l),
(1593,1723,l),
(1660,1723,l),
(1660,2286,l)
);
},
{
closed = 1;
nodes = (
(1317,1738,l),
(1317,-151,l),
(1383,-151,l),
(1383,1738,l)
);
},
{
closed = 1;
nodes = (
(1758,995,l),
(1758,161,l),
(1827,161,l),
(1827,995,l)
);
},
{
closed = 1;
nodes = (
(446,1231,l),
(446,-157,l),
(509,-157,l),
(509,1166,l),
(2243,1166,l),
(2243,1231,l)
);
},
{
closed = 1;
nodes = (
(2213,1231,l),
(2213,-24,ls),
(2213,-66,o),
(2201,-79,o),
(2155,-82,cs),
(2103,-85,o),
(1954,-85,o),
(1745,-79,c),
(1760,-107,o),
(1771,-133,o),
(1776,-151,c),
(1996,-151,o),
(2131,-154,o),
(2197,-138,cs),
(2257,-125,o),
(2275,-95,o),
(2275,-24,cs),
(2275,1231,l)
);
},
{
closed = 1;
nodes = (
(465,2214,l),
(556,2095,o),
(660,1931,o),
(710,1824,c),
(764,1853,l),
(720,1960,o),
(613,2115,o),
(518,2238,c)
);
},
{
closed = 1;
nodes = (
(2190,2241,l),
(2129,2122,o),
(2016,1943,o),
(1929,1838,c),
(1980,1811,l),
(2069,1918,o),
(2168,2077,o),
(2247,2212,c)
);
},
{
closed = 1;
nodes = (
(848,1556,l),
(673,1369,o),
(387,1200,o),
(121,1087,c),
(141,1077,o),
(170,1052,o),
(181,1044,c),
(435,1162,o),
(727,1338,o),
(910,1534,c)
);
},
{
closed = 1;
nodes = (
(1775,1502,l),
(2044,1378,o),
(2364,1176,o),
(2526,1032,c),
(2577,1077,l),
(2416,1215,o),
(2091,1422,o),
(1824,1545,c)
);
},
{
closed = 1;
nodes = (
(880,984,l),
(880,711,ls),
(880,508,o),
(858,270,o),
(719,113,c),
(740,103,o),
(768,83,o),
(781,69,c),
(924,250,o),
(950,483,o),
(950,709,cs),
(950,984,l)
);
}
);
width = 2716;
}
);
note = cid47102;
unicode = (12235,40697);
}
{
color = 0;
glyphname = uni2FCD;
layers = (
{
layerId = "CD0E3B44-F66A-4791-B84C-A1128DC61275";
shapes = (
{
closed = 1;
nodes = (
(944,1775,l),
(1741,1775,l),
(1741,1594,l),
(944,1594,l)
);
},
{
closed = 1;
nodes = (
(944,1461,l),
(1741,1461,l),
(1741,1277,l),
(944,1277,l)
);
},
{
closed = 1;
nodes = (
(944,2084,l),
(1741,2084,l),
(1741,1906,l),
(944,1906,l)
);
},
{
closed = 1;
nodes = (
(756,2225,l),
(756,1140,l),
(1934,1140,l),
(1934,2225,l)
);
},
{
closed = 1;
nodes = (
(298,2078,l),
(298,910,l),
(488,910,l),
(488,2078,l)
);
},
{
closed = 1;
nodes = (
(123,620,l),
(123,450,l),
(1058,450,l),
(1058,620,l)
);
},
{
closed = 1;
nodes = (
(1627,620,l),
(1627,450,l),
(2595,450,l),
(2595,620,l)
);
},
{
closed = 1;
nodes = (
(2127,540,l),
(2127,-182,l),
(2318,-182,l),
(2318,540,l)
);
},
{
closed = 1;
nodes = (
(431,563,l),
(417,266,o),
(368,57,o),
(136,-59,c),
(175,-92,o),
(228,-160,o),
(247,-204,c),
(530,-58,o),
(595,200,o),
(611,563,c)
);
},
{
closed = 1;
nodes = (
(298,1003,l),
(298,839,l),
(965,839,l),
(965,-185,l),
(1156,-185,l),
(1156,1003,l)
);
},
{
closed = 1;
nodes = (
(2208,2078,l),
(2208,1003,l),
(1606,1003,l),
(1606,839,l),
(2400,839,l),
(2400,2078,l)
);
},
{
closed = 1;
nodes = (
(1532,1003,l),
(1532,-185,l),
(1723,-185,l),
(1723,1003,l)
);
}
);
width = 2716;
},
{
layerId = "5C20EF92-B63D-42A8-8878-93C2863E0093";
shapes = (
{
closed = 1;
nodes = (
(1106,1739,l),
(1595,1739,l),
(1595,1674,l),
(1106,1674,l)
);
},
{
closed = 1;
nodes = (
(1106,1453,l),
(1595,1453,l),
(1595,1384,l),
(1106,1384,l)
);
},
{
closed = 1;
nodes = (
(1106,2031,l),
(1595,2031,l),
(1595,1965,l),
(1106,1965,l)
);
},
{
closed = 1;
nodes = (
(729,2275,l),
(729,1143,l),
(1988,1143,l),
(1988,2275,l)
);
},
{
closed = 1;
nodes = (
(241,2126,l),
(241,905,l),
(628,905,l),
(628,2126,l)
);
},
{
closed = 1;
nodes = (
(104,665,l),
(104,334,l),
(1061,334,l),
(1061,665,l)
);
},
{
closed = 1;
nodes = (
(1631,665,l),
(1631,334,l),
(2614,334,l),
(2614,665,l)
);
},
{
closed = 1;
nodes = (
(2034,488,l),
(2034,-223,l),
(2421,-223,l),
(2421,488,l)
);
},
{
closed = 1;
nodes = (
(374,563,l),
(364,297,o),
(346,151,o),
(65,62,c),
(138,-10,o),
(233,-155,o),
(265,-244,c),
(660,-98,o),
(720,169,o),
(728,563,c)
);
},
{
closed = 1;
nodes = (
(241,1071,l),
(241,760,l),
(870,760,l),
(870,-226,l),
(1259,-226,l),
(1259,1071,l)
);
},
{
closed = 1;
nodes = (
(2078,2126,l),
(2078,1071,l),
(1575,1071,l),
(1575,760,l),
(2471,760,l),
(2471,2126,l)
);
},
{
closed = 1;
nodes = (
(1433,1071,l),
(1433,-230,l),
(1818,-230,l),
(1818,1071,l)
);
}
);
width = 2716;
},
{
layerId = "B1F27B51-9973-4381-9301-4FE46FE1CA59";
shapes = (
{
closed = 1;
nodes = (
(839,1798,l),
(1837,1798,l),
(1837,1542,l),
(839,1542,l)
);
},
{
closed = 1;
nodes = (
(839,1468,l),
(1837,1468,l),
(1837,1209,l),
(839,1209,l)
);
},
{
closed = 1;
nodes = (
(839,2120,l),
(1837,2120,l),
(1837,1869,l),
(839,1869,l)
);
},
{
closed = 1;
nodes = (
(773,2193,l),
(773,1138,l),
(1898,1138,l),
(1898,2193,l)
);
},
{
closed = 1;
nodes = (
(336,2047,l),
(336,913,l),
(398,913,l),
(398,2047,l)
);
},
{
closed = 1;
nodes = (
(135,591,l),
(135,525,l),
(1057,525,l),
(1057,591,l)
);
},
{
closed = 1;
nodes = (
(1624,591,l),
(1624,525,l),
(2583,525,l),
(2583,591,l)
);
},
{
closed = 1;
nodes = (
(2187,575,l),
(2187,-157,l),
(2250,-157,l),
(2250,575,l)
);
},
{
closed = 1;
nodes = (
(469,563,l),
(453,245,o),
(382,-4,o),
(182,-137,c),
(199,-145,o),
(225,-163,o),
(234,-179,c),
(446,-32,o),
(514,221,o),
(536,563,c)
);
},
{
closed = 1;
nodes = (
(336,958,l),
(336,892,l),
(1026,892,l),
(1026,-160,l),
(1088,-160,l),
(1088,958,l)
);
},
{
closed = 1;
nodes = (
(2291,2047,l),
(2291,958,l),
(1627,958,l),
(1627,892,l),
(2354,892,l),
(2354,2047,l)
);
},
{
closed = 1;
nodes = (
(1597,958,l),
(1597,-156,l),
(1662,-156,l),
(1662,958,l)
);
}
);
width = 2716;
}
);
note = cid47153;
unicode = (12237,40718);
}
{
color = 0;
glyphname = uni2FCE;
layers = (
{
layerId = "CD0E3B44-F66A-4791-B84C-A1128DC61275";
shapes = (
{
closed = 1;
nodes = (
(1871,2309,l),
(1871,1182,l),
(2065,1182,l),
(2065,2309,l)
);
},
{
closed = 1;
nodes = (
(1341,1877,l),
(1341,1694,l),
(2589,1694,l),
(2589,1877,l)
);
},
{
closed = 1;
nodes = (
(1364,1287,l),
(1364,1108,l),
(2403,1108,l),
(2403,1287,l)
);
},
{
closed = 1;
nodes = (
(2345,1287,l),
(2345,1246,l),
(2179,572,o),
(1718,169,o),
(1159,-29,c),
(1200,-65,o),
(1263,-143,o),
(1291,-188,c),
(1863,32,o),
(2348,476,o),
(2546,1237,c),
(2423,1294,l),
(2388,1287,l)
);
},
{
closed = 1;
nodes = (
(1458,1069,l),
(1645,479,o),
(1997,27,o),
(2518,-182,c),
(2549,-130,o),
(2606,-57,o),
(2648,-17,c),
(2145,163,o),
(1793,586,o),
(1628,1117,c)
);
},
{
closed = 1;
nodes = (
(648,2309,l),
(648,1557,l),
(839,1557,l),
(839,2309,l)
);
},
{
closed = 1;
nodes = (
(135,2062,l),
(135,1898,l),
(1359,1898,l),
(1359,2062,l)
);
},
{
closed = 1;
nodes = (
(202,1650,l),
(202,1485,l),
(1284,1485,l),
(1284,1650,l)
);
},
{
closed = 1;
nodes = (
(432,1139,l),
(1046,1139,l),
(1046,826,l),
(432,826,l)
);
},
{
closed = 1;
nodes = (
(252,1299,l),
(252,670,l),
(1237,670,l),
(1237,1299,l)
);
},
{
closed = 1;
nodes = (
(326,570,l),
(395,439,o),
(444,265,o),
(456,148,c),
(637,203,l),
(620,314,o),
(562,489,o),
(494,617,c)
);
},
{
closed = 1;
nodes = (
(963,637,l),
(932,510,o),
(869,326,o),
(823,210,c),
(976,166,l),
(1028,278,o),
(1086,442,o),
(1143,591,c)
);
},
{
closed = 1;
nodes = (
(137,-101,l),
(457,-55,o),
(918,13,o),
(1353,81,c),
(1345,249,l),
(888,183,o),
(413,118,o),
(108,79,c)
);
}
);
width = 2716;
},
{
layerId = "5C20EF92-B63D-42A8-8878-93C2863E0093";
shapes = (
{
closed = 1;
nodes = (
(1773,2350,l),
(1773,1177,l),
(2168,1177,l),
(2168,2350,l)
);
},
{
closed = 1;
nodes = (
(1359,1989,l),
(1359,1626,l),
(2608,1626,l),
(2608,1989,l)
);
},
{
closed = 1;
nodes = (
(1343,1381,l),
(1343,1029,l),
(2332,1029,l),
(2332,1381,l)
);
},
{
closed = 1;
nodes = (
(2220,1381,l),
(2220,1308,l),
(2089,667,o),
(1682,276,o),
(1118,92,c),
(1200,20,o),
(1331,-143,o),
(1384,-233,c),
(1974,-8,o),
(2433,480,o),
(2622,1287,c),
(2370,1392,l),
(2303,1381,l)
);
},
{
closed = 1;
nodes = (
(1382,944,l),
(1582,394,o),
(1904,-18,o),
(2423,-232,c),
(2481,-125,o),
(2598,23,o),
(2683,104,c),
(2209,266,o),
(1883,610,o),
(1725,1037,c)
);
},
{
closed = 1;
nodes = (
(531,2350,l),
(531,1557,l),
(919,1557,l),
(919,2350,l)
);
},
{
closed = 1;
nodes = (
(85,2173,l),
(85,1858,l),
(1378,1858,l),
(1378,2173,l)
);
},
{
closed = 1;
nodes = (
(174,1745,l),
(174,1426,l),
(1284,1426,l),
(1284,1745,l)
);
},
{
closed = 1;
nodes = (
(553,1049,l),
(889,1049,l),
(889,933,l),
(553,933,l)
);
},
{
closed = 1;
nodes = (
(193,1348,l),
(193,643,l),
(1277,643,l),
(1277,1348,l)
);
},
{
closed = 1;
nodes = (
(247,575,l),
(300,461,o),
(331,300,o),
(331,195,c),
(682,300,l),
(669,400,o),
(623,555,o),
(574,665,c)
);
},
{
closed = 1;
nodes = (
(849,687,l),
(833,572,o),
(789,420,o),
(757,319,c),
(1061,243,l),
(1100,330,o),
(1148,463,o),
(1209,608,c)
);
},
{
closed = 1;
nodes = (
(120,-146,l),
(457,-105,o),
(918,-39,o),
(1339,28,c),
(1324,351,l),
(879,295,o),
(390,242,o),
(68,209,c)
);
}
);
width = 2716;
},
{
layerId = "B1F27B51-9973-4381-9301-4FE46FE1CA59";
shapes = (
{
closed = 1;
nodes = (
(1936,2284,l),
(1936,1184,l),
(1998,1184,l),
(1998,2284,l)
);
},
{
closed = 1;
nodes = (
(1328,1805,l),
(1328,1738,l),
(2577,1738,l),
(2577,1805,l)
);
},
{
closed = 1;
nodes = (
(1378,1226,l),
(1378,1161,l),
(2449,1161,l),
(2449,1226,l)
);
},
{
closed = 1;
nodes = (
(2426,1226,l),
(2426,1207,l),
(2237,511,o),
(1740,101,o),
(1184,-107,c),
(1200,-120,o),
(1219,-143,o),
(1231,-159,c),
(1791,58,o),
(2293,473,o),
(2497,1205,c),
(2459,1231,l),
(2442,1226,l)
);
},
{
closed = 1;
nodes = (
(1508,1151,l),
(1686,534,o),
(2057,56,o),
(2579,-151,c),
(2593,-133,o),
(2613,-109,o),
(2625,-97,c),
(2105,95,o),
(1735,571,o),
(1565,1169,c)
);
},
{
closed = 1;
nodes = (
(724,2284,l),
(724,1557,l),
(787,1557,l),
(787,2284,l)
);
},
{
closed = 1;
nodes = (
(167,1990,l),
(167,1923,l),
(1347,1923,l),
(1347,1990,l)
);
},
{
closed = 1;
nodes = (
(219,1589,l),
(219,1523,l),
(1284,1523,l),
(1284,1589,l)
);
},
{
closed = 1;
nodes = (
(354,1198,l),
(1148,1198,l),
(1148,758,l),
(354,758,l)
);
},
{
closed = 1;
nodes = (
(290,1267,l),
(290,687,l),
(1211,687,l),
(1211,1267,l)
);
},
{
closed = 1;
nodes = (
(379,568,l),
(456,425,o),
(518,242,o),
(537,117,c),
(608,140,l),
(588,260,o),
(522,446,o),
(442,586,c)
);
},
{
closed = 1;
nodes = (
(1036,605,l),
(997,471,o),
(922,265,o),
(866,141,c),
(922,116,l),
(983,243,o),
(1046,428,o),
(1100,581,c)
);
},
{
closed = 1;
nodes = (
(147,-72,l),
(457,-23,o),
(918,48,o),
(1361,117,c),
(1359,182,l),
(894,111,o),
(428,36,o),
(133,-4,c)
);
}
);
width = 2716;
}
);
note = cid47161;
unicode = (12238,40723);
}
{
color = 0;
glyphname = uni2FD2;
layers = (
{
layerId = "CD0E3B44-F66A-4791-B84C-A1128DC61275";
shapes = (
{
closed = 1;
nodes = (
(424,892,l),
(424,736,l),
(2311,736,l),
(2311,892,l)
);
},
{
closed = 1;
nodes = (
(947,1481,l),
(883,1272,o),
(738,1108,o),
(544,1002,c),
(583,980,o),
(646,932,o),
(672,906,c),
(863,1030,o),
(1030,1214,o),
(1099,1455,c)
);
},
{
closed = 1;
nodes = (
(898,1224,l),
(1010,1145,o),
(1148,1033,o),
(1220,958,c),
(1325,1064,l),
(1252,1133,o),
(1106,1240,o),
(998,1314,c)
);
},
{
closed = 1;
nodes = (
(1688,1473,l),
(1635,1268,o),
(1498,1106,o),
(1312,1003,c),
(1348,980,o),
(1415,933,o),
(1441,907,c),
(1624,1027,o),
(1778,1212,o),
(1839,1447,c)
);
},
{
closed = 1;
nodes = (
(1617,1186,l),
(1765,1101,o),
(1948,981,o),
(2038,898,c),
(2141,1011,l),
(2046,1091,o),
(1860,1209,o),
(1718,1286,c)
);
},
{
closed = 1;
nodes = (
(947,713,l),
(886,498,o),
(744,327,o),
(552,214,c),
(589,193,o),
(653,146,o),
(681,119,c),
(870,247,o),
(1030,437,o),
(1099,687,c)
);
},
{
closed = 1;
nodes = (
(900,450,l),
(1015,371,o),
(1155,253,o),
(1228,185,c),
(1330,287,l),
(1257,356,o),
(1112,465,o),
(1000,539,c)
);
},
{
closed = 1;
nodes = (
(1688,702,l),
(1635,490,o),
(1498,324,o),
(1312,217,c),
(1348,195,o),
(1412,146,o),
(1438,121,c),
(1624,245,o),
(1778,435,o),
(1839,678,c)
);
},
{
closed = 1;
nodes = (
(1623,414,l),
(1771,324,o),
(1954,193,o),
(2047,110,c),
(2150,221,l),
(2054,302,o),
(1868,430,o),
(1723,514,c)
);
},
{
closed = 1;
nodes = (
(414,93,l),
(414,-70,l),
(2310,-70,l),
(2310,93,l)
);
},
{
closed = 1;
nodes = (
(299,1422,l),
(299,-185,l),
(487,-185,l),
(487,1422,l)
);
},
{
closed = 1;
nodes = (
(2242,1416,l),
(2242,-190,l),
(2430,-190,l),
(2430,1416,l)
);
},
{
closed = 1;
nodes = (
(1376,2089,l),
(1376,1926,l),
(2334,1926,l),
(2334,2089,l)
);
},
{
closed = 1;
nodes = (
(1264,2309,l),
(1264,1593,l),
(1460,1593,l),
(1460,2309,l)
);
},
{
closed = 1;
nodes = (
(565,2171,l),
(565,1603,l),
(753,1603,l),
(753,2171,l)
);
},
{
closed = 1;
nodes = (
(144,1684,l),
(144,1510,l),
(2580,1510,l),
(2580,1684,l)
);
}
);
width = 2716;
},
{
layerId = "5C20EF92-B63D-42A8-8878-93C2863E0093";
shapes = (
{
closed = 1;
nodes = (
(503,945,l),
(503,657,l),
(2249,657,l),
(2249,945,l)
);
},
{
closed = 1;
nodes = (
(907,1462,l),
(860,1307,o),
(752,1177,o),
(593,1087,c),
(666,1051,o),
(781,968,o),
(829,919,c),
(994,1034,o),
(1128,1207,o),
(1189,1415,c)
);
},
{
closed = 1;
nodes = (
(930,1174,l),
(1017,1105,o),
(1140,1017,o),
(1201,954,c),
(1391,1140,l),
(1323,1197,o),
(1194,1280,o),
(1111,1337,c)
);
},
{
closed = 1;
nodes = (
(1572,1456,l),
(1540,1300,o),
(1453,1169,o),
(1307,1082,c),
(1370,1047,o),
(1494,964,o),
(1544,914,c),
(1696,1027,o),
(1804,1203,o),
(1853,1407,c)
);
},
{
closed = 1;
nodes = (
(1568,1146,l),
(1689,1078,o),
(1847,990,o),
(1918,922,c),
(2101,1123,l),
(2019,1185,o),
(1860,1273,o),
(1748,1326,c)
);
},
{
closed = 1;
nodes = (
(907,699,l),
(863,543,o),
(754,403,o),
(597,309,c),
(660,273,o),
(777,191,o),
(834,143,c),
(992,261,o),
(1123,433,o),
(1189,651,c)
);
},
{
closed = 1;
nodes = (
(931,405,l),
(1025,344,o),
(1142,244,o),
(1202,194,c),
(1389,377,l),
(1326,427,o),
(1197,515,o),
(1114,570,c)
);
},
{
closed = 1;
nodes = (
(1572,683,l),
(1540,530,o),
(1448,396,o),
(1312,312,c),
(1374,278,o),
(1492,191,o),
(1541,143,c),
(1692,254,o),
(1804,435,o),
(1853,643,c)
);
},
{
closed = 1;
nodes = (
(1569,382,l),
(1686,315,o),
(1840,221,o),
(1922,160,c),
(2100,356,l),
(2017,414,o),
(1859,507,o),
(1747,562,c)
);
},
{
closed = 1;
nodes = (
(504,170,l),
(504,-141,l),
(2253,-141,l),
(2253,170,l)
);
},
{
closed = 1;
nodes = (
(233,1405,l),
(233,-226,l),
(611,-226,l),
(611,1405,l)
);
},
{
closed = 1;
nodes = (
(2122,1390,l),
(2122,-238,l),
(2502,-238,l),
(2502,1390,l)
);
},
{
closed = 1;
nodes = (
(1381,2205,l),
(1381,1894,l),
(2358,1894,l),
(2358,2205,l)
);
},
{
closed = 1;
nodes = (
(1163,2354,l),
(1163,1619,l),
(1558,1619,l),
(1558,2354,l)
);
},
{
closed = 1;
nodes = (
(483,2220,l),
(483,1644,l),
(864,1644,l),
(864,2220,l)
);
},
{
closed = 1;
nodes = (
(113,1796,l),
(113,1451,l),
(2616,1451,l),
(2616,1796,l)
);
}
);
width = 2716;
},
{
layerId = "B1F27B51-9973-4381-9301-4FE46FE1CA59";
shapes = (
{
closed = 1;
nodes = (
(371,856,l),
(371,789,l),
(2350,789,l),
(2350,856,l)
);
},
{
closed = 1;
nodes = (
(972,1493,l),
(898,1249,o),
(729,1064,o),
(512,947,c),
(531,934,o),
(559,910,o),
(572,898,c),
(780,1027,o),
(968,1220,o),
(1041,1481,c)
);
},
{
closed = 1;
nodes = (
(877,1256,l),
(1004,1170,o),
(1155,1044,o),
(1232,961,c),
(1282,1015,l),
(1206,1093,o),
(1049,1214,o),
(924,1299,c)
);
},
{
closed = 1;
nodes = (
(1763,1483,l),
(1696,1246,o),
(1527,1065,o),
(1314,950,c),
(1334,937,o),
(1362,913,o),
(1373,901,c),
(1577,1027,o),
(1761,1218,o),
(1832,1472,c)
);
},
{
closed = 1;
nodes = (
(1649,1212,l),
(1815,1116,o),
(2015,974,o),
(2116,883,c),
(2167,939,l),
(2063,1030,o),
(1860,1168,o),
(1697,1260,c)
);
},
{
closed = 1;
nodes = (
(972,721,l),
(901,469,o),
(738,276,o),
(523,153,c),
(543,141,o),
(571,117,o),
(582,104,c),
(790,238,o),
(970,440,o),
(1041,709,c)
);
},
{
closed = 1;
nodes = (
(879,479,l),
(1009,388,o),
(1163,259,o),
(1245,178,c),
(1293,229,l),
(1213,310,o),
(1058,433,o),
(927,519,c)
);
},
{
closed = 1;
nodes = (
(1763,714,l),
(1696,464,o),
(1530,277,o),
(1312,156,c),
(1331,143,o),
(1359,117,o),
(1371,107,c),
(1580,238,o),
(1761,435,o),
(1832,701,c)
);
},
{
closed = 1;
nodes = (
(1658,435,l),
(1825,330,o),
(2027,175,o),
(2128,78,c),
(2182,133,l),
(2078,230,o),
(1874,379,o),
(1708,483,c)
);
},
{
closed = 1;
nodes = (
(356,43,l),
(356,-24,l),
(2348,-24,l),
(2348,43,l)
);
},
{
closed = 1;
nodes = (
(342,1432,l),
(342,-160,l),
(405,-160,l),
(405,1432,l)
);
},
{
closed = 1;
nodes = (
(2319,1433,l),
(2319,-159,l),
(2383,-159,l),
(2383,1433,l)
);
},
{
closed = 1;
nodes = (
(1373,2014,l),
(1373,1948,l),
(2319,1948,l),
(2319,2014,l)
);
},
{
closed = 1;
nodes = (
(1330,2280,l),
(1330,1576,l),
(1395,1576,l),
(1395,2280,l)
);
},
{
closed = 1;
nodes = (
(618,2139,l),
(618,1578,l),
(681,1578,l),
(681,2139,l)
);
},
{
closed = 1;
nodes = (
(166,1612,l),
(166,1547,l),
(2558,1547,l),
(2558,1612,l)
);
}
);
width = 2716;
}
);
note = cid47309;
unicode = (12242,40786);
}
{
color = 0;
glyphname = uni2FD3;
layers = (
{
layerId = "CD0E3B44-F66A-4791-B84C-A1128DC61275";
shapes = (
{
closed = 1;
nodes = (
(643,2309,l),
(643,1974,l),
(833,1974,l),
(833,2309,l)
);
},
{
closed = 1;
nodes = (
(165,2071,l),
(165,1901,l),
(1317,1901,l),
(1317,2071,l)
);
},
{
closed = 1;
nodes = (
(116,1508,l),
(116,1338,l),
(1366,1338,l),
(1366,1508,l)
);
},
{
closed = 1;
nodes = (
(346,816,l),
(346,676,l),
(1139,676,l),
(1139,816,l)
);
},
{
closed = 1;
nodes = (
(346,474,l),
(346,334,l),
(1139,334,l),
(1139,474,l)
);
},
{
closed = 1;
nodes = (
(332,1858,l),
(379,1746,o),
(423,1599,o),
(436,1503,c),
(601,1547,l),
(585,1640,o),
(538,1786,o),
(491,1896,c)
);
},
{
closed = 1;
nodes = (
(997,1903,l),
(971,1799,o),
(919,1646,o),
(875,1547,c),
(1027,1502,l),
(1071,1598,o),
(1122,1730,o),
(1174,1856,c)
);
},
{
closed = 1;
nodes = (
(266,1158,l),
(266,-180,l),
(452,-180,l),
(452,1011,l),
(1148,1011,l),
(1148,1158,l)
);
},
{
closed = 1;
nodes = (
(1046,1158,l),
(1046,34,ls),
(1046,1,o),
(1036,-7,o),
(1003,-7,cs),
(970,-10,o),
(869,-10,o),
(753,-4,c),
(776,-55,o),
(808,-131,o),
(819,-182,c),
(971,-182,o),
(1079,-180,o),
(1151,-152,cs),
(1218,-120,o),
(1237,-66,o),
(1237,31,cs),
(1237,1158,l)
);
},
{
closed = 1;
nodes = (
(1582,2093,l),
(1582,1928,l),
(2573,1928,l),
(2573,2093,l)
);
},
{
closed = 1;
nodes = (
(1583,968,l),
(1583,836,l),
(2464,836,l),
(2464,968,l)
);
},
{
closed = 1;
nodes = (
(1590,667,l),
(1590,535,l),
(2450,535,l),
(2450,667,l)
);
},
{
closed = 1;
nodes = (
(1575,356,l),
(1575,227,l),
(2477,227,l),
(2477,356,l)
);
},
{
closed = 1;
nodes = (
(1504,2309,l),
(1504,1607,l),
(1694,1607,l),
(1694,2309,l)
);
},
{
closed = 1;
nodes = (
(1504,1703,l),
(1504,1545,l),
(2276,1545,l),
(2276,1294,l),
(1504,1294,l),
(1504,1140,l),
(2467,1140,l),
(2467,1703,l)
);
},
{
closed = 1;
nodes = (
(1504,1208,l),
(1504,104,ls),
(1504,-119,o),
(1579,-168,o),
(1831,-168,cs),
(1886,-168,o),
(2285,-168,o),
(2339,-168,cs),
(2545,-168,o),
(2600,-96,o),
(2623,148,c),
(2569,162,o),
(2493,188,o),
(2451,220,c),
(2440,34,o),
(2421,-4,o),
(2326,-4,cs),
(2243,-4,o),
(1911,-4,o),
(1851,-4,cs),
(1716,-4,o),
(1694,15,o),
(1694,104,cs),
(1694,1208,l)
);
}
);
width = 2716;
},
{
layerId = "5C20EF92-B63D-42A8-8878-93C2863E0093";
shapes = (
{
closed = 1;
nodes = (
(527,2354,l),
(527,1997,l),
(913,1997,l),
(913,2354,l)
);
},
{
closed = 1;
nodes = (
(120,2174,l),
(120,1842,l),
(1317,1842,l),
(1317,2174,l)
);
},
{
closed = 1;
nodes = (
(81,1629,l),
(81,1303,l),
(1358,1303,l),
(1358,1629,l)
);
},
{
closed = 1;
nodes = (
(333,856,l),
(333,608,l),
(1089,608,l),
(1089,856,l)
);
},
{
closed = 1;
nodes = (
(333,523,l),
(333,275,l),
(1089,275,l),
(1089,523,l)
);
},
{
closed = 1;
nodes = (
(249,1837,l),
(281,1746,o),
(307,1625,o),
(319,1548,c),
(637,1633,l),
(627,1702,o),
(591,1818,o),
(563,1905,c)
);
},
{
closed = 1;
nodes = (
(862,1913,l),
(851,1830,o),
(824,1717,o),
(795,1637,c),
(1095,1566,l),
(1124,1638,o),
(1163,1730,o),
(1214,1837,c)
);
},
{
closed = 1;
nodes = (
(200,1212,l),
(200,-220,l),
(574,-220,l),
(574,944,l),
(1107,944,l),
(1107,1212,l)
);
},
{
closed = 1;
nodes = (
(889,1212,l),
(889,156,ls),
(889,122,o),
(875,114,o),
(847,118,cs),
(817,115,o),
(726,115,o),
(658,120,c),
(699,30,o),
(758,-117,o),
(779,-223,c),
(926,-223,o),
(1048,-215,o),
(1151,-160,cs),
(1249,-101,o),
(1277,-13,o),
(1277,148,cs),
(1277,1212,l)
);
},
{
closed = 1;
nodes = (
(1595,2188,l),
(1595,1869,l),
(2594,1869,l),
(2594,2188,l)
);
},
{
closed = 1;
nodes = (
(1590,1021,l),
(1590,795,l),
(2501,795,l),
(2501,1021,l)
);
},
{
closed = 1;
nodes = (
(1616,720,l),
(1616,499,l),
(2490,499,l),
(2490,720,l)
);
},
{
closed = 1;
nodes = (
(1570,427,l),
(1570,210,l),
(2517,210,l),
(2517,427,l)
);
},
{
closed = 1;
nodes = (
(1445,2350,l),
(1445,1572,l),
(1834,1572,l),
(1834,2350,l)
);
},
{
closed = 1;
nodes = (
(1445,1767,l),
(1445,1474,l),
(2115,1474,l),
(2115,1379,l),
(1445,1379,l),
(1445,1093,l),
(2498,1093,l),
(2498,1767,l)
);
},
{
closed = 1;
nodes = (
(1445,1239,l),
(1445,225,ls),
(1445,-119,o),
(1553,-209,o),
(1884,-209,cs),
(1969,-209,o),
(2183,-209,o),
(2254,-209,cs),
(2528,-209,o),
(2626,-113,o),
(2668,175,c),
(2561,202,o),
(2413,252,o),
(2333,310,c),
(2320,148,o),
(2299,103,o),
(2217,103,cs),
(2163,103,o),
(1996,103,o),
(1954,103,cs),
(1851,103,o),
(1834,118,o),
(1834,229,cs),
(1834,1239,l)
);
}
);
width = 2716;
},
{
layerId = "B1F27B51-9973-4381-9301-4FE46FE1CA59";
shapes = (
{
closed = 1;
nodes = (
(718,2280,l),
(718,1959,l),
(781,1959,l),
(781,2280,l)
);
},
{
closed = 1;
nodes = (
(194,2004,l),
(194,1938,l),
(1317,1938,l),
(1317,2004,l)
);
},
{
closed = 1;
nodes = (
(139,1430,l),
(139,1361,l),
(1372,1361,l),
(1372,1430,l)
);
},
{
closed = 1;
nodes = (
(353,791,l),
(353,720,l),
(1171,720,l),
(1171,791,l)
);
},
{
closed = 1;
nodes = (
(353,442,l),
(353,372,l),
(1171,372,l),
(1171,442,l)
);
},
{
closed = 1;
nodes = (
(384,1873,l),
(442,1746,o),
(498,1582,o),
(512,1474,c),
(578,1493,l),
(558,1601,o),
(503,1765,o),
(445,1889,c)
);
},
{
closed = 1;
nodes = (
(1084,1897,l),
(1049,1779,o),
(980,1600,o),
(927,1489,c),
(983,1462,l),
(1035,1573,o),
(1097,1730,o),
(1148,1868,c)
);
},
{
closed = 1;
nodes = (
(309,1123,l),
(309,-154,l),
(372,-154,l),
(372,1054,l),
(1173,1054,l),
(1173,1123,l)
);
},
{
closed = 1;
nodes = (
(1148,1123,l),
(1148,-46,ls),
(1148,-77,o),
(1140,-85,o),
(1103,-89,cs),
(1069,-92,o),
(962,-92,o),
(814,-86,c),
(827,-109,o),
(840,-139,o),
(845,-157,c),
(1000,-157,o),
(1100,-157,o),
(1151,-145,cs),
(1197,-132,o),
(1211,-102,o),
(1211,-45,cs),
(1211,1123,l)
);
},
{
closed = 1;
nodes = (
(1574,2032,l),
(1574,1965,l),
(2558,1965,l),
(2558,2032,l)
);
},
{
closed = 1;
nodes = (
(1577,932,l),
(1577,861,l),
(2440,861,l),
(2440,932,l)
);
},
{
closed = 1;
nodes = (
(1573,631,l),
(1573,557,l),
(2424,557,l),
(2424,631,l)
);
},
{
closed = 1;
nodes = (
(1578,310,l),
(1578,238,l),
(2452,238,l),
(2452,310,l)
);
},
{
closed = 1;
nodes = (
(1541,2284,l),
(1541,1630,l),
(1604,1630,l),
(1604,2284,l)
);
},
{
closed = 1;
nodes = (
(1541,1663,l),
(1541,1591,l),
(2380,1591,l),
(2380,1240,l),
(1541,1240,l),
(1541,1171,l),
(2446,1171,l),
(2446,1663,l)
);
},
{
closed = 1;
nodes = (
(1541,1187,l),
(1541,27,ls),
(1541,-119,o),
(1596,-143,o),
(1795,-143,cs),
(1834,-143,o),
(2351,-143,o),
(2393,-143,cs),
(2556,-143,o),
(2583,-86,o),
(2594,132,c),
(2574,136,o),
(2545,148,o),
(2527,162,c),
(2518,-39,o),
(2500,-73,o),
(2395,-73,cs),
(2295,-73,o),
(1856,-73,o),
(1783,-73,cs),
(1628,-73,o),
(1604,-51,o),
(1604,23,cs),
(1604,1187,l)
);
}
);
width = 2716;
}
);
note = cid47443;
unicode = (12243,40845,63940);
}
{
color = 4;
glyphname = "iterationmark-han";
layers = (
{
layerId = "B1F27B51-9973-4381-9301-4FE46FE1CA59";
shapes = (
{
closed = 1;
nodes = (
(690,1099,o),
(999,1587,o),
(1197,2155,c),
(1138,2174,l),
(942,1617,o),
(635,1137,o),
(223,743,c),
(269,700,l)
);
},
{
closed = 1;
nodes = (
(1887,-14,l),
(1596,303,o),
(1254,618,o),
(893,898,c),
(853,846,l),
(1211,569,o),
(1553,257,o),
(1841,-58,c)
);
},
{
closed = 1;
nodes = (
(1797,800,o),
(2061,1224,o),
(2137,1628,c),
(2072,1642,l),
(1998,1254,o),
(1740,835,o),
(1349,474,c),
(1396,428,l)
);
},
{
closed = 1;
nodes = (
(2137,1628,l),
(2137,1693,l),
(950,1693,l),
(950,1628,l)
);
}
);
width = 2716;
},
{
layerId = "CD0E3B44-F66A-4791-B84C-A1128DC61275";
shapes = (
{
closed = 1;
nodes = (
(774,1042,o),
(1084,1560,o),
(1282,2158,c),
(1072,2198,l),
(882,1636,o),
(584,1154,o),
(188,748,c),
(358,618,l)
);
},
{
closed = 1;
nodes = (
(1996,34,l),
(1706,352,o),
(1358,670,o),
(994,950,c),
(856,792,l),
(1214,520,o),
(1552,208,o),
(1836,-106,c)
);
},
{
closed = 1;
nodes = (
(1868,740,o),
(2126,1172,o),
(2212,1564,c),
(1998,1606,l),
(1924,1258,o),
(1684,852,o),
(1322,498,c),
(1476,358,l)
);
},
{
closed = 1;
nodes = (
(2212,1564,l),
(2210,1754,l),
(950,1754,l),
(950,1566,l)
);
}
);
width = 2716;
},
{
layerId = "5C20EF92-B63D-42A8-8878-93C2863E0093";
shapes = (
{
closed = 1;
nodes = (
(918,974,o),
(1219,1522,o),
(1415,2163,c),
(948,2242,l),
(766,1666,o),
(486,1183,o),
(114,765,c),
(505,515,l)
);
},
{
closed = 1;
nodes = (
(2172,121,l),
(1887,439,o),
(1545,749,o),
(1181,1017,c),
(855,692,l),
(1211,428,o),
(1545,119,o),
(1822,-191,c)
);
},
{
closed = 1;
nodes = (
(2006,640,o),
(2248,1058,o),
(2351,1452,c),
(1881,1544,l),
(1803,1235,o),
(1605,895,o),
(1303,569,c),
(1643,244,l)
);
},
{
closed = 1;
nodes = (
(2351,1452,l),
(2351,1856,l),
(950,1856,l),
(950,1452,l)
);
}
);
vertWidth = 0;
width = 2716;
},
{
associatedMasterId = "CD0E3B44-F66A-4791-B84C-A1128DC61275";
layerId = "02A8A085-1BFC-4884-AC0E-CA57F72D98AD";
name = "Jul 23, 23 18:06";
shapes = (
{
closed = 1;
nodes = (
(774,1042,o),
(1083,1560,o),
(1281,2158,c),
(1072,2198,l),
(882,1636,o),
(584,1153,o),
(187,749,c),
(358,618,l)
);
},
{
closed = 1;
nodes = (
(1996,34,l),
(1705,352,o),
(1358,670,o),
(994,949,c),
(855,792,l),
(1214,520,o),
(1553,208,o),
(1835,-107,c)
);
},
{
closed = 1;
nodes = (
(1868,740,o),
(2126,1172,o),
(2210,1566,c),
(1998,1606,l),
(1925,1259,o),
(1683,852,o),
(1322,499,c),
(1477,358,l)
);
},
{
closed = 1;
nodes = (
(2210,1566,l),
(2210,1753,l),
(950,1753,l),
(950,1566,l)
);
}
);
width = 2716;
},
{
associatedMasterId = "5C20EF92-B63D-42A8-8878-93C2863E0093";
layerId = "1637B704-3FE7-4A69-AC6B-0C8227CD5459";
name = "Jul 23, 23 18:06";
shapes = (
{
closed = 1;
nodes = (
(918,974,o),
(1219,1522,o),
(1415,2163,c),
(948,2242,l),
(766,1666,o),
(486,1183,o),
(114,765,c),
(505,515,l)
);
},
{
closed = 1;
nodes = (
(2172,121,l),
(1887,439,o),
(1545,749,o),
(1181,1017,c),
(855,692,l),
(1211,428,o),
(1545,119,o),
(1822,-191,c)
);
},
{
closed = 1;
nodes = (
(2006,640,o),
(2248,1058,o),
(2351,1452,c),
(1881,1544,l),
(1803,1235,o),
(1605,895,o),
(1303,569,c),
(1643,244,l)
);
},
{
closed = 1;
nodes = (
(2351,1452,l),
(2351,1856,l),
(950,1856,l),
(950,1452,l)
);
}
);
width = 2896;
},
{
associatedMasterId = "B1F27B51-9973-4381-9301-4FE46FE1CA59";
layerId = "44BBAC76-F844-4BA7-89D7-D64E35543AEC";
name = "Jul 23, 23 18:06";
shapes = (
{
closed = 1;
nodes = (
(690,1099,o),
(999,1587,o),
(1197,2155,c),
(1138,2174,l),
(942,1617,o),
(635,1137,o),
(223,743,c),
(269,700,l)
);
},
{
closed = 1;
nodes = (
(1887,-14,l),
(1596,303,o),
(1254,618,o),
(893,898,c),
(853,846,l),
(1211,569,o),
(1553,257,o),
(1841,-58,c)
);
},
{
closed = 1;
nodes = (
(1797,800,o),
(2061,1224,o),
(2137,1628,c),
(2072,1642,l),
(1998,1254,o),
(1740,835,o),
(1349,474,c),
(1396,428,l)
);
},
{
closed = 1;
nodes = (
(2137,1628,l),
(2137,1693,l),
(950,1693,l),
(950,1628,l)
);
}
);
width = 2896;
}
);
unicode = 12293;
}
{
color = 4;
glyphname = "ninojiten-han";
layers = (
{
layerId = "B1F27B51-9973-4381-9301-4FE46FE1CA59";
shapes = (
{
closed = 1;
nodes = (
(1624,-14,o),
(1865,108,o),
(1865,303,cs),
(1865,474,o),
(1629,607,o),
(1387,743,cs),
(1195,852,o),
(1013,958,o),
(1013,1050,cs),
(1013,1137,o),
(1178,1183,o),
(1352,1235,cs),
(1575,1297,o),
(1797,1365,o),
(1797,1539,cs),
(1797,1745,o),
(1461,1995,o),
(866,2217,c),
(839,2158,l),
(1493,1911,o),
(1729,1674,o),
(1729,1539,cs),
(1729,1408,o),
(1531,1354,o),
(1325,1294,cs),
(1127,1237,o),
(945,1183,o),
(945,1050,cs),
(945,922,o),
(1129,816,o),
(1355,692,cs),
(1569,569,o),
(1797,439,o),
(1797,306,cs),
(1797,195,o),
(1697,64,o),
(980,-55,c),
(994,-120,l)
);
}
);
width = 2716;
},
{
layerId = "CD0E3B44-F66A-4791-B84C-A1128DC61275";
shapes = (
{
closed = 1;
nodes = (
(1710,-50,o),
(1952,100,o),
(1952,322,cs),
(1952,468,o),
(1800,602,o),
(1460,784,cs),
(1208,920,o),
(1118,982,o),
(1118,1040,cs),
(1118,1094,o),
(1192,1124,o),
(1428,1188,cs),
(1726,1270,o),
(1884,1370,o),
(1884,1526,cs),
(1884,1748,o),
(1550,2022,o),
(868,2250,c),
(784,2058,l),
(1392,1848,o),
(1640,1644,o),
(1640,1538,cs),
(1640,1460,o),
(1548,1416,o),
(1236,1334,cs),
(994,1270,o),
(864,1180,o),
(864,1050,cs),
(864,922,o),
(994,806,o),
(1304,646,cs),
(1588,496,o),
(1700,414,o),
(1700,330,cs),
(1700,236,o),
(1548,130,o),
(910,40,c),
(962,-158,l)
);
}
);
width = 2716;
},
{
layerId = "5C20EF92-B63D-42A8-8878-93C2863E0093";
shapes = (
{
closed = 1;
nodes = (
(1814,-128,o),
(2107,67,o),
(2107,355,cs),
(2107,515,o),
(2017,626,o),
(1591,844,cs),
(1358,960,o),
(1314,998,o),
(1314,1025,cs),
(1314,1042,o),
(1366,1072,o),
(1564,1123,cs),
(1925,1218,o),
(2039,1324,o),
(2039,1501,cs),
(2039,1761,o),
(1694,2084,o),
(869,2307,c),
(687,1892,l),
(1186,1761,o),
(1480,1596,o),
(1480,1539,cs),
(1480,1501,o),
(1401,1454,o),
(1072,1373,cs),
(817,1311,o),
(717,1205,o),
(717,1050,cs),
(717,903,o),
(820,781,o),
(1216,591,cs),
(1469,469,o),
(1520,417,o),
(1520,382,cs),
(1520,325,o),
(1322,241,o),
(785,197,c),
(888,-234,l)
);
}
);
vertWidth = 0;
width = 2716;
}
);
unicode = 12347;
}
{
color = 0;
glyphname = uni4E01;
layers = (
{
layerId = "CD0E3B44-F66A-4791-B84C-A1128DC61275";
shapes = (
{
closed = 1;
nodes = (
(164,2056,l),
(164,1856,l),
(2548,1856,l),
(2548,2056,l)
);
},
{
closed = 1;
nodes = (
(1327,1974,l),
(1327,140,ls),
(1327,80,o),
(1302,61,o),
(1235,58,cs),
(1163,56,o),
(918,56,o),
(661,63,c),
(699,0,o),
(742,-95,o),
(757,-161,c),
(1073,-161,o),
(1273,-158,o),
(1390,-122,cs),
(1505,-88,o),
(1550,-21,o),
(1550,141,cs),
(1550,1974,l)
);
}
);
width = 2716;
},
{
layerId = "5C20EF92-B63D-42A8-8878-93C2863E0093";
shapes = (
{
closed = 1;
nodes = (
(133,2168,l),
(133,1753,l),
(2579,1753,l),
(2579,2168,l)
);
},
{
closed = 1;
nodes = (
(1202,1988,l),
(1202,315,ls),
(1202,264,o),
(1178,245,o),
(1110,242,cs),
(1028,244,o),
(770,249,o),
(571,254,c),
(650,131,o),
(742,-77,o),
(771,-214,c),
(1052,-214,o),
(1283,-203,o),
(1454,-130,cs),
(1626,-66,o),
(1680,50,o),
(1680,313,cs),
(1680,1988,l)
);
}
);
width = 2716;
},
{
layerId = "B1F27B51-9973-4381-9301-4FE46FE1CA59";
shapes = (
{
closed = 1;
nodes = (
(185,1984,l),
(185,1923,l),
(2528,1923,l),
(2528,1984,l)
);
},
{
closed = 1;
nodes = (
(1408,1965,l),
(1408,28,ls),
(1408,-39,o),
(1384,-58,o),
(1316,-61,cs),
(1250,-66,o),
(1014,-70,o),
(719,-62,c),
(731,-83,o),
(742,-107,o),
(748,-125,c),
(1088,-125,o),
(1267,-129,o),
(1350,-115,cs),
(1427,-102,o),
(1466,-67,o),
(1466,29,cs),
(1466,1965,l)
);
}
);
width = 2716;
}
);
note = cid09482;
unicode = 19969;
}
{
color = 0;
glyphname = uni4E14;
layers = (
{
layerId = "CD0E3B44-F66A-4791-B84C-A1128DC61275";
shapes = (
{
closed = 1;
nodes = (
(147,125,l),
(147,-65,l),
(2571,-65,l),
(2571,125,l)
);
},
{
closed = 1;
nodes = (
(687,1482,l),
(687,1297,l),
(2036,1297,l),
(2036,1482,l)
);
},
{
closed = 1;
nodes = (
(687,802,l),
(687,614,l),
(2036,614,l),
(2036,802,l)
);
},
{
closed = 1;
nodes = (
(578,2151,l),
(578,28,l),
(771,28,l),
(771,1961,l),
(1969,1961,l),
(1969,28,l),
(2168,28,l),
(2168,2151,l)
);
}
);
width = 2716;
},
{
layerId = "5C20EF92-B63D-42A8-8878-93C2863E0093";
shapes = (
{
closed = 1;
nodes = (
(124,268,l),
(124,-118,l),
(2594,-118,l),
(2594,268,l)
);
},
{
closed = 1;
nodes = (
(751,1567,l),
(751,1199,l),
(1960,1199,l),
(1960,1567,l)
);
},
{
closed = 1;
nodes = (
(751,927,l),
(751,548,l),
(1960,548,l),
(1960,927,l)
);
},
{
closed = 1;
nodes = (
(524,2215,l),
(524,73,l),
(917,73,l),
(917,1830,l),
(1838,1830,l),
(1838,73,l),
(2254,73,l),
(2254,2215,l)
);
}
);
width = 2716;
},
{
layerId = "B1F27B51-9973-4381-9301-4FE46FE1CA59";
shapes = (
{
closed = 1;
nodes = (
(162,32,l),
(162,-31,l),
(2556,-31,l),
(2556,32,l)
);
},
{
closed = 1;
nodes = (
(647,1427,l),
(647,1360,l),
(2086,1360,l),
(2086,1427,l)
);
},
{
closed = 1;
nodes = (
(647,720,l),
(647,658,l),
(2086,658,l),
(2086,720,l)
);
},
{
closed = 1;
nodes = (
(613,2111,l),
(613,-1,l),
(675,-1,l),
(675,2044,l),
(2052,2044,l),
(2052,-1,l),
(2114,-1,l),
(2114,2111,l)
);
}
);
width = 2716;
}
);
note = cid09510;
unicode = 19988;
}
{
color = 0;
glyphname = uni4E26;
layers = (
{
layerId = "CD0E3B44-F66A-4791-B84C-A1128DC61275";
shapes = (
{
closed = 1;
nodes = (
(219,1762,l),
(219,1569,l),
(2501,1569,l),
(2501,1762,l)
);
},
{
closed = 1;
nodes = (
(147,133,l),
(147,-64,l),
(2571,-64,l),
(2571,133,l)
);
},
{
closed = 1;
nodes = (
(965,1636,l),
(965,31,l),
(1158,31,l),
(1158,1636,l)
);
},
{
closed = 1;
nodes = (
(1540,1636,l),
(1540,28,l),
(1738,28,l),
(1738,1636,l)
);
},
{
closed = 1;
nodes = (
(2177,1333,l),
(2110,1059,o),
(1981,676,o),
(1874,439,c),
(2046,389,l),
(2158,618,o),
(2289,982,o),
(2384,1277,c)
);
},
{
closed = 1;
nodes = (
(1957,2309,l),
(1894,2157,o),
(1773,1939,o),
(1675,1803,c),
(1850,1739,l),
(1947,1871,o),
(2070,2068,o),
(2164,2246,c)
);
},
{
closed = 1;
nodes = (
(349,1258,l),
(480,985,o),
(587,627,o),
(612,392,c),
(799,439,l),
(772,679,o),
(663,1031,o),
(526,1302,c)
);
},
{
closed = 1;
nodes = (
(584,2236,l),
(694,2092,o),
(805,1890,o),
(849,1759,c),
(1031,1838,l),
(985,1969,o),
(871,2159,o),
(756,2304,c)
);
}
);
width = 2716;
},
{
layerId = "5C20EF92-B63D-42A8-8878-93C2863E0093";
shapes = (
{
closed = 1;
nodes = (
(170,1904,l),
(170,1515,l),
(2542,1515,l),
(2542,1904,l)
);
},
{
closed = 1;
nodes = (
(124,273,l),
(124,-136,l),
(2594,-136,l),
(2594,273,l)
);
},
{
closed = 1;
nodes = (
(866,1605,l),
(866,67,l),
(1260,67,l),
(1260,1605,l)
);
},
{
closed = 1;
nodes = (
(1450,1605,l),
(1450,78,l),
(1854,78,l),
(1854,1605,l)
);
},
{
closed = 1;
nodes = (
(2070,1363,l),
(2025,1091,o),
(1931,752,o),
(1842,524,c),
(2202,434,l),
(2298,640,o),
(2410,960,o),
(2500,1263,c)
);
},
{
closed = 1;
nodes = (
(1848,2359,l),
(1801,2204,o),
(1697,2003,o),
(1609,1867,c),
(1974,1756,l),
(2068,1873,o),
(2192,2053,o),
(2294,2246,c)
);
},
{
closed = 1;
nodes = (
(263,1258,l),
(364,998,o),
(448,648,o),
(460,428,c),
(844,529,l),
(819,759,o),
(735,1084,o),
(624,1342,c)
);
},
{
closed = 1;
nodes = (
(522,2215,l),
(608,2078,o),
(692,1890,o),
(725,1778,c),
(1098,1928,l),
(1065,2049,o),
(974,2217,o),
(880,2344,c)
);
}
);
width = 2716;
},
{
layerId = "B1F27B51-9973-4381-9301-4FE46FE1CA59";
shapes = (
{
closed = 1;
nodes = (
(251,1670,l),
(251,1604,l),
(2476,1604,l),
(2476,1670,l)
);
},
{
closed = 1;
nodes = (
(162,43,l),
(162,-18,l),
(2556,-18,l),
(2556,43,l)
);
},
{
closed = 1;
nodes = (
(1029,1657,l),
(1029,9,l),
(1091,9,l),
(1091,1657,l)
);
},
{
closed = 1;
nodes = (
(1598,1657,l),
(1598,-3,l),
(1663,-3,l),
(1663,1657,l)
);
},
{
closed = 1;
nodes = (
(2245,1312,l),
(2165,1037,o),
(2013,627,o),
(1896,385,c),
(1945,360,l),
(2068,604,o),
(2212,996,o),
(2309,1286,c)
);
},
{
closed = 1;
nodes = (
(2026,2278,l),
(1954,2126,o),
(1823,1899,o),
(1718,1763,c),
(1768,1729,l),
(1869,1869,o),
(1990,2076,o),
(2080,2246,c)
);
},
{
closed = 1;
nodes = (
(403,1258,l),
(555,977,o),
(677,613,o),
(710,370,c),
(770,381,l),
(741,627,o),
(616,995,o),
(461,1276,c)
);
},
{
closed = 1;
nodes = (
(623,2250,l),
(748,2100,o),
(878,1890,o),
(931,1747,c),
(988,1780,l),
(933,1917,o),
(803,2122,o),
(674,2278,c)
);
}
);
width = 2716;
}
);
note = cid09534;
unicode = 20006;
}
{
color = 0;
glyphname = uni4E4B;
layers = (
{
layerId = "CD0E3B44-F66A-4791-B84C-A1128DC61275";
shapes = (
{
closed = 1;
nodes = (
(267,1769,l),
(267,1576,l),
(2288,1576,l),
(2288,1769,l)
);
},
{
closed = 1;
nodes = (
(1253,2307,l),
(1253,1687,l),
(1451,1687,l),
(1451,2307,l)
);
},
{
closed = 1;
nodes = (
(2222,1769,l),
(2222,1720,l),
(1945,1252,o),
(1318,613,o),
(773,287,c),
(819,253,o),
(880,193,o),
(914,151,c),
(1477,501,o),
(2115,1139,o),
(2453,1687,c),
(2308,1780,l),
(2266,1769,l)
);
},
{
closed = 1;
nodes = (
(517,546,l),
(770,-20,o),
(1226,-138,o),
(1902,-138,cs),
(2540,-138,l),
(2547,-82,o),
(2581,10,o),
(2613,57,c),
(2488,54,o),
(2003,54,o),
(1913,54,cs),
(1330,54,o),
(885,142,o),
(685,616,c)
);
},
{
closed = 1;
nodes = (
(276,-182,l),
(485,129,o),
(679,523,o),
(784,776,c),
(594,852,l),
(485,563,o),
(281,171,o),
(86,-71,c)
);
}
);
width = 2716;
},
{
layerId = "5C20EF92-B63D-42A8-8878-93C2863E0093";
shapes = (
{
closed = 1;
nodes = (
(250,1867,l),
(250,1478,l),
(2195,1478,l),
(2195,1867,l)
);
},
{
closed = 1;
nodes = (
(1149,2356,l),
(1149,1679,l),
(1553,1679,l),
(1553,2356,l)
);
},
{
closed = 1;
nodes = (
(2065,1867,l),
(2065,1769,l),
(1844,1332,o),
(1297,730,o),
(789,386,c),
(881,314,o),
(1005,193,o),
(1076,106,c),
(1619,487,o),
(2191,1108,o),
(2539,1696,c),
(2237,1888,l),
(2153,1867,l)
);
},
{
closed = 1;
nodes = (
(498,551,l),
(783,-47,o),
(1257,-183,o),
(1919,-183,cs),
(2518,-183,l),
(2533,-65,o),
(2595,123,o),
(2653,215,c),
(2467,208,o),
(2093,208,o),
(1948,208,cs),
(1461,208,o),
(1025,277,o),
(847,678,c)
);
},
{
closed = 1;
nodes = (
(428,-227,l),
(641,105,o),
(827,538,o),
(938,793,c),
(535,942,l),
(435,640,o),
(241,242,o),
(37,19,c)
);
}
);
width = 2716;
},
{
layerId = "B1F27B51-9973-4381-9301-4FE46FE1CA59";
shapes = (
{
closed = 1;
nodes = (
(278,1707,l),
(278,1641,l),
(2348,1641,l),
(2348,1707,l)
);
},
{
closed = 1;
nodes = (
(1320,2275,l),
(1320,1693,l),
(1385,1693,l),
(1385,2275,l)
);
},
{
closed = 1;
nodes = (
(2322,1707,l),
(2322,1688,l),
(2012,1199,o),
(1332,537,o),
(762,223,c),
(780,213,o),
(799,193,o),
(809,180,c),
(1385,509,o),
(2065,1160,o),
(2399,1680,c),
(2354,1710,l),
(2339,1707,l)
);
},
{
closed = 1;
nodes = (
(529,543,l),
(762,-3,o),
(1206,-109,o),
(1892,-109,cs),
(2554,-109,l),
(2556,-92,o),
(2573,-63,o),
(2588,-46,c),
(2502,-45,o),
(1944,-45,o),
(1890,-45,cs),
(1247,-45,o),
(795,55,o),
(581,577,c)
);
},
{
closed = 1;
nodes = (
(178,-153,l),
(384,144,o),
(582,515,o),
(685,765,c),
(632,793,l),
(517,512,o),
(307,125,o),
(118,-129,c)
);
}
);
width = 2716;
}
);
note = cid09582;
unicode = 20043;
}
{
color = 0;
glyphname = uni4E4E;
layers = (
{
layerId = "CD0E3B44-F66A-4791-B84C-A1128DC61275";
shapes = (
{
closed = 1;
nodes = (
(2224,2269,l),
(1781,2153,o),
(979,2085,o),
(326,2061,c),
(344,2014,o),
(368,1938,o),
(370,1887,c),
(1027,1903,o),
(1837,1965,o),
(2326,2092,c)
);
},
{
closed = 1;
nodes = (
(148,1027,l),
(148,826,l),
(2572,826,l),
(2572,1027,l)
);
},
{
closed = 1;
nodes = (
(1277,2027,l),
(1277,84,ls),
(1277,27,o),
(1255,11,o),
(1193,7,cs),
(1132,4,o),
(920,1,o),
(691,12,c),
(724,-45,o),
(760,-134,o),
(773,-189,c),
(1062,-189,o),
(1239,-186,o),
(1339,-154,cs),
(1443,-123,o),
(1486,-62,o),
(1486,84,cs),
(1486,2027,l)
);
},
{
closed = 1;
nodes = (
(452,1737,l),
(559,1543,o),
(671,1289,o),
(710,1132,c),
(893,1201,l),
(848,1357,o),
(734,1608,o),
(622,1795,c)
);
},
{
closed = 1;
nodes = (
(2127,1843,l),
(2058,1647,o),
(1932,1371,o),
(1828,1202,c),
(1990,1137,l),
(2096,1298,o),
(2229,1557,o),
(2335,1771,c)
);
}
);
width = 2716;
},
{
layerId = "5C20EF92-B63D-42A8-8878-93C2863E0093";
shapes = (
{
closed = 1;
nodes = (
(2224,2354,l),
(1702,2235,o),
(957,2161,o),
(264,2137,c),
(304,2045,o),
(349,1885,o),
(356,1778,c),
(1036,1789,o),
(1815,1849,o),
(2416,1989,c)
);
},
{
closed = 1;
nodes = (
(111,1099,l),
(111,684,l),
(2607,684,l),
(2607,1099,l)
);
},
{
closed = 1;
nodes = (
(1174,2010,l),
(1174,249,ls),
(1174,196,o),
(1152,182,o),
(1085,182,cs),
(1020,179,o),
(795,177,o),
(606,190,c),
(670,80,o),
(752,-107,o),
(773,-221,c),
(1043,-221,o),
(1256,-210,o),
(1403,-150,cs),
(1556,-88,o),
(1607,17,o),
(1607,246,cs),
(1607,2010,l)
);
},
{
closed = 1;
nodes = (
(353,1635,l),
(439,1463,o),
(529,1240,o),
(556,1096,c),
(923,1242,l),
(883,1383,o),
(788,1601,o),
(688,1754,c)
);
},
{
closed = 1;
nodes = (
(2026,1821,l),
(1978,1633,o),
(1887,1394,o),
(1802,1233,c),
(2134,1115,l),
(2227,1255,o),
(2346,1477,o),
(2460,1686,c)
);
}
);
width = 2716;
},
{
layerId = "B1F27B51-9973-4381-9301-4FE46FE1CA59";
shapes = (
{
closed = 1;
nodes = (
(2224,2215,l),
(1834,2100,o),
(993,2036,o),
(366,2011,c),
(369,1993,o),
(380,1974,o),
(379,1956,c),
(1020,1976,o),
(1851,2040,o),
(2268,2159,c)
);
},
{
closed = 1;
nodes = (
(172,980,l),
(172,918,l),
(2549,918,l),
(2549,980,l)
);
},
{
closed = 1;
nodes = (
(1344,2038,l),
(1344,-23,ls),
(1344,-84,o),
(1323,-101,o),
(1263,-106,cs),
(1204,-108,o),
(1001,-111,o),
(745,-103,c),
(759,-126,o),
(767,-151,o),
(773,-167,c),
(1074,-167,o),
(1229,-171,o),
(1298,-157,cs),
(1370,-146,o),
(1408,-115,o),
(1408,-21,cs),
(1408,2038,l)
);
},
{
closed = 1;
nodes = (
(517,1803,l),
(637,1595,o),
(763,1321,o),
(808,1154,c),
(872,1176,l),
(825,1340,o),
(698,1614,o),
(578,1820,c)
);
},
{
closed = 1;
nodes = (
(2194,1857,l),
(2110,1655,o),
(1961,1356,o),
(1845,1182,c),
(1898,1151,l),
(2013,1326,o),
(2154,1609,o),
(2254,1826,c)
);
}
);
width = 2716;
}
);
note = cid09586;
unicode = 20046;
}
{
color = 0;
glyphname = uni4E4F;
layers = (
{
layerId = "CD0E3B44-F66A-4791-B84C-A1128DC61275";
shapes = (
{
closed = 1;
nodes = (
(326,1435,l),
(326,1247,l),
(2210,1247,l),
(2210,1435,l)
);
},
{
closed = 1;
nodes = (
(1247,1976,l),
(1247,1372,l),
(1448,1372,l),
(1448,1976,l)
);
},
{
closed = 1;
nodes = (
(2135,1435,l),
(2135,1390,l),
(1874,1008,o),
(1283,512,o),
(743,267,c),
(786,232,o),
(843,170,o),
(873,125,c),
(1426,396,o),
(2033,894,o),
(2362,1351,c),
(2215,1445,l),
(2179,1435,l)
);
},
{
closed = 1;
nodes = (
(507,451,l),
(746,-41,o),
(1156,-144,o),
(1824,-144,cs),
(2553,-144,l),
(2564,-90,o),
(2597,-1,o),
(2626,46,c),
(2494,43,o),
(1924,41,o),
(1832,43,cs),
(1261,43,o),
(859,118,o),
(673,520,c)
);
},
{
closed = 1;
nodes = (
(2245,2259,l),
(1795,2150,o),
(960,2079,o),
(268,2054,c),
(287,2010,o),
(310,1932,o),
(316,1880,c),
(1018,1902,o),
(1864,1970,o),
(2399,2097,c)
);
},
{
closed = 1;
nodes = (
(296,-161,l),
(481,86,o),
(655,405,o),
(755,613,c),
(576,685,l),
(477,451,o),
(293,142,o),
(125,-49,c)
);
}
);
width = 2716;
},
{
layerId = "5C20EF92-B63D-42A8-8878-93C2863E0093";
shapes = (
{
closed = 1;
nodes = (
(326,1488,l),
(326,1114,l),
(2133,1114,l),
(2133,1488,l)
);
},
{
closed = 1;
nodes = (
(1144,1890,l),
(1144,1364,l),
(1554,1364,l),
(1554,1890,l)
);
},
{
closed = 1;
nodes = (
(1981,1488,l),
(1981,1404,l),
(1779,1056,o),
(1261,598,o),
(758,346,c),
(839,277,o),
(965,148,o),
(1025,57,c),
(1551,351,o),
(2113,830,o),
(2441,1314,c),
(2143,1509,l),
(2078,1488,l)
);
},
{
closed = 1;
nodes = (
(467,451,l),
(738,-81,o),
(1184,-189,o),
(1834,-189,cs),
(2529,-189,l),
(2550,-76,o),
(2614,103,o),
(2666,193,c),
(2463,186,o),
(2018,178,o),
(1863,186,cs),
(1388,186,o),
(975,238,o),
(808,573,c)
);
},
{
closed = 1;
nodes = (
(2182,2353,l),
(1692,2240,o),
(915,2169,o),
(211,2152,c),
(247,2064,o),
(292,1901,o),
(302,1795,c),
(1018,1807,o),
(1847,1872,o),
(2484,2025,c)
);
},
{
closed = 1;
nodes = (
(403,-201,l),
(593,55,o),
(773,405,o),
(885,628,c),
(512,757,l),
(420,515,o),
(234,214,o),
(56,36,c)
);
}
);
width = 2716;
},
{
layerId = "B1F27B51-9973-4381-9301-4FE46FE1CA59";
shapes = (
{
closed = 1;
nodes = (
(326,1399,l),
(326,1333,l),
(2260,1333,l),
(2260,1399,l)
);
},
{
closed = 1;
nodes = (
(1314,2030,l),
(1314,1378,l),
(1379,1378,l),
(1379,2030,l)
);
},
{
closed = 1;
nodes = (
(2233,1399,l),
(2233,1381,l),
(1935,977,o),
(1297,458,o),
(735,214,c),
(750,203,o),
(763,184,o),
(775,169,c),
(1344,425,o),
(1981,934,o),
(2309,1375,c),
(2262,1405,l),
(2245,1399,l)
);
},
{
closed = 1;
nodes = (
(533,451,l),
(753,-16,o),
(1138,-115,o),
(1818,-115,cs),
(2568,-115,l),
(2573,-98,o),
(2587,-68,o),
(2601,-49,c),
(2514,-48,o),
(1863,-48,o),
(1811,-48,cs),
(1178,-48,o),
(784,40,o),
(586,484,c)
);
},
{
closed = 1;
nodes = (
(2286,2198,l),
(1863,2092,o),
(989,2021,o),
(306,1992,c),
(312,1975,o),
(323,1952,o),
(324,1934,c),
(1018,1963,o),
(1874,2035,o),
(2345,2143,c)
);
},
{
closed = 1;
nodes = (
(228,-136,l),
(409,106,o),
(579,405,o),
(671,605,c),
(616,638,l),
(515,411,o),
(331,95,o),
(169,-104,c)
);
}
);
width = 2716;
}
);
note = cid09587;
unicode = 20047;
}
{
color = 0;
glyphname = uni4E55;
layers = (
{
layerId = "CD0E3B44-F66A-4791-B84C-A1128DC61275";
shapes = (
{
closed = 1;
nodes = (
(502,1721,l),
(502,1551,l),
(2556,1551,l),
(2556,1721,l)
);
},
{
closed = 1;
nodes = (
(502,1293,l),
(502,1121,l),
(2564,1121,l),
(2564,1293,l)
);
},
{
closed = 1;
nodes = (
(374,2134,l),
(374,1378,ls),
(374,959,o),
(349,386,o),
(94,-35,c),
(143,-59,o),
(218,-119,o),
(249,-161,c),
(529,300,o),
(566,942,o),
(566,1378,cs),
(566,2044,l),
(604,2050,o),
(620,2060,o),
(623,2082,c)
);
},
{
closed = 1;
nodes = (
(2248,2274,l),
(1834,2179,o),
(1065,2119,o),
(431,2092,c),
(451,2053,o),
(474,1977,o),
(481,1932,c),
(1126,1952,o),
(1906,2014,o),
(2400,2122,c)
);
},
{
closed = 1;
nodes = (
(1429,2030,l),
(1429,-188,l),
(1622,-188,l),
(1622,2030,l)
);
},
{
closed = 1;
nodes = (
(677,863,l),
(677,-21,l),
(865,-21,l),
(865,692,l),
(2336,692,l),
(2336,863,l)
);
},
{
closed = 1;
nodes = (
(2238,863,l),
(2238,207,ls),
(2238,174,o),
(2228,163,o),
(2183,163,cs),
(2142,161,o),
(1995,161,o),
(1825,166,c),
(1849,116,o),
(1873,47,o),
(1881,-4,c),
(2106,-4,o),
(2243,-4,o),
(2324,25,cs),
(2408,54,o),
(2429,106,o),
(2429,207,cs),
(2429,863,l)
);
}
);
width = 2716;
},
{
layerId = "5C20EF92-B63D-42A8-8878-93C2863E0093";
shapes = (
{
closed = 1;
nodes = (
(587,1734,l),
(587,1408,l),
(2609,1408,l),
(2609,1734,l)
);
},
{
closed = 1;
nodes = (
(587,1288,l),
(587,956,l),
(2609,956,l),
(2609,1288,l)
);
},
{
closed = 1;
nodes = (
(338,2196,l),
(338,1484,ls),
(338,1066,o),
(318,462,o),
(56,41,c),
(156,-2,o),
(316,-123,o),
(380,-206,c),
(687,279,o),
(728,1032,o),
(728,1484,cs),
(728,2058,l),
(788,2068,o),
(813,2077,o),
(816,2113,c)
);
},
{
closed = 1;
nodes = (
(2172,2327,l),
(1739,2233,o),
(1046,2173,o),
(427,2145,c),
(460,2071,o),
(505,1919,o),
(521,1828,c),
(1157,1845,o),
(1901,1901,o),
(2471,2027,c)
);
},
{
closed = 1;
nodes = (
(1405,1942,l),
(1405,-238,l),
(1797,-238,l),
(1797,1942,l)
);
},
{
closed = 1;
nodes = (
(727,823,l),
(727,-90,l),
(1103,-90,l),
(1103,496,l),
(2349,496,l),
(2349,823,l)
);
},
{
closed = 1;
nodes = (
(2143,823,l),
(2143,273,ls),
(2143,250,o),
(2133,239,o),
(2096,239,cs),
(2071,240,o),
(1945,240,o),
(1866,246,c),
(1908,156,o),
(1953,15,o),
(1966,-87,c),
(2137,-87,o),
(2279,-87,o),
(2388,-34,cs),
(2498,18,o),
(2532,106,o),
(2532,268,cs),
(2532,823,l)
);
}
);
width = 2716;
},
{
layerId = "B1F27B51-9973-4381-9301-4FE46FE1CA59";
shapes = (
{
closed = 1;
nodes = (
(447,1713,l),
(447,1644,l),
(2520,1644,l),
(2520,1713,l)
);
},
{
closed = 1;
nodes = (
(447,1296,l),
(447,1228,l),
(2535,1228,l),
(2535,1296,l)
);
},
{
closed = 1;
nodes = (
(397,2095,l),
(397,1309,ls),
(397,891,o),
(369,336,o),
(117,-85,c),
(135,-96,o),
(156,-116,o),
(166,-132,c),
(427,314,o),
(462,883,o),
(462,1309,cs),
(462,2036,l),
(485,2038,o),
(494,2050,o),
(497,2061,c)
);
},
{
closed = 1;
nodes = (
(2298,2238,l),
(1895,2143,o),
(1077,2083,o),
(434,2056,c),
(444,2040,o),
(454,2014,o),
(456,1999,c),
(1105,2021,o),
(1909,2087,o),
(2354,2183,c)
);
},
{
closed = 1;
nodes = (
(1444,2087,l),
(1444,-156,l),
(1509,-156,l),
(1509,2087,l)
);
},
{
closed = 1;
nodes = (
(645,888,l),
(645,23,l),
(711,23,l),
(711,820,l),
(2329,820,l),
(2329,888,l)
);
},
{
closed = 1;
nodes = (
(2299,888,l),
(2299,163,ls),
(2299,124,o),
(2288,114,o),
(2239,114,cs),
(2188,108,o),
(2027,108,o),
(1800,114,c),
(1811,90,o),
(1821,69,o),
(1826,48,c),
(2085,48,o),
(2221,48,o),
(2284,62,cs),
(2349,76,o),
(2362,106,o),
(2362,167,cs),
(2362,888,l)
);
}
);
width = 2716;
}
);
note = cid09594;
unicode = 20053;
}
{
color = 0;
glyphname = uni4E5D;
layers = (
{
layerId = "CD0E3B44-F66A-4791-B84C-A1128DC61275";
shapes = (
{
closed = 1;
nodes = (
(964,2280,l),
(961,1296,o),
(984,397,o),
(94,-29,c),
(143,-65,o),
(209,-138,o),
(241,-185,c),
(1167,283,o),
(1169,1243,o),
(1175,2280,c)
);
},
{
closed = 1;
nodes = (
(218,1612,l),
(218,1414,l),
(1899,1414,l),
(1899,1612,l)
);
},
{
closed = 1;
nodes = (
(1778,1612,l),
(1778,162,ls),
(1778,-81,o),
(1845,-144,o),
(2053,-144,cs),
(2096,-144,o),
(2334,-144,o),
(2379,-144,cs),
(2577,-144,o),
(2630,-27,o),
(2650,353,c),
(2593,368,o),
(2513,403,o),
(2466,441,c),
(2454,111,o),
(2444,46,o),
(2364,46,cs),
(2314,46,o),
(2117,46,o),
(2080,46,cs),
(1993,46,o),
(1982,65,o),
(1982,159,cs),
(1982,1612,l)
);
}
);
width = 2716;
},
{
layerId = "5C20EF92-B63D-42A8-8878-93C2863E0093";
shapes = (
{
closed = 1;
nodes = (
(820,2311,l),
(818,1293,o),
(876,537,o),
(44,96,c),
(143,25,o),
(268,-131,o),
(331,-230,c),
(1247,283,o),
(1254,1203,o),
(1260,2311,c)
);
},
{
closed = 1;
nodes = (
(188,1707,l),
(188,1301,l),
(1850,1301,l),
(1850,1707,l)
);
},
{
closed = 1;
nodes = (
(1635,1707,l),
(1635,342,ls),
(1635,-72,o),
(1736,-189,o),
(2039,-189,cs),
(2101,-189,o),
(2223,-189,o),
(2285,-189,cs),
(2558,-189,o),
(2661,-27,o),
(2698,451,c),
(2588,481,o),
(2418,551,o),
(2331,625,c),
(2316,269,o),
(2311,193,o),
(2244,193,cs),
(2219,193,o),
(2140,193,o),
(2121,193,cs),
(2057,193,o),
(2053,211,o),
(2053,339,cs),
(2053,1707,l)
);
}
);
width = 2716;
},
{
layerId = "B1F27B51-9973-4381-9301-4FE46FE1CA59";
shapes = (
{
closed = 1;
nodes = (
(1057,2260,l),
(1054,1298,o),
(1054,307,o),
(126,-110,c),
(143,-123,o),
(172,-144,o),
(183,-156,c),
(1115,283,o),
(1115,1269,o),
(1120,2260,c)
);
},
{
closed = 1;
nodes = (
(239,1551,l),
(239,1487,l),
(1931,1487,l),
(1931,1551,l)
);
},
{
closed = 1;
nodes = (
(1871,1551,l),
(1871,46,ls),
(1871,-88,o),
(1914,-115,o),
(2062,-115,cs),
(2093,-115,o),
(2407,-115,o),
(2440,-115,cs),
(2589,-115,o),
(2609,-27,o),
(2619,288,c),
(2596,295,o),
(2573,306,o),
(2553,322,c),
(2544,9,o),
(2529,-49,o),
(2442,-49,cs),
(2375,-49,o),
(2102,-49,o),
(2055,-49,cs),
(1953,-49,o),
(1936,-31,o),
(1936,43,cs),
(1936,1551,l)
);
}
);
width = 2716;
}
);
note = cid09606;
unicode = 20061;
}
{
color = 0;
glyphname = uni4E62;
layers = (
{
layerId = "CD0E3B44-F66A-4791-B84C-A1128DC61275";
shapes = (
{
closed = 1;
nodes = (
(209,1775,l),
(209,66,l),
(379,66,l),
(379,1775,l)
);
},
{
closed = 1;
nodes = (
(625,2274,l),
(625,455,l),
(805,455,l),
(805,2274,l)
);
},
{
closed = 1;
nodes = (
(1058,1775,l),
(1058,151,l),
(1227,151,l),
(1227,1775,l)
);
},
{
closed = 1;
nodes = (
(293,527,l),
(293,344,l),
(1147,344,l),
(1147,527,l)
);
},
{
closed = 1;
nodes = (
(1468,2288,l),
(1468,250,ls),
(1468,-32,o),
(1543,-103,o),
(1797,-103,cs),
(1854,-103,o),
(2218,-103,o),
(2278,-103,cs),
(2530,-103,o),
(2583,43,o),
(2610,470,c),
(2555,484,o),
(2476,520,o),
(2429,557,c),
(2413,178,o),
(2393,80,o),
(2271,80,cs),
(2193,80,o),
(1875,80,o),
(1815,80,cs),
(1686,80,o),
(1661,107,o),
(1661,247,cs),
(1661,2288,l)
);
}
);
width = 2716;
},
{
layerId = "5C20EF92-B63D-42A8-8878-93C2863E0093";
shapes = (
{
closed = 1;
nodes = (
(138,1806,l),
(138,-5,l),
(464,-5,l),
(464,1806,l)
);
},
{
closed = 1;
nodes = (
(540,2309,l),
(540,491,l),
(895,491,l),
(895,2309,l)
);
},
{
closed = 1;
nodes = (
(968,1801,l),
(968,58,l),
(1298,58,l),
(1298,1801,l)
);
},
{
closed = 1;
nodes = (
(298,596,l),
(298,231,l),
(1128,231,l),
(1128,596,l)
);
},
{
closed = 1;
nodes = (
(1415,2309,l),
(1415,385,ls),
(1415,-46,o),
(1517,-162,o),
(1859,-162,cs),
(1930,-162,o),
(2142,-162,o),
(2216,-162,cs),
(2526,-162,o),
(2623,12,o),
(2663,470,c),
(2559,493,o),
(2400,569,o),
(2313,634,c),
(2293,289,o),
(2272,205,o),
(2181,205,cs),
(2139,205,o),
(1960,205,o),
(1917,205,cs),
(1821,205,o),
(1808,223,o),
(1808,380,cs),
(1808,2309,l)
);
}
);
width = 2716;
},
{
layerId = "B1F27B51-9973-4381-9301-4FE46FE1CA59";
shapes = (
{
closed = 1;
nodes = (
(255,1754,l),
(255,112,l),
(324,112,l),
(324,1754,l)
);
},
{
closed = 1;
nodes = (
(680,2251,l),
(680,433,l),
(747,433,l),
(747,2251,l)
);
},
{
closed = 1;
nodes = (
(1116,1758,l),
(1116,211,l),
(1181,211,l),
(1181,1758,l)
);
},
{
closed = 1;
nodes = (
(291,483,l),
(291,418,l),
(1159,418,l),
(1159,483,l)
);
},
{
closed = 1;
nodes = (
(1504,2274,l),
(1504,163,ls),
(1504,-23,o),
(1560,-65,o),
(1758,-65,cs),
(1805,-65,o),
(2268,-65,o),
(2318,-65,cs),
(2533,-65,o),
(2558,63,o),
(2574,470,c),
(2552,478,o),
(2526,488,o),
(2504,507,c),
(2491,105,o),
(2473,-2,o),
(2329,-2,cs),
(2228,-2,o),
(1821,-2,o),
(1748,-2,cs),
(1598,-2,o),
(1566,32,o),
(1566,162,cs),
(1566,2274,l)
);
}
);
width = 2716;
}
);
note = cid09612;
unicode = 20066;
}
{
color = 0;
glyphname = uni4E6D;
layers = (
{
layerId = "CD0E3B44-F66A-4791-B84C-A1128DC61275";
shapes = (
{
closed = 1;
nodes = (
(260,2183,l),
(260,2023,l),
(2461,2023,l),
(2461,2183,l)
);
},
{
closed = 1;
nodes = (
(1034,2159,l),
(837,1874,o),
(486,1630,o),
(139,1479,c),
(180,1443,o),
(247,1367,o),
(274,1328,c),
(622,1505,o),
(988,1775,o),
(1214,2098,c)
);
},
{
closed = 1;
nodes = (
(1868,942,l),
(449,442,o),
(396,274,o),
(396,133,cs),
(396,-32,o),
(534,-134,o),
(849,-134,cs),
(2078,-134,ls),
(2350,-134,o),
(2438,-66,o),
(2467,363,c),
(2409,376,o),
(2341,398,o),
(2287,432,c),
(2273,93,o),
(2230,56,o),
(2093,56,cs),
(833,56,ls),
(686,56,o),
(593,83,o),
(593,148,cs),
(593,227,o),
(691,346,o),
(2026,811,cs),
(2048,820,o),
(2066,830,o),
(2077,843,c),
(1939,950,l),
(1894,942,l)
);
},
{
closed = 1;
nodes = (
(442,942,l),
(442,775,l),
(1839,775,l),
(1897,942,l)
);
},
{
closed = 1;
nodes = (
(923,1632,l),
(2018,1632,l),
(2018,1291,l),
(923,1291,l)
);
},
{
closed = 1;
nodes = (
(723,1783,l),
(723,1138,l),
(2228,1138,l),
(2228,1783,l)
);
}
);
width = 2716;
},
{
layerId = "5C20EF92-B63D-42A8-8878-93C2863E0093";
shapes = (
{
closed = 1;
nodes = (
(206,2245,l),
(206,1944,l),
(2506,1944,l),
(2506,2245,l)
);
},
{
closed = 1;
nodes = (
(909,2207,l),
(739,1927,o),
(413,1702,o),
(77,1564,c),
(153,1493,o),
(278,1336,o),
(336,1256,c),
(688,1443,o),
(1052,1735,o),
(1271,2081,c)
);
},
{
closed = 1;
nodes = (
(1820,956,l),
(432,594,o),
(360,412,o),
(360,209,cs),
(360,-37,o),
(566,-187,o),
(989,-187,cs),
(1986,-187,ls),
(2369,-187,o),
(2520,-88,o),
(2559,389,c),
(2450,417,o),
(2322,451,o),
(2215,519,c),
(2201,209,o),
(2140,177,o),
(2018,177,cs),
(964,177,ls),
(829,177,o),
(750,196,o),
(750,241,cs),
(750,313,o),
(848,396,o),
(2133,694,cs),
(2168,708,o),
(2197,729,o),
(2212,745,c),
(1948,969,l),
(1868,956,l)
);
},
{
closed = 1;
nodes = (
(397,956,l),
(397,632,l),
(1742,632,l),
(1856,956,l)
);
},
{
closed = 1;
nodes = (
(1048,1515,l),
(1874,1515,l),
(1874,1341,l),
(1048,1341,l)
);
},
{
closed = 1;
nodes = (
(638,1798,l),
(638,1059,l),
(2316,1059,l),
(2316,1798,l)
);
}
);
width = 2716;
},
{
layerId = "B1F27B51-9973-4381-9301-4FE46FE1CA59";
shapes = (
{
closed = 1;
nodes = (
(295,2143,l),
(295,2076,l),
(2432,2076,l),
(2432,2143,l)
);
},
{
closed = 1;
nodes = (
(1116,2128,l),
(902,1840,o),
(533,1583,o),
(178,1424,c),
(198,1411,o),
(225,1388,o),
(234,1375,c),
(578,1544,o),
(948,1800,o),
(1177,2108,c)
);
},
{
closed = 1;
nodes = (
(1898,933,l),
(459,344,o),
(418,185,o),
(418,84,cs),
(418,-30,o),
(513,-98,o),
(759,-98,cs),
(2138,-98,ls),
(2338,-98,o),
(2385,-52,o),
(2407,346,c),
(2384,351,o),
(2353,362,o),
(2333,376,c),
(2318,18,o),
(2288,-22,o),
(2143,-22,cs),
(750,-22,ls),
(594,-22,o),
(493,10,o),
(493,88,cs),
(493,173,o),
(591,314,o),
(1958,887,cs),
(1970,892,o),
(1983,897,o),
(1989,908,c),
(1932,938,l),
(1911,933,l)
);
},
{
closed = 1;
nodes = (
(471,933,l),
(471,867,l),
(1902,867,l),
(1922,933,l)
);
},
{
closed = 1;
nodes = (
(842,1707,l),
(2110,1707,l),
(2110,1259,l),
(842,1259,l)
);
},
{
closed = 1;
nodes = (
(777,1775,l),
(777,1191,l),
(2173,1191,l),
(2173,1775,l)
);
}
);
width = 2716;
}
);
note = cid09626;
unicode = 20077;
}
{
color = 0;
glyphname = uni4E73;
layers = (
{
layerId = "CD0E3B44-F66A-4791-B84C-A1128DC61275";
shapes = (
{
closed = 1;
nodes = (
(238,1349,l),
(238,1175,l),
(1234,1175,l),
(1234,1349,l)
);
},
{
closed = 1;
nodes = (
(709,920,l),
(709,37,ls),
(709,7,o),
(698,-4,o),
(660,-7,cs),
(621,-8,o),
(491,-8,o),
(345,-5,c),
(372,-58,o),
(401,-130,o),
(411,-185,c),
(596,-185,o),
(720,-182,o),
(800,-156,cs),
(880,-122,o),
(901,-72,o),
(901,34,cs),
(901,920,l)
);
},
{
closed = 1;
nodes = (
(134,462,l),
(481,493,o),
(989,538,o),
(1471,582,c),
(1471,767,l),
(970,723,o),
(446,682,o),
(108,660,c)
);
},
{
closed = 1;
nodes = (
(1174,1349,l),
(1174,1311,l),
(1077,1180,o),
(891,999,o),
(737,893,c),
(766,867,o),
(816,820,o),
(840,788,c),
(1024,904,o),
(1241,1093,o),
(1394,1258,c),
(1268,1363,l),
(1223,1349,l)
);
},
{
closed = 1;
nodes = (
(1265,2309,l),
(1066,2228,o),
(695,2158,o),
(388,2121,c),
(412,2076,o),
(441,2008,o),
(449,1963,c),
(769,1999,o),
(1161,2060,o),
(1413,2158,c)
);
},
{
closed = 1;
nodes = (
(1579,2262,l),
(1579,201,ls),
(1579,-78,o),
(1645,-154,o),
(1890,-154,cs),
(1941,-154,o),
(2248,-154,o),
(2300,-154,cs),
(2542,-154,o),
(2591,4,o),
(2613,465,c),
(2558,478,o),
(2477,515,o),
(2430,554,c),
(2414,136,o),
(2400,28,o),
(2288,28,cs),
(2218,28,o),
(1965,28,o),
(1913,28,cs),
(1799,28,o),
(1779,56,o),
(1779,195,cs),
(1779,2262,l)
);
},
{
closed = 1;
nodes = (
(653,1880,l),
(707,1742,o),
(748,1557,o),
(750,1439,c),
(925,1477,l),
(921,1596,o),
(877,1775,o),
(815,1912,c)
);
},
{
closed = 1;
nodes = (
(1079,1933,l),
(1186,1782,o),
(1285,1573,o),
(1319,1433,c),
(1485,1488,l),
(1449,1628,o),
(1345,1829,o),
(1236,1978,c)
);
},
{
closed = 1;
nodes = (
(346,2175,l),
(302,1949,o),
(205,1659,o),
(72,1472,c),
(114,1449,o),
(182,1404,o),
(220,1373,c),
(366,1573,o),
(472,1885,o),
(536,2133,c)
);
}
);
width = 2716;
},
{
layerId = "5C20EF92-B63D-42A8-8878-93C2863E0093";
shapes = (
{
closed = 1;
nodes = (
(185,1345,l),
(185,1000,l),
(1073,1000,l),
(1073,1345,l)
);
},
{
closed = 1;
nodes = (
(578,880,l),
(578,159,ls),
(578,132,o),
(563,120,o),
(525,118,cs),
(496,122,o),
(356,122,o),
(265,125,c),
(310,28,o),
(366,-121,o),
(383,-235,c),
(561,-235,o),
(701,-223,o),
(821,-175,cs),
(938,-112,o),
(968,-22,o),
(968,148,cs),
(968,880,l)
);
},
{
closed = 1;
nodes = (
(117,350,l),
(473,380,o),
(970,413,o),
(1435,451,c),
(1435,812,l),
(956,776,o),
(432,746,o),
(72,733,c)
);
},
{
closed = 1;
nodes = (
(949,1345,l),
(949,1271,l),
(893,1161,o),
(752,963,o),
(638,853,c),
(686,803,o),
(785,708,o),
(826,644,c),
(1019,779,o),
(1218,994,o),
(1377,1155,c),
(1143,1373,l),
(1053,1345,l)
);
},
{
closed = 1;
nodes = (
(1153,2350,l),
(944,2263,o),
(618,2174,o),
(316,2130,c),
(362,2045,o),
(417,1909,o),
(432,1820,c),
(761,1864,o),
(1144,1933,o),
(1448,2047,c)
);
},
{
closed = 1;
nodes = (
(1548,2290,l),
(1548,336,ls),
(1548,-87,o),
(1637,-223,o),
(1962,-223,cs),
(2023,-223,o),
(2172,-223,o),
(2233,-223,cs),
(2537,-223,o),
(2632,-15,o),
(2663,515,c),
(2553,542,o),
(2382,617,o),
(2291,694,c),
(2275,271,o),
(2261,153,o),
(2195,153,cs),
(2159,153,o),
(2060,153,o),
(2034,153,cs),
(1964,153,o),
(1959,177,o),
(1959,328,cs),
(1959,2290,l)
);
},
{
closed = 1;
nodes = (
(558,1785,l),
(612,1657,o),
(651,1481,o),
(652,1371,c),
(987,1441,l),
(984,1556,o),
(938,1722,o),
(878,1845,c)
);
},
{
closed = 1;
nodes = (
(978,1854,l),
(1061,1710,o),
(1129,1513,o),
(1144,1383,c),
(1477,1480,l),
(1457,1611,o),
(1376,1794,o),
(1295,1929,c)
);
},
{
closed = 1;
nodes = (
(256,2234,l),
(222,2011,o),
(152,1725,o),
(37,1549,c),
(119,1502,o),
(253,1411,o),
(332,1351,c),
(469,1555,o),
(566,1880,o),
(634,2150,c)
);
}
);
width = 2716;
},
{
layerId = "B1F27B51-9973-4381-9301-4FE46FE1CA59";
shapes = (
{
closed = 1;
nodes = (
(274,1352,l),
(274,1288,l),
(1338,1288,l),
(1338,1352,l)
);
},
{
closed = 1;
nodes = (
(792,945,l),
(792,-43,ls),
(792,-75,o),
(785,-86,o),
(747,-89,cs),
(702,-92,o),
(578,-92,o),
(398,-89,c),
(412,-112,o),
(424,-137,o),
(428,-153,c),
(619,-153,o),
(732,-157,o),
(786,-144,cs),
(843,-128,o),
(858,-104,o),
(858,-39,cs),
(858,945,l)
);
},
{
closed = 1;
nodes = (
(144,534,l),
(487,567,o),
(1001,619,o),
(1493,665,c),
(1493,738,l),
(979,688,o),
(455,642,o),
(130,613,c)
);
},
{
closed = 1;
nodes = (
(1318,1352,l),
(1318,1336,l),
(1196,1192,o),
(981,1021,o),
(802,918,c),
(818,907,o),
(836,892,o),
(848,881,c),
(1027,986,o),
(1256,1157,o),
(1404,1326,c),
(1349,1357,l),
(1333,1352,l)
);
},
{
closed = 1;
nodes = (
(1337,2284,l),
(1146,2205,o),
(745,2147,o),
(435,2114,c),
(443,2097,o),
(456,2072,o),
(459,2056,c),
(774,2086,o),
(1171,2143,o),
(1390,2231,c)
);
},
{
closed = 1;
nodes = (
(1599,2244,l),
(1599,114,ls),
(1599,-72,o),
(1652,-110,o),
(1843,-110,cs),
(1888,-110,o),
(2298,-110,o),
(2343,-110,cs),
(2544,-110,o),
(2566,16,o),
(2581,433,c),
(2560,438,o),
(2538,448,o),
(2520,464,c),
(2504,49,o),
(2490,-53,o),
(2348,-53,cs),
(2256,-53,o),
(1904,-53,o),
(1833,-53,cs),
(1692,-53,o),
(1664,-22,o),
(1664,110,cs),
(1664,2244,l)
);
},
{
closed = 1;
nodes = (
(713,1941,l),
(768,1797,o),
(811,1606,o),
(815,1483,c),
(886,1499,l),
(880,1621,o),
(837,1811,o),
(774,1955,c)
);
},
{
closed = 1;
nodes = (
(1146,1986,l),
(1268,1828,o),
(1386,1610,o),
(1432,1465,c),
(1492,1495,l),
(1444,1638,o),
(1325,1852,o),
(1198,2010,c)
);
},
{
closed = 1;
nodes = (
(404,2138,l),
(354,1910,o),
(241,1616,o),
(95,1422,c),
(112,1413,o),
(136,1398,o),
(148,1387,c),
(298,1586,o),
(411,1888,o),
(473,2123,c)
);
}
);
width = 2716;
}
);
note = cid62074;
unicode = 20083;
}
{
color = 0;
glyphname = uni4E77;
layers = (
{
layerId = "CD0E3B44-F66A-4791-B84C-A1128DC61275";
shapes = (
{
closed = 1;
nodes = (
(1868,846,l),
(446,412,o),
(396,250,o),
(396,114,cs),
(396,-46,o),
(532,-141,o),
(842,-141,cs),
(2133,-141,ls),
(2398,-141,o),
(2488,-84,o),
(2517,319,c),
(2460,328,o),
(2391,353,o),
(2339,384,c),
(2328,72,o),
(2283,39,o),
(2152,39,cs),
(823,39,ls),
(679,39,o),
(586,64,o),
(586,130,cs),
(586,203,o),
(686,318,o),
(2021,720,c),
(2045,725,o),
(2062,739,o),
(2072,750,c),
(1933,853,l),
(1894,846,l)
);
},
{
closed = 1;
nodes = (
(402,846,l),
(402,688,l),
(1834,688,l),
(1892,846,l)
);
},
{
closed = 1;
nodes = (
(1585,2309,l),
(1585,1633,ls),
(1585,1605,o),
(1578,1598,o),
(1545,1598,cs),
(1512,1595,o),
(1404,1595,o),
(1282,1598,c),
(1308,1555,o),
(1344,1490,o),
(1358,1443,c),
(1515,1443,o),
(1612,1446,o),
(1682,1472,cs),
(1748,1498,o),
(1766,1541,o),
(1766,1631,cs),
(1766,2309,l)
);
},
{
closed = 1;
nodes = (
(2138,1745,l),
(1953,1365,o),
(1486,1197,o),
(791,1135,c),
(828,1092,o),
(867,1024,o),
(882,972,c),
(1613,1061,o),
(2113,1258,o),
(2310,1693,c)
);
},
{
closed = 1;
nodes = (
(1178,2165,l),
(1090,1966,o),
(946,1765,o),
(788,1633,c),
(827,1608,o),
(900,1554,o),
(932,1525,c),
(1089,1671,o),
(1250,1896,o),
(1348,2123,c)
);
},
{
closed = 1;
nodes = (
(2000,2105,l),
(2181,1948,o),
(2378,1723,o),
(2460,1571,c),
(2615,1660,l),
(2525,1816,o),
(2325,2037,o),
(2140,2188,c)
);
},
{
closed = 1;
nodes = (
(121,1841,l),
(268,1786,o),
(453,1691,o),
(542,1619,c),
(637,1758,l),
(542,1829,o),
(357,1917,o),
(214,1966,c)
);
},
{
closed = 1;
nodes = (
(289,2187,l),
(430,2132,o),
(608,2037,o),
(695,1965,c),
(792,2102,l),
(700,2173,o),
(527,2263,o),
(385,2309,c)
);
},
{
closed = 1;
nodes = (
(321,945,l),
(467,1108,o),
(629,1306,o),
(765,1485,c),
(660,1606,l),
(506,1410,o),
(323,1201,o),
(195,1074,c)
);
}
);
width = 2716;
},
{
layerId = "5C20EF92-B63D-42A8-8878-93C2863E0093";
shapes = (
{
closed = 1;
nodes = (
(1820,891,l),
(425,568,o),
(360,396,o),
(360,204,cs),
(360,-36,o),
(563,-177,o),
(977,-177,cs),
(2011,-177,ls),
(2384,-177,o),
(2533,-89,o),
(2574,373,c),
(2465,390,o),
(2341,435,o),
(2242,491,c),
(2229,196,o),
(2163,163,o),
(2050,163,cs),
(944,163,ls),
(814,163,o),
(728,181,o),
(728,233,cs),
(728,298,o),
(829,382,o),
(2119,644,c),
(2156,653,o),
(2183,675,o),
(2197,688,c),
(1938,901,l),
(1868,891,l)
);
},
{
closed = 1;
nodes = (
(407,891,l),
(407,594,l),
(1744,594,l),
(1856,891,l)
);
},
{
closed = 1;
nodes = (
(1506,2350,l),
(1506,1744,ls),
(1506,1717,o),
(1498,1715,o),
(1465,1715,cs),
(1433,1711,o),
(1314,1711,o),
(1218,1715,c),
(1268,1640,o),
(1342,1512,o),
(1367,1422,c),
(1520,1422,o),
(1628,1429,o),
(1735,1472,cs),
(1838,1522,o),
(1865,1590,o),
(1865,1739,cs),
(1865,2350,l)
);
},
{
closed = 1;
nodes = (
(2048,1830,l),
(1868,1451,o),
(1463,1299,o),
(900,1233,c),
(971,1153,o),
(1051,1019,o),
(1081,918,c),
(1734,1039,o),
(2167,1244,o),
(2390,1742,c)
);
},
{
closed = 1;
nodes = (
(1115,2222,l),
(1041,2030,o),
(920,1827,o),
(772,1701,c),
(844,1651,o),
(985,1554,o),
(1048,1498,c),
(1201,1648,o),
(1358,1896,o),
(1447,2142,c)
);
},
{
closed = 1;
nodes = (
(1914,2098,l),
(2101,1935,o),
(2299,1704,o),
(2380,1547,c),
(2683,1717,l),
(2587,1883,o),
(2378,2108,o),
(2190,2260,c)
);
},
{
closed = 1;
nodes = (
(81,1729,l),
(218,1675,o),
(417,1589,o),
(506,1525,c),
(679,1794,l),
(573,1851,o),
(374,1931,o),
(245,1971,c)
);
},
{
closed = 1;
nodes = (
(275,2107,l),
(413,2061,o),
(604,1968,o),
(695,1912,c),
(875,2174,l),
(772,2236,o),
(586,2310,o),
(447,2350,c)
);
},
{
closed = 1;
nodes = (
(389,886,l),
(547,1054,o),
(714,1238,o),
(868,1417,c),
(669,1647,l),
(489,1451,o),
(287,1251,o),
(147,1127,c)
);
}
);
width = 2716;
},
{
layerId = "B1F27B51-9973-4381-9301-4FE46FE1CA59";
shapes = (
{
closed = 1;
nodes = (
(1898,817,l),
(460,312,o),
(418,154,o),
(418,56,cs),
(418,-52,o),
(510,-119,o),
(755,-119,cs),
(2213,-119,ls),
(2407,-119,o),
(2459,-81,o),
(2480,283,c),
(2457,289,o),
(2423,300,o),
(2402,315,c),
(2393,-10,o),
(2361,-43,o),
(2218,-43,cs),
(745,-43,ls),
(592,-43,o),
(494,-12,o),
(494,62,cs),
(494,142,o),
(594,278,o),
(1958,770,c),
(1973,772,o),
(1984,779,o),
(1990,790,c),
(1930,823,l),
(1911,817,l)
);
},
{
closed = 1;
nodes = (
(399,817,l),
(399,749,l),
(1892,749,l),
(1914,817,l)
);
},
{
closed = 1;
nodes = (
(1638,2284,l),
(1638,1560,ls),
(1638,1533,o),
(1630,1522,o),
(1598,1522,cs),
(1565,1520,o),
(1463,1520,o),
(1322,1522,c),
(1333,1500,o),
(1346,1476,o),
(1351,1457,c),
(1512,1457,o),
(1601,1456,o),
(1646,1472,cs),
(1689,1483,o),
(1702,1509,o),
(1702,1561,cs),
(1702,2284,l)
);
},
{
closed = 1;
nodes = (
(2196,1691,l),
(2007,1311,o),
(1501,1130,o),
(722,1070,c),
(735,1052,o),
(748,1027,o),
(755,1007,c),
(1536,1075,o),
(2078,1267,o),
(2258,1661,c)
);
},
{
closed = 1;
nodes = (
(1219,2128,l),
(1122,1926,o),
(963,1725,o),
(799,1588,c),
(817,1580,o),
(846,1554,o),
(857,1542,c),
(1017,1686,o),
(1180,1896,o),
(1283,2111,c)
);
},
{
closed = 1;
nodes = (
(2054,2111,l),
(2233,1956,o),
(2431,1735,o),
(2513,1586,c),
(2571,1622,l),
(2485,1773,o),
(2289,1991,o),
(2108,2143,c)
);
},
{
closed = 1;
nodes = (
(146,1913,l),
(300,1858,o),
(475,1757,o),
(564,1680,c),
(609,1736,l),
(521,1815,o),
(347,1908,o),
(193,1963,c)
);
},
{
closed = 1;
nodes = (
(297,2239,l),
(441,2178,o),
(611,2081,o),
(695,2001,c),
(740,2055,l),
(654,2132,o),
(489,2232,o),
(346,2284,c)
);
},
{
closed = 1;
nodes = (
(277,983,l),
(414,1143,o),
(575,1350,o),
(698,1529,c),
(653,1581,l),
(517,1385,o),
(345,1169,o),
(226,1038,c)
);
}
);
width = 2716;
}
);
note = cid09639;
unicode = 20087;
}
